<svg xmlns="http://www.w3.org/2000/svg" xmlns:xlink="http://www.w3.org/1999/xlink" width="828" height="828" viewBox="0 0 828 828">
  <symbol id="a" viewBox="-27.769 -32.001 55.539 64.002">
    <path d="M16.27-9c-2.42 0-4.664-.752-6.517-2.03L5.85-6.382c2.886 1.123 5.956 2.785 7.717 5.133 4 5.335 13.166 18 14 21.5C28.4 23.75 26.4 32 26.4 32L0 .58-26.396 32s-2-8.25-1.166-11.75c.833-3.5 10-16.166 14-21.5 1.76-2.348 4.83-4.01 7.715-5.133l-3.9-4.646c-1.856 1.28-4.1 2.03-6.52 2.03-6.353 0-11.5-5.148-11.5-11.5 0-6.35 5.147-11.5 11.5-11.5s11.5 5.15 11.5 11.5c0 2.162-.608 4.178-1.646 5.906l5.228 6.22s.45.074 1.187.236c.74-.162 1.186-.238 1.186-.238l5.228-6.22C5.376-16.326 4.77-18.34 4.77-20.5c0-6.35 5.147-11.5 11.5-11.5s11.5 5.15 11.5 11.5S22.62-9 16.27-9zm-32.54-17c-3.032 0-5.5 2.467-5.5 5.5s2.468 5.5 5.5 5.5 5.5-2.467 5.5-5.5-2.466-5.5-5.5-5.5zm32.538 0c-3.034 0-5.5 2.467-5.5 5.5s2.466 5.5 5.5 5.5c3.032 0 5.5-2.467 5.5-5.5S19.3-26 16.27-26h-.002z"/>
  </symbol>
  <path fill="#FFFFFF" d="M0 0h828v828H0z"/>
  <g fill="none" stroke="#C6C7C8" stroke-width=".5" stroke-miterlimit="10">
    <circle cx="413.966" cy="413.966" r="170.079"/>
    <path d="M158.848 561.292v-.002m0 0v.002m22.572-379.377l71.975-41.555 75.854-43.794m-.095 634.798l-73.398-42.24-74.04-42.608m549.762-317.36l.105 85.617.107 83.62M95.9 330.127l.105 83.073.11 84.985M646.52 181.93l-75.35-43.268-73.282-42.082m148.57 549.524l-74.262 43.06-72.784 42.2"/>
  </g>
  <path d="M30.397 777.756l-1.75 2.16-.55-.38 1.35-2.1-1.35-2.1.55-.38 1.75 2.17v.63zm2.26 0l-1.75 2.16-.55-.38 1.35-2.1-1.35-2.1.55-.38 1.75 2.17v.63zm7.53-2.258l-.295.386c-.333-.28-.68-.42-1.158-.42-.95 0-1.612.748-1.612 2.254 0 1.494.657 2.19 1.607 2.19.48 0 .84-.162 1.2-.457l.29.407c-.415.353-.91.56-1.5.56-1.348 0-2.22-.99-2.22-2.688 0-1.687.862-2.76 2.21-2.76.585 0 1.03.153 1.477.528zm4.593 4.807l-.037-.93c-.362.624-.9 1.04-1.71 1.04-.93 0-1.475-.57-1.475-1.6v-3.74h.58v3.685c0 .83.35 1.176 1.034 1.176.685 0 1.164-.444 1.527-1.066v-3.79h.58v5.228h-.5v-.003zm4.997-.218c-.317.207-.675.327-1.103.327-.79 0-1.277-.465-1.277-1.38v-3.49h-.88v-.468h.88v-1.25l.58-.065v1.318h1.348l-.073.468h-1.275v3.462c0 .606.236.91.767.91.29 0 .538-.085.798-.24l.235.41zm7.073-.94c0 .58.154.75.44.86l-.133.403c-.46-.095-.73-.324-.814-.872-.372.588-.923.873-1.62.873-1.017 0-1.624-.626-1.624-1.56 0-1.096.83-1.693 2.17-1.693h1v-.5c0-.824-.344-1.197-1.21-1.197-.43 0-.9.11-1.42.3l-.153-.444c.577-.224 1.097-.35 1.646-.35 1.188 0 1.712.59 1.712 1.656v2.52l.005.004zm-.58-.14v-1.42h-.914c-1.046 0-1.64.41-1.64 1.242 0 .716.408 1.12 1.1 1.12.67 0 1.13-.34 1.454-.945v.002zm3.217.397c0 .346.117.513.43.513.123 0 .244-.025.355-.07l.158.427c-.184.088-.4.143-.62.143-.566 0-.902-.323-.902-1.006v-6.462l.58-.07v6.527zm6.22-1.727c0 1.687-.842 2.737-2.216 2.737-1.39 0-2.21-1.04-2.21-2.716 0-1.68.85-2.73 2.224-2.73 1.383 0 2.206 1.002 2.205 2.71h-.003zm-2.206-2.223c-.99 0-1.6.744-1.6 2.244 0 1.462.59 2.228 1.594 2.228 1 0 1.6-.754 1.6-2.25 0-1.472-.584-2.222-1.59-2.222H63.5zm7.675 1.116v3.732h-.58v-3.652c0-.863-.347-1.21-.983-1.21-.714 0-1.196.44-1.623 1.077v3.787h-.58v-5.23h.5l.053.895c.417-.597 1-1 1.755-1 .955 0 1.46.593 1.46 1.602l-.003-.002zm5.96-1.384c-.358.105-.813.145-1.447.146.55.26.89.704.89 1.424 0 1.022-.71 1.723-1.893 1.723-.247 0-.476-.036-.68-.105-.243.14-.397.354-.397.604 0 .303.205.534.832.534h.85c1.035 0 1.672.556 1.672 1.334 0 .943-.74 1.508-2.266 1.508-1.582 0-2.177-.46-2.177-1.5h.54c.01.73.382 1.02 1.635 1.02 1.216 0 1.676-.37 1.676-.987 0-.56-.437-.87-1.18-.87h-.845c-.868 0-1.293-.42-1.293-.926 0-.352.214-.657.576-.886-.598-.31-.88-.777-.88-1.477 0-1.046.77-1.77 1.913-1.77 1.403.022 1.78-.13 2.294-.337l.176.56.005.003zm-3.79 1.55c0 .835.527 1.317 1.323 1.317.846 0 1.318-.48 1.318-1.31 0-.818-.43-1.333-1.315-1.333-.89.003-1.325.553-1.325 1.326zm10.102 3.35c-.317.208-.675.328-1.104.328-.79 0-1.277-.465-1.277-1.38v-3.49h-.88v-.468h.88v-1.25l.58-.065v1.318h1.348l-.073.468h-1.273v3.462c0 .606.236.91.767.91.29 0 .538-.085.798-.24l.237.41-.003-.002zm4.798-3.516v3.732h-.58v-3.652c0-.853-.356-1.21-.988-1.21-.707 0-1.193.44-1.62 1.072v3.792h-.58v-7.354l.58-.073v3.07c.423-.59.988-.98 1.73-.98.943 0 1.458.61 1.458 1.603zm5.783.924c0 .164-.01.322-.02.426h-3.493c.074 1.413.736 2.002 1.63 2.002.57 0 .954-.173 1.41-.515l.272.37c-.487.396-1.016.637-1.713.637-1.37 0-2.214-1.002-2.214-2.677 0-1.673.81-2.77 2.09-2.77 1.352 0 2.035.99 2.038 2.527zm-.575-.182c0-1.136-.46-1.862-1.442-1.862-.81 0-1.435.604-1.496 2.02h2.94v-.158zm8.768 2.993h-.51l-.06-.796c-.304.514-.814.902-1.574.902-1.213 0-1.956-1.04-1.956-2.7 0-1.61.767-2.747 2.05-2.747.715 0 1.164.342 1.47.71v-2.802l.58.07v7.362zm-.58-1.342v-2.723c-.313-.445-.73-.79-1.372-.79-.916 0-1.537.79-1.53 2.253.004 1.46.548 2.228 1.434 2.228.7 0 1.11-.35 1.47-.967zm5.95.183c0 .58.154.752.44.86l-.133.404c-.46-.095-.73-.324-.814-.872-.372.588-.923.873-1.62.873-1.017 0-1.624-.626-1.624-1.56 0-1.096.832-1.693 2.17-1.693h1v-.5c0-.824-.34-1.197-1.21-1.197-.427 0-.9.11-1.42.3l-.15-.444c.577-.224 1.097-.35 1.65-.35 1.185 0 1.71.59 1.71 1.656v2.524zm-.58-.14v-1.42h-.914c-1.046 0-1.64.41-1.64 1.243 0 .716.408 1.12 1.1 1.12.672 0 1.13-.34 1.455-.944zm5.637-3.456l-.28.39c-.453-.334-.84-.49-1.37-.49-.692 0-1.16.34-1.16.88 0 .517.334.743 1.266.99 1.148.3 1.683.687 1.683 1.577 0 .97-.845 1.52-1.887 1.52-.853 0-1.42-.29-1.875-.675l.33-.37c.437.357.89.56 1.535.56.753 0 1.287-.366 1.287-.99 0-.643-.293-.876-1.378-1.167-1.12-.293-1.57-.705-1.57-1.44 0-.794.756-1.36 1.747-1.36.666-.002 1.172.196 1.666.58l.002-.002.002-.003zm5.458 1.02v3.732h-.58v-3.652c0-.853-.356-1.21-.988-1.21-.707 0-1.193.44-1.62 1.072v3.792h-.58v-7.354l.58-.073v3.07c.423-.59.988-.98 1.73-.98.943 0 1.458.61 1.458 1.603zm5.782.924c0 .164-.01.322-.02.426h-3.493c.074 1.413.736 2.002 1.63 2.002.57 0 .954-.173 1.41-.515l.272.37c-.487.396-1.016.637-1.713.637-1.37 0-2.214-1.002-2.214-2.677 0-1.673.812-2.77 2.09-2.77 1.353 0 2.037.99 2.037 2.527zm-.575-.182c0-1.136-.457-1.862-1.44-1.862-.813 0-1.436.604-1.497 2.02h2.94v-.157h-.003zm5.98 2.993h-.51l-.06-.796c-.308.514-.816.902-1.578.902-1.213 0-1.956-1.04-1.956-2.7 0-1.61.77-2.747 2.052-2.747.714 0 1.163.342 1.47.71v-2.802l.58.07v7.36l.002.002zm-.58-1.342v-2.723c-.315-.445-.733-.79-1.374-.79-.916 0-1.537.79-1.53 2.253.004 1.46.548 2.228 1.434 2.228.698 0 1.11-.35 1.47-.967zm6.017.44c0 .347.116.514.43.514.122 0 .243-.025.353-.07l.16.427c-.185.088-.4.143-.62.143-.567 0-.903-.323-.903-1.006v-6.462l.58-.07v6.525zm3.034-6.205c0 .23-.17.415-.44.415-.26 0-.43-.187-.43-.415 0-.234.17-.42.43-.42.27 0 .44.186.44.42zm-.725 7.107v-5.23h.58v5.23h-.58zm6.465-3.735v3.732h-.58v-3.652c0-.863-.347-1.21-.983-1.21-.716 0-1.198.44-1.625 1.077v3.787h-.58v-5.23h.5l.054.895c.415-.597 1-1 1.753-1 .955 0 1.46.593 1.46 1.602l.002-.002zm5.783.924c0 .164-.01.322-.02.426h-3.493c.074 1.413.736 2.002 1.63 2.002.57 0 .954-.173 1.41-.515l.272.37c-.487.396-1.016.637-1.713.637-1.37 0-2.214-1.002-2.214-2.677 0-1.673.812-2.77 2.09-2.77 1.354 0 2.038.99 2.038 2.527zm-.575-.182c0-1.136-.457-1.862-1.44-1.862-.813 0-1.436.604-1.497 2.02h2.94v-.157h-.003zm5.196-1.762l-.28.39c-.454-.334-.84-.49-1.37-.49-.693 0-1.16.34-1.16.88 0 .517.333.743 1.266.99 1.146.3 1.683.687 1.683 1.577 0 .97-.846 1.52-1.888 1.52-.853 0-1.42-.29-1.875-.675l.33-.37c.437.357.89.56 1.535.56.754 0 1.288-.366 1.288-.99 0-.643-.293-.876-1.378-1.167-1.118-.293-1.567-.705-1.567-1.44 0-.794.755-1.36 1.746-1.36.666-.002 1.17.196 1.666.58v-.002l.003-.003zM30.4 789.756l-1.75 2.16-.55-.38 1.35-2.1-1.35-2.1.55-.38 1.75 2.17v.63zm2.26 0l-1.75 2.16-.55-.38 1.35-2.1-1.35-2.1.55-.38 1.75 2.17v.63zm7.867 2.55l-1.16-4.69-1.175 4.69h-.77l-1.308-5.23h.596l1.113 4.782 1.22-4.78h.67l1.197 4.786 1.107-4.786h.567l-1.275 5.23-.78-.003h-.003zm7.14-3.736v3.732h-.58v-3.652c0-.853-.355-1.21-.987-1.21-.707 0-1.193.44-1.62 1.072v3.792h-.58v-7.354l.58-.073v3.07c.423-.59.988-.98 1.73-.98.943 0 1.458.61 1.457 1.603zm5.783.924c0 .164-.01.322-.02.426h-3.495c.074 1.413.736 2.002 1.63 2.002.57 0 .954-.173 1.41-.515l.272.37c-.487.396-1.016.637-1.713.637-1.37 0-2.214-1.002-2.214-2.677 0-1.673.812-2.77 2.09-2.77 1.355 0 2.04.99 2.04 2.527zm-.575-.182c0-1.135-.46-1.86-1.442-1.86-.813 0-1.436.603-1.497 2.02h2.94v-.16zm6.012-.742v3.732h-.58v-3.652c0-.863-.347-1.21-.982-1.21-.715 0-1.197.44-1.624 1.077v3.787h-.58v-5.23h.5l.055.895c.416-.597 1-1 1.754-1 .953 0 1.46.592 1.457 1.6zm8.036 3.735l-.038-.93c-.362.624-.9 1.04-1.71 1.04-.93 0-1.475-.57-1.475-1.6v-3.74h.58v3.685c0 .83.35 1.176 1.034 1.176.687 0 1.166-.444 1.53-1.066v-3.79h.58v5.228h-.5v-.003zm5.567-4.755l-.28.39c-.453-.334-.84-.49-1.37-.49-.692 0-1.16.34-1.16.88 0 .517.334.743 1.266.99 1.148.3 1.683.687 1.683 1.577 0 .97-.846 1.52-1.888 1.52-.855 0-1.42-.29-1.876-.675l.33-.37c.437.356.89.56 1.535.56.755 0 1.29-.366 1.29-.99 0-.643-.294-.876-1.38-1.167-1.117-.293-1.566-.705-1.566-1.44 0-.794.755-1.36 1.746-1.36.666-.002 1.172.196 1.666.58v-.002l.004-.003zm2.416-2.352c0 .23-.17.415-.44.415-.26 0-.43-.187-.43-.415 0-.234.17-.42.43-.42.27 0 .44.186.44.42zm-.725 7.107v-5.23h.58v5.23h-.58zm6.467-3.735v3.732h-.58v-3.652c0-.863-.347-1.21-.983-1.21-.714 0-1.196.44-1.623 1.077v3.787h-.58v-5.23h.5l.055.895c.417-.597 1-1 1.755-1 .955 0 1.46.593 1.46 1.6h-.003zm5.96-1.384c-.358.105-.814.145-1.447.146.55.26.89.704.89 1.424 0 1.02-.71 1.723-1.893 1.723-.247 0-.478-.036-.68-.105-.243.14-.397.354-.397.604 0 .303.205.534.832.534h.85c1.035 0 1.672.556 1.672 1.334 0 .943-.74 1.508-2.266 1.508-1.582 0-2.177-.46-2.177-1.5h.54c.01.73.384 1.02 1.637 1.02 1.216 0 1.676-.37 1.676-.987 0-.56-.438-.87-1.18-.87h-.846c-.868 0-1.293-.42-1.293-.926 0-.352.214-.657.576-.886-.598-.31-.88-.777-.88-1.477 0-1.046.77-1.77 1.913-1.77 1.402.022 1.778-.13 2.293-.337l.176.558v.004l.005.002zm-3.79 1.55c0 .835.526 1.317 1.322 1.317.845 0 1.317-.48 1.317-1.31 0-.818-.43-1.333-1.315-1.333-.893.002-1.328.552-1.327 1.325h.002zm10.976 2.41c0 .58.153.753.44.862l-.134.403c-.46-.094-.73-.323-.814-.87-.372.587-.923.872-1.62.872-1.017 0-1.624-.627-1.624-1.56 0-1.097.832-1.694 2.17-1.694h1v-.5c0-.824-.34-1.197-1.21-1.197-.427 0-.9.11-1.42.3l-.15-.443c.577-.224 1.097-.35 1.65-.35 1.185 0 1.71.59 1.71 1.656v2.523zm-.58-.14v-1.42h-.915c-1.046 0-1.64.41-1.64 1.243 0 .716.408 1.12 1.1 1.12.672 0 1.13-.34 1.455-.944zm8.748-3.508l-.295.386c-.333-.28-.68-.42-1.158-.42-.95 0-1.612.748-1.612 2.254 0 1.494.657 2.19 1.607 2.19.48 0 .84-.162 1.2-.457l.29.407c-.415.353-.91.56-1.5.56-1.348 0-2.22-.99-2.22-2.688 0-1.687.862-2.76 2.21-2.76.585 0 1.03.153 1.48.528zm5.33 2.18c0 1.686-.842 2.736-2.216 2.736-1.39 0-2.21-1.04-2.21-2.716 0-1.68.85-2.73 2.223-2.73 1.382 0 2.206 1.002 2.204 2.71zm-2.207-2.224c-.994 0-1.604.744-1.604 2.244 0 1.462.59 2.228 1.594 2.228 1 0 1.603-.754 1.603-2.25 0-1.472-.585-2.222-1.594-2.222zm10.36 1.116v3.732h-.58v-3.652c0-.853-.35-1.21-.888-1.21-.63 0-1.07.44-1.47 1.077v3.787h-.58v-3.652c0-.854-.345-1.21-.887-1.21-.63 0-1.076.44-1.47 1.077v3.784h-.58v-5.23h.5l.054.886c.386-.59.93-.992 1.603-.992.67 0 1.134.386 1.294 1.04.4-.617.95-1.04 1.64-1.04.846 0 1.36.61 1.36 1.604v-.002h.003zm6.132 1.096c0 1.654-.688 2.748-1.987 2.748-.654 0-1.163-.297-1.49-.72v2.58l-.58.08v-7.278h.5l.046.763c.385-.535.94-.875 1.61-.875 1.293 0 1.903 1.008 1.9 2.7zm-.616 0c0-1.484-.478-2.216-1.388-2.216-.67 0-1.113.396-1.474.9v2.776c.323.482.787.793 1.384.793.956.003 1.476-.76 1.477-2.254zm5.623 1.48c0 .58.153.753.44.862l-.134.403c-.46-.094-.73-.323-.814-.87-.372.587-.923.872-1.62.872-1.017 0-1.624-.627-1.624-1.56 0-1.097.832-1.694 2.17-1.694h1v-.5c0-.824-.342-1.197-1.21-1.197-.427 0-.9.11-1.418.3l-.153-.443c.577-.224 1.097-.35 1.648-.35 1.187 0 1.712.59 1.712 1.656v2.523h.003zm-.58-.14v-1.42h-.914c-1.047 0-1.64.41-1.64 1.243 0 .716.407 1.12 1.1 1.12.67 0 1.13-.34 1.453-.944zm5.637-3.456l-.28.39c-.453-.334-.84-.49-1.37-.49-.692 0-1.16.34-1.16.88 0 .517.334.743 1.266.99 1.148.3 1.684.687 1.684 1.577 0 .97-.845 1.52-1.887 1.52-.854 0-1.42-.29-1.876-.675l.33-.37c.438.356.89.56 1.535.56.754 0 1.29-.366 1.29-.99 0-.643-.295-.876-1.38-1.167-1.118-.293-1.567-.705-1.567-1.44 0-.794.755-1.36 1.746-1.36.667-.004 1.173.194 1.668.578l.002-.003zm4.64 0l-.28.39c-.454-.334-.84-.49-1.37-.49-.693 0-1.16.34-1.16.88 0 .517.333.743 1.265.99 1.148.3 1.683.687 1.683 1.577 0 .97-.845 1.52-1.887 1.52-.853 0-1.42-.29-1.873-.675l.33-.37c.437.356.89.56 1.535.56.753 0 1.287-.366 1.287-.99 0-.643-.294-.876-1.38-1.167-1.12-.293-1.566-.705-1.566-1.44 0-.794.755-1.36 1.746-1.36.665-.002 1.17.196 1.665.58v-.002l.005-.003zm7.75-.052l-.296.386c-.33-.28-.68-.42-1.156-.42-.95 0-1.612.748-1.612 2.254 0 1.494.658 2.19 1.608 2.19.483 0 .843-.162 1.2-.457l.293.407c-.414.353-.91.56-1.5.56-1.347 0-2.22-.99-2.22-2.688 0-1.687.863-2.76 2.21-2.76.586 0 1.032.152 1.478.53h-.003l-.002-.002zm4.593 4.807l-.038-.93c-.362.624-.9 1.04-1.71 1.04-.93 0-1.475-.57-1.475-1.6v-3.74h.58v3.685c0 .83.35 1.176 1.034 1.176.688 0 1.166-.444 1.53-1.066v-3.79h.58v5.228h-.5v-.003zm4.995-.218c-.317.207-.675.327-1.104.327-.79 0-1.275-.465-1.275-1.38v-3.49h-.88v-.468h.88v-1.25l.58-.065v1.318h1.347l-.073.468h-1.276v3.462c0 .606.236.91.767.91.29 0 .54-.085.8-.24l.233.41zm3.41 0c-.317.207-.675.327-1.103.327-.79 0-1.277-.465-1.277-1.38v-3.49h-.88v-.468h.88v-1.25l.58-.065v1.318h1.348l-.073.468h-1.275v3.462c0 .606.236.91.767.91.29 0 .538-.085.798-.24l.235.41zm4.64-2.593c0 .164-.01.322-.02.426h-3.492c.074 1.413.736 2.002 1.63 2.002.57 0 .954-.173 1.41-.515l.27.37c-.486.396-1.015.637-1.712.637-1.37 0-2.214-1.002-2.214-2.678 0-1.672.813-2.77 2.09-2.77 1.355 0 2.04.99 2.038 2.528zm-.574-.182c0-1.135-.457-1.86-1.44-1.86-.813 0-1.436.603-1.497 2.02h2.94v-.158l-.003-.002zm4.272-2.345c.208 0 .387.025.52.06l-.11.557c-.143-.04-.28-.06-.46-.06-.724 0-1.122.52-1.395 1.603v3.18h-.58v-5.23h.5l.046 1.174c.282-.86.758-1.283 1.48-1.283zm1.456 4.97c0 .17-.06.347-.147.548l-.56 1.33h-.422l.4-1.473c-.143-.08-.225-.23-.225-.404 0-.265.2-.476.476-.476.283 0 .48.212.478.475zm7.68-4.44l-.297.387c-.33-.28-.68-.42-1.156-.42-.95 0-1.613.748-1.613 2.254 0 1.494.658 2.19 1.608 2.19.483 0 .843-.162 1.2-.457l.292.407c-.415.353-.912.56-1.5.56-1.348 0-2.222-.99-2.222-2.688 0-1.687.864-2.76 2.21-2.76.587 0 1.033.152 1.48.53h-.003v-.003zm5.027 1.997c0 .164-.01.322-.02.426h-3.494c.074 1.413.736 2.002 1.63 2.002.57 0 .954-.173 1.41-.515l.272.37c-.487.396-1.016.637-1.713.637-1.37 0-2.212-1.002-2.212-2.678 0-1.672.813-2.77 2.09-2.77 1.354 0 2.038.99 2.037 2.527zm-.576-.182c0-1.135-.46-1.86-1.442-1.86-.812 0-1.436.603-1.497 2.02h2.94v-.16zm6.012-.742v3.732h-.58v-3.652c0-.863-.347-1.21-.983-1.21-.718 0-1.2.44-1.627 1.077v3.787h-.58v-5.23h.5l.054.895c.416-.597 1-1 1.754-1 .957 0 1.46.592 1.462 1.6zm4.453 3.517c-.318.207-.676.327-1.104.327-.79 0-1.277-.465-1.277-1.38v-3.49h-.88v-.468h.88v-1.25l.58-.065v1.318h1.347l-.073.468h-1.275v3.462c0 .606.235.91.766.91.29 0 .538-.085.798-.24l.235.41zm4.64-2.593c0 .164-.01.322-.02.426h-3.494c.074 1.413.736 2.002 1.63 2.002.57 0 .954-.173 1.41-.515l.272.37c-.487.396-1.016.637-1.713.637-1.37 0-2.212-1.002-2.212-2.678 0-1.672.813-2.77 2.09-2.77 1.354 0 2.038.99 2.038 2.526v.002zm-.576-.182c0-1.135-.46-1.86-1.442-1.86-.813 0-1.436.603-1.497 2.02h2.94v-.16zm4.272-2.345c.208 0 .387.025.52.06l-.11.557c-.143-.04-.28-.06-.46-.06-.724 0-1.122.52-1.395 1.603v3.18h-.58v-5.23h.5l.046 1.174c.282-.86.758-1.283 1.48-1.283zm5.218-1.77c0 .23-.17.416-.44.416-.26 0-.43-.187-.43-.415 0-.234.17-.42.43-.42.27 0 .44.186.44.42zm-.724 7.108v-5.23h.58v5.23h-.58zm5.078-.218c-.317.207-.675.327-1.104.327-.79 0-1.275-.465-1.275-1.38v-3.49h-.88v-.468h.88v-1.25l.58-.065v1.318h1.347l-.073.468h-1.276v3.462c0 .605.236.91.767.91.29 0 .54-.085.8-.24l.233.41zm7.832-2.41c0 1.687-.843 2.737-2.217 2.737-1.39 0-2.213-1.04-2.213-2.717 0-1.68.848-2.73 2.222-2.73 1.382 0 2.205 1.003 2.206 2.71h.002zm-2.207-2.223c-.996 0-1.606.743-1.606 2.243 0 1.463.59 2.23 1.595 2.23 1 0 1.6-.755 1.6-2.25 0-1.473-.585-2.223-1.59-2.223zm7.672 1.116v3.732h-.58v-3.652c0-.863-.347-1.21-.983-1.21-.718 0-1.2.44-1.627 1.077v3.787h-.58v-5.23h.5l.054.895c.415-.597 1-1 1.753-1 .956 0 1.46.592 1.462 1.6zm7.242 3.517c-.317.207-.675.327-1.104.327-.79 0-1.276-.465-1.276-1.38v-3.49h-.88v-.468h.88v-1.25l.58-.065v1.318h1.348l-.073.468h-1.277v3.462c0 .606.236.91.767.91.29 0 .54-.085.8-.24l.235.41zm4.798-3.517v3.732h-.58v-3.652c0-.853-.356-1.21-.988-1.21-.707 0-1.193.44-1.62 1.072v3.792h-.58v-7.354l.58-.073v3.07c.423-.59.988-.98 1.73-.98.943 0 1.458.61 1.458 1.603zm5.782.924c0 .164-.01.322-.02.426h-3.494c.076 1.413.738 2.002 1.633 2.002.57 0 .953-.173 1.408-.515l.274.37c-.487.396-1.016.637-1.713.637-1.37 0-2.213-1.002-2.213-2.678 0-1.672.812-2.77 2.09-2.77 1.354 0 2.038.99 2.037 2.527h-.003zm-.575-.182c0-1.135-.46-1.86-1.444-1.86-.812 0-1.436.603-1.497 2.02h2.94l.002-.16zm7.414 2.775c-.317.207-.675.327-1.103.327-.79 0-1.275-.465-1.275-1.38v-3.49h-.88v-.468h.88v-1.25l.58-.065v1.318h1.348l-.073.468h-1.275v3.462c0 .606.236.91.767.91.29 0 .54-.085.8-.24l.234.41h-.004zm1.756-6.89c0 .23-.17.416-.44.416-.26 0-.43-.187-.43-.415 0-.234.17-.42.43-.42.27 0 .44.186.44.42zm-.725 7.108v-5.23h.58v5.23h-.58zm6.465-3.735v3.732h-.58v-3.652c0-.863-.346-1.21-.982-1.21-.716 0-1.198.44-1.625 1.077v3.787h-.58v-5.23h.5l.054.895c.415-.597 1-1 1.753-1 .957 0 1.46.592 1.46 1.6zm3.64 3.76c-.387 1.135-.858 1.77-2.13 2.016l-.068-.456c1.053-.252 1.31-.667 1.647-1.585h-.207l-1.812-5.23h.625l1.584 4.8 1.543-4.8h.615l-1.796 5.255zm9.537-.025h-.51l-.063-.796c-.305.513-.813.902-1.575.902-1.212 0-1.955-1.04-1.955-2.7 0-1.61.77-2.747 2.052-2.747.714 0 1.163.342 1.47.71v-2.802l.58.07v7.362zm-.58-1.342v-2.723c-.315-.445-.733-.79-1.374-.79-.916 0-1.537.79-1.53 2.253.004 1.46.548 2.228 1.434 2.228.698 0 1.11-.35 1.47-.967zm6.607-1.286c0 1.687-.843 2.737-2.217 2.737-1.39 0-2.21-1.04-2.21-2.717 0-1.68.847-2.73 2.22-2.73 1.384 0 2.207 1.003 2.207 2.71zm-2.207-2.223c-.994 0-1.604.743-1.604 2.243 0 1.463.59 2.23 1.595 2.23 1 0 1.6-.755 1.6-2.25 0-1.473-.585-2.223-1.59-2.223zm6.285 4.633c-.317.207-.675.327-1.103.327-.79 0-1.277-.465-1.277-1.38v-3.49h-.88v-.468h.88v-1.25l.58-.065v1.318h1.348l-.07.468h-1.276v3.462c0 .605.236.91.768.91.29 0 .538-.085.798-.24l.232.41zm3.98-4.537l-.28.39c-.452-.334-.84-.49-1.37-.49-.69 0-1.16.34-1.16.88 0 .517.335.743 1.267.99 1.148.3 1.683.687 1.683 1.577 0 .97-.845 1.52-1.887 1.52-.852 0-1.42-.29-1.874-.675l.33-.37c.437.356.89.56 1.535.56.754 0 1.29-.366 1.29-.99 0-.643-.295-.876-1.38-1.167-1.118-.293-1.567-.705-1.567-1.44 0-.794.757-1.36 1.748-1.36.668-.004 1.174.194 1.667.578l-.002-.003zm8.492 2.127c0 1.687-.843 2.737-2.217 2.737-1.39 0-2.21-1.04-2.21-2.717 0-1.68.847-2.73 2.22-2.73 1.384 0 2.207 1.003 2.207 2.71zm-2.207-2.223c-.994 0-1.604.743-1.604 2.243 0 1.463.59 2.23 1.595 2.23 1 0 1.6-.755 1.6-2.25-.002-1.473-.586-2.223-1.59-2.223zm7.67 1.116v3.732h-.58v-3.65c0-.865-.346-1.21-.982-1.21-.716 0-1.198.438-1.625 1.075v3.787h-.58v-5.23h.5l.054.895c.416-.597 1-1 1.754-1 .958 0 1.46.592 1.46 1.6zm7.243 3.517c-.317.207-.675.327-1.104.327-.79 0-1.277-.465-1.277-1.38v-3.49h-.88v-.468h.88v-1.25l.58-.065v1.318h1.348l-.07.468h-1.273v3.462c0 .606.234.91.767.91.29 0 .538-.085.798-.24l.23.41zm4.797-3.517v3.732h-.58v-3.65c0-.855-.354-1.21-.987-1.21-.707 0-1.19.438-1.62 1.07v3.792h-.58v-7.354l.58-.073v3.07c.425-.59.988-.98 1.73-.98.943 0 1.458.61 1.457 1.603zm5.783.924c0 .164-.01.322-.02.426h-3.493c.072 1.413.734 2.002 1.63 2.002.57 0 .954-.173 1.41-.515l.27.37c-.486.396-1.017.637-1.712.637-1.372 0-2.215-1.002-2.215-2.677 0-1.672.812-2.77 2.09-2.77 1.355 0 2.04.99 2.04 2.527zm-.575-.182c0-1.136-.46-1.862-1.442-1.862-.812 0-1.436.604-1.497 2.02h2.937v-.157zm8.306-1.814l-.296.386c-.333-.28-.68-.42-1.158-.42-.95 0-1.61.748-1.61 2.254 0 1.494.655 2.19 1.605 2.19.483 0 .843-.162 1.2-.457l.292.407c-.415.353-.912.56-1.5.56-1.348 0-2.222-.99-2.222-2.688 0-1.687.863-2.76 2.21-2.76.588 0 1.033.153 1.48.528zm2.146-2.3c0 .23-.17.415-.44.415-.26 0-.43-.187-.43-.415 0-.234.17-.42.43-.42.27 0 .44.186.44.42zm-.726 7.107v-5.23h.58v5.23h-.58zm4.726-5.338c.208 0 .387.025.52.06l-.11.557c-.143-.04-.28-.06-.46-.06-.724 0-1.12.52-1.395 1.603v3.18h-.58v-5.23h.5l.045 1.174c.282-.86.76-1.283 1.48-1.283zm4.874.53l-.296.387c-.333-.28-.68-.42-1.158-.42-.95 0-1.612.748-1.612 2.254 0 1.494.657 2.19 1.607 2.19.48 0 .843-.162 1.2-.457l.293.407c-.415.353-.912.56-1.5.56-1.35 0-2.224-.99-2.224-2.688 0-1.688.864-2.762 2.21-2.762.59 0 1.033.154 1.48.53zm1.95 3.907c0 .346.114.513.43.513.122 0 .243-.025.353-.07l.158.427c-.184.088-.4.143-.62.143-.564 0-.9-.323-.9-1.006v-6.462l.58-.07v6.526h-.002zm5.92-1.91c0 .164-.013.322-.022.426h-3.493c.072 1.413.734 2.002 1.63 2.002.57 0 .952-.173 1.41-.515l.27.37c-.486.396-1.016.637-1.712.637-1.372 0-2.215-1.002-2.215-2.677 0-1.672.812-2.77 2.09-2.77 1.354 0 2.037.99 2.04 2.526zm-.576-.182c0-1.136-.46-1.862-1.442-1.862-.812 0-1.436.604-1.497 2.02h2.937v-.157zm-307.47 12.444l-1.75 2.16-.55-.38 1.35-2.1-1.35-2.1.55-.38 1.75 2.17v.63zm2.26 0l-1.75 2.16-.55-.38 1.35-2.1-1.35-2.1.55-.38 1.75 2.17v.63zm7.432 2.55l-.037-.93c-.36.623-.9 1.04-1.71 1.04-.93 0-1.475-.57-1.475-1.602v-3.74h.58v3.686c0 .83.35 1.176 1.034 1.176.685 0 1.164-.444 1.527-1.066v-3.79h.58v5.228l-.5-.002v-.002.002zm5.568-4.756l-.28.39c-.453-.334-.84-.49-1.37-.49-.692 0-1.16.34-1.16.88 0 .517.334.743 1.266.99 1.146.3 1.683.687 1.683 1.577 0 .97-.845 1.52-1.887 1.52-.85 0-1.42-.29-1.874-.675l.33-.37c.437.357.888.56 1.535.56.758 0 1.29-.366 1.29-.99 0-.643-.29-.875-1.376-1.166-1.118-.294-1.567-.706-1.567-1.44 0-.795.755-1.36 1.746-1.36.667-.003 1.174.195 1.668.58l-.002-.006zm5.4 1.944c0 .164-.01.322-.02.426h-3.494c.074 1.413.736 2.002 1.63 2.002.57 0 .954-.173 1.41-.515l.272.37c-.487.396-1.016.637-1.713.637-1.37 0-2.214-1.002-2.214-2.677 0-1.673.81-2.77 2.09-2.77 1.35 0 2.035.99 2.036 2.526h.002zm-.576-.182c0-1.136-.46-1.862-1.442-1.862-.813 0-1.436.604-1.497 2.02h2.94v-.158zm7.414 2.775c-.317.207-.675.327-1.103.327-.79 0-1.277-.465-1.277-1.38v-3.49h-.88v-.468h.88v-1.25l.58-.065v1.318h1.348l-.073.468H56.1v3.462c0 .606.236.91.767.91.29 0 .538-.085.798-.24l.236.41h-.004zm4.798-3.517v3.732h-.58v-3.652c0-.853-.356-1.21-.988-1.21-.707 0-1.193.44-1.62 1.072v3.792h-.58v-7.354l.58-.073v3.07c.423-.59.988-.98 1.73-.98.943 0 1.458.61 1.458 1.603zm5.783.924c0 .164-.01.322-.02.426h-3.493c.074 1.413.736 2.002 1.63 2.002.57 0 .954-.173 1.41-.515l.272.37c-.487.396-1.016.637-1.713.637-1.37 0-2.214-1.002-2.214-2.677 0-1.673.81-2.77 2.09-2.77 1.35 0 2.035.99 2.037 2.527zm-.575-.182c0-1.136-.46-1.862-1.442-1.862-.813 0-1.436.604-1.497 2.02h2.94v-.157zm5.565 2.092c0 .346.117.513.43.513.123 0 .244-.025.355-.07l.158.427c-.184.088-.4.143-.62.143-.566 0-.902-.323-.902-1.006v-6.462l.58-.07v6.526zm3.035-6.206c0 .23-.17.415-.44.415-.26 0-.43-.187-.43-.415 0-.234.17-.42.43-.42.27 0 .44.186.44.42zm-.725 7.107v-5.23h.58v5.23h-.58zm6.467-3.735v3.732h-.58v-3.652c0-.863-.347-1.21-.983-1.21-.713 0-1.195.44-1.622 1.077v3.787h-.58v-5.23h.5l.054.895c.417-.597 1-1 1.755-1 .955 0 1.46.593 1.46 1.602l-.003-.002zm5.782.924c0 .164-.01.322-.02.426h-3.493c.074 1.413.736 2.002 1.63 2.002.57 0 .954-.173 1.41-.515l.272.37c-.487.396-1.016.637-1.713.637-1.37 0-2.214-1.002-2.214-2.677 0-1.673.813-2.77 2.09-2.77 1.354 0 2.038.99 2.038 2.527zm-.575-.182c0-1.136-.456-1.862-1.44-1.862-.81 0-1.435.604-1.496 2.02h2.94v-.157h-.003zm5.198-1.762l-.28.39c-.453-.334-.84-.49-1.37-.49-.692 0-1.16.34-1.16.88 0 .517.334.743 1.266.99 1.148.3 1.683.687 1.683 1.577 0 .97-.845 1.52-1.887 1.52-.853 0-1.42-.29-1.876-.675l.33-.37c.437.357.888.56 1.535.56.753 0 1.29-.366 1.29-.99 0-.643-.296-.876-1.38-1.167-1.12-.293-1.568-.705-1.568-1.44 0-.794.755-1.36 1.746-1.36.665-.004 1.172.194 1.667.578l.003-.003zm6.86 4.537c-.318.207-.676.327-1.104.327-.79 0-1.277-.465-1.277-1.38v-3.49h-.88v-.468h.88v-1.25l.58-.065v1.318h1.348l-.073.468H97.71v3.462c0 .606.235.91.766.91.29 0 .538-.085.798-.24l.236.41h-.002zm4.94-2.41c0 1.687-.842 2.737-2.216 2.737-1.39 0-2.21-1.04-2.21-2.716 0-1.68.85-2.73 2.223-2.73 1.383 0 2.206 1.002 2.205 2.71h-.002zm-2.207-2.223c-.993 0-1.603.744-1.603 2.244 0 1.462.59 2.228 1.595 2.228 1 0 1.603-.754 1.603-2.25 0-1.472-.585-2.222-1.594-2.222zm7.334-1.218v.84h1.378l-.07.468h-1.306v4.76h-.58v-4.76h-.907v-.468h.906v-.856c0-.825.547-1.345 1.452-1.345.45 0 .834.1 1.215.28l-.195.435c-.34-.156-.66-.228-.985-.228-.597 0-.907.26-.907.874h-.002zm6.485 3.44c0 1.688-.844 2.738-2.218 2.738-1.39 0-2.21-1.04-2.21-2.716 0-1.68.85-2.73 2.223-2.73 1.382 0 2.206 1.002 2.205 2.71v-.002zm-2.21-2.222c-.993 0-1.603.744-1.603 2.244 0 1.462.59 2.228 1.595 2.228 1 0 1.604-.754 1.604-2.25 0-1.472-.586-2.222-1.595-2.222zm4.438 3.95c0 .346.117.513.43.513.123 0 .244-.025.355-.07l.158.427c-.183.088-.4.143-.62.143-.565 0-.9-.323-.9-1.006v-6.462l.58-.07-.002 6.526zm5.943.9h-.51l-.06-.795c-.304.514-.814.902-1.574.902-1.213 0-1.956-1.04-1.956-2.7 0-1.61.767-2.747 2.05-2.747.715 0 1.164.342 1.47.71v-2.802l.58.07v7.36zm-.58-1.34v-2.724c-.314-.445-.732-.79-1.373-.79-.916 0-1.537.79-1.53 2.253.004 1.46.548 2.228 1.434 2.228.7 0 1.11-.35 1.47-.966zm7.867 1.123c-.317.207-.675.327-1.103.327-.79 0-1.277-.465-1.277-1.38v-3.49h-.88v-.468h.88v-1.25l.58-.065v1.318h1.348l-.073.468h-1.273v3.462c0 .606.235.91.767.91.29 0 .538-.085.798-.24l.236.41h-.003zm4.797-3.517v3.732h-.58v-3.652c0-.853-.356-1.21-.988-1.21-.707 0-1.193.44-1.62 1.072v3.792h-.58v-7.354l.58-.073v3.07c.423-.59.988-.98 1.73-.98.943 0 1.458.61 1.458 1.603zm5.783.924c0 .164-.01.322-.02.426h-3.493c.074 1.413.736 2.002 1.63 2.002.57 0 .954-.173 1.41-.515l.272.37c-.487.396-1.016.637-1.713.637-1.37 0-2.214-1.002-2.214-2.677 0-1.673.812-2.77 2.09-2.77 1.353 0 2.037.99 2.037 2.527zm-.575-.182c0-1.135-.457-1.86-1.44-1.86-.813 0-1.436.603-1.497 2.02h2.94v-.158l-.003-.002zm7.415 2.775c-.317.207-.675.327-1.103.327-.79 0-1.277-.465-1.277-1.38v-3.49h-.88v-.468h.88v-1.25l.58-.065v1.318h1.348l-.073.468h-1.275v3.462c0 .606.236.91.767.91.29 0 .538-.085.798-.24l.235.41zm1.755-6.89c0 .23-.17.416-.44.416-.26 0-.43-.187-.43-.415 0-.234.17-.42.43-.42.27 0 .44.186.44.42zm-.724 7.108v-5.23h.58v5.23h-.58zm6.754-2.64c0 1.655-.687 2.75-1.986 2.75-.654 0-1.163-.298-1.49-.72v2.58l-.58.08v-7.28h.5l.046.764c.383-.535.937-.875 1.61-.875 1.29 0 1.9 1.008 1.9 2.7zm-.616 0c0-1.483-.477-2.215-1.387-2.215-.67 0-1.11.396-1.473.9v2.776c.323.482.787.793 1.384.793.954.003 1.474-.76 1.476-2.255zm9.173.012c0 1.687-.844 2.737-2.218 2.737-1.39 0-2.21-1.04-2.21-2.716 0-1.68.847-2.73 2.22-2.73 1.384 0 2.207 1.002 2.207 2.71zm-2.21-2.223c-.995 0-1.605.744-1.605 2.244 0 1.462.59 2.228 1.595 2.228 1 0 1.6-.754 1.6-2.25 0-1.472-.585-2.222-1.59-2.222zm4.544-1.218v.84h1.378l-.07.468h-1.306v4.76h-.58v-4.76h-.907v-.468h.906v-.856c0-.825.547-1.345 1.452-1.345.45 0 .834.1 1.215.28l-.195.435c-.34-.156-.66-.23-.985-.23-.598 0-.907.262-.907.876h-.002zm9.073 3.258c0 .164-.01.322-.02.426h-3.493c.074 1.413.736 2.002 1.63 2.002.57 0 .954-.173 1.41-.515l.272.37c-.487.396-1.016.637-1.713.637-1.37 0-2.214-1.002-2.214-2.678 0-1.672.812-2.77 2.09-2.77 1.352 0 2.036.99 2.037 2.528zm-.576-.182c0-1.135-.46-1.86-1.44-1.86-.814 0-1.437.603-1.498 2.02h2.94v-.16zm5.5 1.834c0 .58.153.752.44.862l-.134.403c-.46-.094-.73-.323-.814-.87-.37.587-.92.872-1.62.872-1.015 0-1.622-.627-1.622-1.56 0-1.097.833-1.694 2.17-1.694h1v-.5c0-.824-.34-1.197-1.208-1.197-.43 0-.902.11-1.42.3l-.153-.444c.577-.223 1.097-.35 1.65-.35 1.185 0 1.71.59 1.71 1.657v2.523zm-.58-.14v-1.42h-.915c-1.046 0-1.64.41-1.64 1.243 0 .716.408 1.12 1.1 1.12.672 0 1.13-.342 1.454-.944zm5.957-3.508l-.296.386c-.332-.28-.68-.42-1.157-.42-.95 0-1.612.748-1.612 2.254 0 1.494.658 2.19 1.608 2.19.482 0 .843-.162 1.2-.457l.293.407c-.414.353-.91.56-1.5.56-1.347 0-2.22-.99-2.22-2.688 0-1.687.863-2.76 2.21-2.76.586 0 1.032.153 1.477.528zm5.186 1.072v3.732h-.58v-3.652c0-.853-.355-1.21-.988-1.21-.707 0-1.193.44-1.62 1.072v3.792h-.58v-7.354l.58-.073v3.07c.423-.59.988-.98 1.73-.98.944 0 1.458.61 1.458 1.603zm9.37 3.7c-.184.09-.4.145-.62.145-.566 0-.902-.323-.902-1.006v-5.825c-.47-.152-.84-.223-1.33-.223-.702 0-1.016.26-1.016.875v.84h1.378l-.07.47h-1.306v4.76h-.58v-4.76h-.86v-.47h.86v-.856c0-.824.537-1.344 1.553-1.344.532 0 .905.084 1.373.23l.58-.07v6.37c0 .347.118.514.43.514.124 0 .244-.026.354-.07l.158.42h-.002zm4.625-1.124c0 .58.154.752.44.862l-.133.403c-.46-.094-.73-.323-.814-.87-.37.587-.922.872-1.62.872-1.016 0-1.623-.627-1.623-1.56 0-1.097.833-1.694 2.17-1.694h1v-.5c0-.824-.34-1.197-1.208-1.197-.43 0-.9.11-1.42.3l-.153-.444c.578-.223 1.098-.35 1.65-.35 1.186 0 1.71.59 1.71 1.657v2.523zm-.58-.14v-1.42h-.913c-1.046 0-1.64.41-1.64 1.243 0 .716.408 1.12 1.1 1.12.67 0 1.13-.342 1.453-.944zm6.743-1.34c0 1.654-.686 2.748-1.985 2.748-.654 0-1.163-.297-1.49-.72v2.58l-.58.08v-7.278h.5l.046.763c.384-.535.938-.875 1.61-.875 1.29 0 1.9 1.008 1.9 2.7zm-.615 0c0-1.484-.477-2.217-1.387-2.217-.67 0-1.11.396-1.472.9v2.776c.323.48.787.793 1.384.793.953.003 1.473-.76 1.475-2.254zm-181.317 12.09l-1.75 2.16-.55-.38 1.35-2.1-1.35-2.1.55-.38 1.75 2.17v.63zm2.26 0l-1.75 2.16-.55-.38 1.35-2.1-1.35-2.1.55-.38 1.75 2.17v.63zm6.64 2.33c-.317.208-.675.328-1.103.328-.79 0-1.277-.465-1.277-1.38v-3.49h-.88v-.468h.88v-1.25l.58-.065v1.318h1.348l-.073.468h-1.275v3.462c0 .605.236.91.767.91.29 0 .538-.085.798-.24l.235.41v-.002zm4.797-3.516v3.732h-.58v-3.652c0-.853-.356-1.21-.988-1.21-.707 0-1.193.44-1.62 1.072v3.792h-.58v-7.354l.58-.073v3.07c.423-.59.988-.98 1.73-.98.944 0 1.458.61 1.458 1.603zm5.783.924c0 .164-.01.322-.02.426h-3.493c.074 1.413.736 2.002 1.63 2.002.57 0 .954-.173 1.41-.515l.27.37c-.486.396-1.015.637-1.712.637-1.37 0-2.214-1.002-2.214-2.678 0-1.672.81-2.77 2.09-2.77 1.353 0 2.036.99 2.038 2.528zm-.575-.182c0-1.135-.46-1.86-1.44-1.86-.814 0-1.438.603-1.498 2.02h2.94v-.16h-.002zm5.76-4.115c0 .23-.17.416-.44.416-.26 0-.43-.187-.43-.416 0-.233.17-.42.43-.42.27 0 .44.187.44.42zm-.725 7.108v-5.23h.58v5.23h-.58zm6.467-3.735v3.732h-.58v-3.652c0-.863-.347-1.21-.983-1.21-.714 0-1.196.44-1.623 1.077v3.787h-.58v-5.23h.5l.053.895c.417-.597 1-1 1.755-1 .955 0 1.46.594 1.46 1.603v-.002h-.003zm5.84 0v3.732h-.58v-3.652c0-.863-.347-1.21-.983-1.21-.714 0-1.196.44-1.623 1.077v3.787h-.58v-5.23h.5l.053.895c.417-.597 1-1 1.755-1 .955 0 1.46.593 1.46 1.6h-.003zm5.783.924c0 .164-.01.322-.02.426h-3.493c.074 1.413.736 2.002 1.63 2.002.57 0 .954-.173 1.41-.515l.272.37c-.487.396-1.016.637-1.713.637-1.37 0-2.214-1.002-2.214-2.678 0-1.672.81-2.77 2.09-2.77 1.352 0 2.035.99 2.038 2.528zm-.575-.182c0-1.135-.46-1.86-1.442-1.86-.812 0-1.435.603-1.496 2.02h2.94v-.16zm4.27-2.345c.21 0 .388.025.52.06l-.11.557c-.142-.04-.28-.06-.46-.06-.723 0-1.12.52-1.396 1.603v3.18h-.58v-5.23h.5l.045 1.174c.284-.86.76-1.283 1.48-1.283zm4.876.53l-.297.387c-.333-.28-.68-.42-1.158-.42-.95 0-1.612.748-1.612 2.254 0 1.494.657 2.19 1.607 2.19.48 0 .84-.162 1.2-.457l.29.407c-.414.353-.91.56-1.5.56-1.347 0-2.22-.99-2.22-2.688 0-1.687.863-2.76 2.21-2.76.586 0 1.03.153 1.478.53v-.003zm2.144-2.3c0 .23-.17.416-.44.416-.26 0-.43-.187-.43-.415 0-.234.17-.42.43-.42.27 0 .44.186.44.42zm-.726 7.108v-5.23h.58v5.23h-.58zm4.726-5.338c.208 0 .387.025.52.06l-.11.557c-.143-.04-.28-.06-.46-.06-.724 0-1.122.52-1.395 1.603v3.18h-.58v-5.23h.5l.044 1.174c.282-.86.758-1.283 1.48-1.283zm4.875.53l-.297.387c-.333-.28-.68-.42-1.158-.42-.95 0-1.612.748-1.612 2.254 0 1.494.657 2.19 1.607 2.19.48 0 .84-.162 1.2-.457l.29.407c-.414.353-.91.56-1.5.56-1.347 0-2.22-.99-2.22-2.688 0-1.687.863-2.76 2.21-2.76.585 0 1.03.153 1.478.53v-.003zm1.95 3.907c0 .346.115.513.43.513.12 0 .242-.025.353-.07l.158.427c-.183.088-.4.143-.62.143-.565 0-.9-.323-.9-1.006v-6.462l.58-.07v6.526zm5.92-1.91c0 .164-.01.322-.02.426h-3.495c.074 1.413.736 2.002 1.63 2.002.57 0 .954-.173 1.41-.515l.272.37c-.487.396-1.016.637-1.713.637-1.37 0-2.214-1.002-2.214-2.677 0-1.673.81-2.77 2.09-2.77 1.352 0 2.035.99 2.037 2.526h.002zm-.577-.182c0-1.135-.46-1.86-1.442-1.86-.812 0-1.435.603-1.496 2.02h2.94v-.16zm5.76-4.114c0 .23-.17.415-.44.415-.26 0-.43-.187-.43-.415 0-.234.17-.42.43-.42.27 0 .44.186.44.42zm-.725 7.107v-5.23h.58v5.23h-.58zm5.65-4.755l-.28.39c-.453-.334-.84-.49-1.37-.49-.692 0-1.16.34-1.16.88 0 .517.334.743 1.266.99 1.148.3 1.683.687 1.683 1.577 0 .97-.845 1.52-1.887 1.52-.853 0-1.42-.29-1.876-.675l.33-.37c.437.356.888.56 1.535.56.753 0 1.29-.366 1.29-.99 0-.643-.296-.876-1.38-1.167-1.12-.293-1.568-.705-1.568-1.44 0-.794.755-1.36 1.746-1.36.665-.004 1.17.194 1.667.578l.003-.003zm8.49 2.127c0 1.687-.843 2.737-2.217 2.737-1.39 0-2.21-1.04-2.21-2.716 0-1.68.848-2.73 2.22-2.73 1.385 0 2.208 1.002 2.208 2.71zm-2.207-2.223c-.993 0-1.603.744-1.603 2.244 0 1.462.59 2.228 1.595 2.228 1 0 1.603-.754 1.603-2.25 0-1.472-.585-2.222-1.594-2.222zm7.674 1.116v3.732h-.58v-3.652c0-.863-.347-1.21-.983-1.21-.715 0-1.197.44-1.624 1.077v3.787h-.58v-5.23h.5l.054.895c.414-.597 1-1 1.752-1 .955 0 1.46.593 1.46 1.6h.002zm2.603 2.834c0 .346.117.513.43.513.123 0 .244-.025.354-.07l.16.427c-.183.088-.4.143-.62.143-.565 0-.9-.323-.9-1.006v-6.462l.58-.07v6.527h-.003zm3.976.926c-.387 1.135-.858 1.77-2.13 2.016l-.068-.456c1.053-.252 1.31-.667 1.647-1.585h-.204l-1.812-5.23h.623l1.583 4.8 1.545-4.8h.615l-1.798 5.256h-.002zm9.056-1.184c0 .58.153.753.44.862l-.134.403c-.46-.094-.73-.323-.814-.87-.37.587-.92.872-1.62.872-1.015 0-1.622-.627-1.622-1.56 0-1.097.833-1.694 2.17-1.694h1v-.5c0-.824-.34-1.197-1.208-1.197-.43 0-.902.11-1.42.3l-.153-.443c.577-.224 1.097-.35 1.65-.35 1.185 0 1.71.59 1.71 1.656v2.523zm-.58-.14v-1.42h-.914c-1.046 0-1.64.41-1.64 1.243 0 .716.408 1.12 1.1 1.12.67 0 1.13-.34 1.453-.944zm7.503-4.04c.208 0 .387.026.52.062l-.11.556c-.142-.04-.28-.06-.46-.06-.723 0-1.12.52-1.394 1.603v3.18h-.58v-5.23h.5l.044 1.174c.28-.86.757-1.283 1.48-1.284zm5.314 2.528c0 .164-.01.322-.02.426h-3.493c.074 1.413.736 2.002 1.63 2.002.57 0 .954-.173 1.41-.515l.272.37c-.487.396-1.016.637-1.713.637-1.37 0-2.214-1.002-2.214-2.677 0-1.673.81-2.77 2.09-2.77 1.353 0 2.036.99 2.037 2.527zm-.576-.182c0-1.135-.46-1.86-1.44-1.86-.814 0-1.437.603-1.498 2.02h2.94v-.16zm2.884-3.076v.84h1.378l-.07.468h-1.306v4.76h-.58v-4.76h-.907v-.468h.906v-.856c0-.825.547-1.345 1.452-1.345.45 0 .834.1 1.215.28l-.195.435c-.34-.156-.66-.228-.985-.228-.598 0-.907.26-.907.874h-.002zm6.182 3.258c0 .164-.01.322-.02.426h-3.493c.074 1.413.736 2.002 1.63 2.002.57 0 .954-.173 1.41-.515l.272.37c-.487.396-1.016.637-1.713.637-1.37 0-2.212-1.002-2.212-2.677 0-1.673.813-2.77 2.09-2.77 1.354 0 2.038.99 2.036 2.527zm-.575-.182c0-1.135-.46-1.86-1.44-1.86-.814 0-1.437.603-1.498 2.02h2.94v-.16zm4.273-2.345c.208 0 .387.025.52.06l-.11.557c-.142-.04-.28-.06-.46-.06-.723 0-1.12.52-1.394 1.603v3.18h-.58v-5.23h.5l.044 1.174c.28-.86.757-1.283 1.48-1.283zm5.313 2.527c0 .164-.01.322-.02.426h-3.494c.075 1.413.737 2.002 1.63 2.002.57 0 .955-.173 1.41-.515l.273.37c-.487.396-1.016.637-1.713.637-1.37 0-2.213-1.002-2.213-2.677 0-1.673.81-2.77 2.09-2.77 1.354 0 2.04.99 2.036 2.527zm-.575-.182c0-1.135-.46-1.86-1.44-1.86-.814 0-1.437.603-1.498 2.02h2.94v-.16zm6.014-.742v3.732h-.58v-3.652c0-.863-.347-1.21-.983-1.21-.715 0-1.197.44-1.624 1.077v3.787h-.58v-5.23h.5l.054.895c.414-.597 1-1 1.752-1 .955 0 1.46.593 1.46 1.6h.002zm5.343-1.072l-.296.386c-.332-.28-.68-.42-1.157-.42-.95 0-1.612.748-1.612 2.254 0 1.494.658 2.19 1.608 2.19.483 0 .843-.162 1.2-.457l.293.407c-.414.353-.91.56-1.5.56-1.347 0-2.22-.99-2.22-2.688 0-1.687.863-2.76 2.21-2.76.586 0 1.032.153 1.477.528zm5.03 1.996c0 .164-.01.322-.02.426h-3.494c.074 1.413.736 2.002 1.63 2.002.57 0 .954-.173 1.41-.515l.272.37c-.487.396-1.016.637-1.713.637-1.37 0-2.212-1.002-2.212-2.678 0-1.672.813-2.77 2.09-2.77 1.354 0 2.038.99 2.037 2.528zm-.576-.182c0-1.135-.46-1.86-1.44-1.86-.814 0-1.437.603-1.498 2.02h2.94v-.16zm5.673-3.076v.84h1.378l-.07.468h-1.307v4.76h-.58v-4.76h-.907v-.468h.907v-.856c0-.825.547-1.345 1.452-1.345.45 0 .834.1 1.215.28l-.198.435c-.34-.156-.66-.23-.985-.23-.596 0-.906.262-.904.876zm6.484 3.44c0 1.688-.843 2.738-2.217 2.738-1.39 0-2.213-1.04-2.213-2.717 0-1.68.848-2.73 2.222-2.73 1.38 0 2.204 1.003 2.205 2.71h.002zm-2.207-2.222c-.996 0-1.604.744-1.604 2.244 0 1.462.59 2.228 1.595 2.228 1 0 1.6-.754 1.6-2.25 0-1.472-.585-2.222-1.59-2.222zm5.932-.487c.208 0 .387.025.52.06l-.11.557c-.143-.04-.28-.06-.46-.06-.724 0-1.122.52-1.395 1.603v3.18h-.58v-5.23h.5l.045 1.174c.282-.86.758-1.283 1.48-1.283zm8.625-.988l-.328.395c-.455-.355-.84-.516-1.398-.516-1.193 0-2.178.835-2.178 3.02 0 2.076.95 3.01 2.15 3.01.705 0 1.108-.263 1.51-.58l.32.4c-.408.385-1 .705-1.848.705-1.587 0-2.764-1.233-2.764-3.535 0-2.346 1.25-3.53 2.77-3.53.806-.002 1.274.232 1.765.63zm2.776-.523c1.594 0 3.19.55 3.19 3.37 0 2.84-1.672 3.478-3.08 3.478h-1.468v-6.848h1.358zm-.76 6.35h.907c1.184 0 2.41-.522 2.41-2.98 0-2.51-1.276-2.865-2.48-2.865h-.836v5.845zm12.517-2.14c0 1.653-.687 2.747-1.986 2.747-.654 0-1.163-.297-1.49-.72v2.58l-.58.08v-7.278h.5l.046.763c.383-.535.937-.875 1.61-.875 1.29 0 1.9 1.008 1.9 2.7v.002zm-.616 0c0-1.485-.477-2.217-1.387-2.217-.67 0-1.11.396-1.472.9v2.776c.323.482.787.793 1.384.793.952.003 1.472-.76 1.474-2.253zm2.9 1.737c0 .346.118.513.43.513.124 0 .245-.025.356-.07l.158.427c-.184.088-.4.143-.62.143-.566 0-.902-.323-.902-1.006v-6.462l.58-.07v6.527h-.002zm5.563-.258c0 .58.154.752.44.862l-.135.403c-.46-.094-.73-.323-.814-.87-.373.587-.924.872-1.62.872-1.02 0-1.625-.627-1.625-1.56 0-1.097.833-1.694 2.17-1.694h1v-.5c0-.824-.34-1.197-1.208-1.197-.428 0-.9.11-1.42.3l-.152-.444c.578-.223 1.098-.35 1.65-.35 1.186 0 1.71.59 1.71 1.657v2.52l.004.003zm-.58-.14v-1.42h-.913c-1.046 0-1.64.41-1.64 1.243 0 .716.408 1.12 1.1 1.12.67 0 1.13-.342 1.453-.944zm5.96-3.508l-.297.386c-.333-.28-.68-.42-1.158-.42-.95 0-1.612.748-1.612 2.254 0 1.494.657 2.19 1.607 2.19.483 0 .843-.162 1.2-.457l.292.407c-.418.353-.915.56-1.5.56-1.35 0-2.225-.99-2.225-2.688 0-1.687.864-2.76 2.21-2.76.588 0 1.033.153 1.48.53l.002-.002zm5.027 1.996c0 .164-.01.32-.02.426h-3.493c.077 1.413.74 2.002 1.634 2.002.57 0 .953-.173 1.408-.516l.274.37c-.487.397-1.017.638-1.713.638-1.37 0-2.213-1.002-2.213-2.678 0-1.672.813-2.77 2.09-2.77 1.354 0 2.038.99 2.037 2.527h-.003zm-.575-.182c0-1.135-.46-1.862-1.445-1.862-.813 0-1.436.604-1.497 2.02h2.94v-.158zm8.697-.742v3.732h-.58v-3.652c0-.853-.35-1.21-.888-1.21-.63 0-1.07.44-1.47 1.077v3.787h-.58v-3.652c0-.854-.346-1.21-.888-1.21-.63 0-1.076.44-1.47 1.077v3.784h-.58v-5.23h.5l.054.886c.388-.59.93-.992 1.605-.992.67 0 1.135.386 1.295 1.04.4-.617.95-1.04 1.642-1.04.845 0 1.36.61 1.36 1.604v-.002zm5.787.924c0 .164-.01.32-.02.426h-3.493c.075 1.413.737 2.002 1.63 2.002.57 0 .955-.173 1.41-.516l.273.37c-.487.397-1.016.638-1.713.638-1.37 0-2.212-1.002-2.212-2.678 0-1.672.813-2.77 2.09-2.77 1.354 0 2.037.99 2.036 2.528zm-.576-.182c0-1.135-.46-1.862-1.444-1.862-.813 0-1.436.604-1.497 2.02h2.94v-.158zm6.012-.742v3.732h-.58v-3.652c0-.863-.347-1.21-.983-1.21-.718 0-1.2.44-1.627 1.077v3.787h-.58v-5.23h.5l.054.895c.416-.597 1-1 1.754-1 .956 0 1.46.592 1.462 1.6zm4.452 3.517c-.317.207-.675.327-1.104.327-.79 0-1.276-.465-1.276-1.38v-3.49h-.88v-.468h.88v-1.25l.58-.065v1.318h1.348l-.073.468h-1.277v3.462c0 .605.236.91.767.91.29 0 .54-.085.8-.24l.235.41z"/>
  <g fill="#9C9E9F">
    <circle cx="243.886" cy="413.966" r=".709"/>
    <circle cx="328.927" cy="266.641" r=".709"/>
    <circle cx="499.005" cy="266.64" r=".709"/>
    <circle cx="584.045" cy="413.966" r=".709"/>
    <circle cx="499.005" cy="561.291" r=".709"/>
    <circle cx="328.926" cy="561.291" r=".708"/>
  </g>
  <path d="M707.264 786.23v6.073h-.95v-6.075h-1.958v-.81h4.918l-.1.81h-1.91v.002zm6.218 3.756h-3.357c.085 1.222.654 1.688 1.418 1.688.52 0 .91-.14 1.37-.46l.4.55c-.52.41-1.11.66-1.84.66-1.47 0-2.33-1.03-2.33-2.698 0-1.64.83-2.81 2.19-2.81 1.42 0 2.166.99 2.166 2.6.003.18-.007.35-.018.47zm-.89-.74c0-1.03-.408-1.6-1.238-1.6-.7 0-1.154.49-1.23 1.66h2.47v-.06h-.002zm7.72-2.328c.86 0 1.43.62 1.43 1.61v3.774h-.92v-3.646c0-.79-.34-1.02-.74-1.02-.57 0-.88.37-1.24.93v3.735h-.918v-3.645c0-.79-.34-1.02-.74-1.02-.57 0-.89.37-1.24.93v3.735h-.916v-5.267h.79l.077.772c.353-.535.834-.896 1.52-.896.647 0 1.13.35 1.33.947.374-.556.86-.94 1.567-.94zm7.65 2.748c0 1.6-.71 2.76-2.07 2.76-.57 0-1.042-.19-1.378-.598v2.495l-.92.11v-7.397h.79l.073.715c.39-.54.952-.832 1.557-.832 1.398 0 1.948 1.09 1.948 2.75v-.002zm-.99 0c0-1.37-.4-2.02-1.188-2.02-.562 0-.992.402-1.27.82v2.566c.27.406.675.64 1.16.64.84 0 1.3-.63 1.3-2.008l-.002.002zm3.432 1.58c0 .28.09.42.33.42.13 0 .24-.02.34-.06l.24.64c-.25.12-.51.18-.78.18-.67 0-1.05-.4-1.05-1.16v-6.347l.92-.11v6.435zm5.61-.17c0 .46.17.61.44.71l-.21.64c-.53-.062-.874-.27-1.033-.788-.362.55-.92.787-1.56.787-1.052 0-1.682-.65-1.682-1.59 0-1.13.85-1.738 2.317-1.738h.81v-.39c0-.76-.37-1.04-1.1-1.04-.39 0-.88.1-1.42.28l-.23-.67c.65-.24 1.23-.36 1.82-.36 1.27 0 1.85.65 1.85 1.75v2.41zm-.92-.16v-1.21h-.69c-.97 0-1.457.358-1.457 1.08 0 .62.31.95.91.95.54 0 .937-.272 1.24-.82h-.003zm5.468 1.148c-.35.24-.73.36-1.18.36-.89 0-1.42-.52-1.42-1.5v-3.18h-.92v-.71h.92v-1.19l.92-.108v1.3h1.25l-.1.71h-1.15v3.14c0 .53.17.78.63.78.23 0 .44-.07.7-.23l.35.628zm4.81-2.078h-3.356c.084 1.222.653 1.688 1.418 1.688.52 0 .91-.14 1.37-.46l.398.55c-.52.41-1.11.66-1.84.66-1.468 0-2.327-1.03-2.327-2.698 0-1.64.83-2.81 2.188-2.81 1.42 0 2.17.99 2.17 2.6 0 .18-.01.35-.02.47zm-.89-.74c0-1.03-.41-1.6-1.24-1.6-.7 0-1.154.49-1.23 1.66h2.47v-.06zm9.45.42c0 1.65-.79 2.76-2.066 2.76-.576 0-1.043-.26-1.398-.695l-.092.576h-.81v-7.386l.92-.11v2.893c.36-.492.85-.783 1.49-.783 1.187-.003 1.956.986 1.956 2.745zm-.99 0c0-1.5-.49-2.02-1.23-2.02-.578 0-.96.4-1.228.82v2.52c.27.42.684.71 1.158.71.77 0 1.3-.59 1.3-2.03zm4.57 2.67c-.37 1.12-.987 1.938-2.447 2.1l-.1-.72c1.068-.18 1.37-.59 1.668-1.41h-.31l-1.77-5.27h.98l1.41 4.6 1.376-4.6h.948l-1.756 5.3zm6.56-7.196c0 .35-.26.618-.65.618-.38 0-.64-.27-.64-.62 0-.356.26-.63.64-.63.39 0 .65.27.65.63v.002zm-1.097 7.165v-5.268h.92v5.268h-.92zm6.897 0h-.81l-.09-.726c-.34.523-.87.843-1.52.843-1.28 0-1.99-1.09-1.99-2.73 0-1.606.78-2.775 2.07-2.775.62 0 1.068.28 1.42.647v-2.76l.92.11v7.39zm-.92-1.393v-2.576c-.327-.42-.698-.688-1.22-.688-.79 0-1.28.66-1.28 2.026 0 1.39.44 2.02 1.2 2.02.586 0 .948-.284 1.3-.782zm3.693.333c0 .28.09.42.33.42.13 0 .24-.02.34-.06l.24.64c-.25.12-.51.18-.78.18-.67 0-1.05-.4-1.05-1.16v-6.346l.92-.11v6.435zm5.917-1.26h-3.357c.084 1.223.654 1.69 1.418 1.69.52 0 .91-.14 1.37-.46l.4.55c-.52.41-1.11.66-1.84.66-1.47 0-2.33-1.03-2.33-2.7 0-1.64.83-2.81 2.19-2.81 1.416 0 2.166.99 2.166 2.6.003.18-.007.35-.018.47zm-.89-.74c0-1.03-.41-1.6-1.238-1.6-.703 0-1.154.492-1.23 1.66h2.47v-.06h-.002zm6.798.42c0 1.65-.788 2.76-2.065 2.76-.576 0-1.044-.26-1.398-.694l-.09.576h-.81v-7.386l.92-.11v2.893c.36-.492.85-.783 1.485-.783 1.19-.003 1.96.986 1.96 2.745h-.002zm-.988 0c0-1.5-.49-2.02-1.23-2.02-.578 0-.96.4-1.23.82v2.52c.275.42.688.71 1.16.71.77 0 1.3-.59 1.3-2.03zm6.52.32h-3.357c.084 1.223.654 1.69 1.418 1.69.52 0 .91-.14 1.37-.46l.4.55c-.52.41-1.11.66-1.84.66-1.47 0-2.33-1.03-2.33-2.7 0-1.64.83-2.81 2.19-2.81 1.418 0 2.168.99 2.168 2.6 0 .18-.006.35-.018.47zm-.89-.74c0-1.03-.41-1.6-1.24-1.6-.702 0-1.155.492-1.228 1.66h2.467l.002-.06zm5.24-2.266l-.17.897c-.16-.04-.27-.06-.46-.06-.655 0-1.038.47-1.26 1.48v3.004h-.918v-5.267h.79l.09 1.073c.28-.797.772-1.193 1.408-1.193.17 0 .36.02.52.06v.006zm5.298.296c-.44.14-.938.16-1.538.16.62.28.93.72.93 1.33 0 1.036-.75 1.786-2.01 1.786-.235 0-.452-.03-.667-.1-.156.104-.263.295-.263.49 0 .24.15.43.69.43h.84c1.077 0 1.797.62 1.797 1.458 0 1.02-.84 1.6-2.47 1.6-1.72 0-2.26-.53-2.26-1.6h.83c0 .6.27.88 1.43.88 1.14 0 1.54-.29 1.54-.82 0-.5-.4-.75-1.06-.75h-.83c-.94 0-1.36-.47-1.36-.998 0-.345.197-.682.58-.928-.61-.316-.89-.78-.89-1.46 0-1.08.87-1.84 2.03-1.84 1.31.03 1.787-.19 2.406-.47l.274.832zm-3.767 1.48c0 .7.39 1.19 1.11 1.19s1.106-.44 1.106-1.2c0-.77-.38-1.17-1.13-1.17-.705 0-1.088.49-1.087 1.18zm-205.62 9.223l-.52.606c-.43-.35-.85-.51-1.33-.51-1.038 0-1.908.7-1.908 2.777 0 1.99.83 2.77 1.9 2.77.646 0 1.065-.29 1.458-.58l.48.61c-.37.39-1.04.77-1.97.77-1.67 0-2.88-1.25-2.88-3.57 0-2.324 1.3-3.556 2.855-3.556.872 0 1.36.238 1.91.68l.005.002zm4.04 1l-.17.897c-.158-.04-.27-.06-.46-.06-.655 0-1.04.47-1.26 1.48v3.004h-.917v-5.267h.79l.09 1.073c.28-.797.772-1.193 1.408-1.193.17 0 .36.02.52.06v.006zm4.91 3.005h-3.357c.086 1.222.654 1.688 1.42 1.688.52 0 .908-.14 1.37-.46l.398.55c-.52.41-1.11.66-1.84.66-1.47 0-2.33-1.03-2.33-2.698 0-1.64.83-2.81 2.19-2.81 1.42 0 2.168.99 2.168 2.6 0 .18-.01.35-.02.47zm-.89-.74c0-1.03-.41-1.6-1.24-1.6-.702 0-1.155.49-1.23 1.66h2.47v-.06zm5.98 1.83c0 .46.17.61.44.71l-.21.64c-.528-.062-.873-.27-1.03-.788-.366.55-.925.787-1.568.787-1.05 0-1.68-.65-1.68-1.59 0-1.13.85-1.738 2.32-1.738h.81v-.39c0-.76-.37-1.04-1.1-1.04-.39 0-.88.1-1.42.28l-.23-.67c.65-.24 1.23-.36 1.82-.36 1.27 0 1.848.65 1.848 1.75v2.41zm-.92-.16v-1.21h-.69c-.968 0-1.456.357-1.456 1.08 0 .62.31.95.91.95.54 0 .94-.272 1.24-.82h-.004zm5.47 1.147c-.35.24-.728.36-1.18.36-.89 0-1.42-.52-1.42-1.5v-3.18h-.917v-.71h.92v-1.188l.918-.11v1.3h1.25l-.1.71h-1.15v3.14c0 .53.17.78.63.78.23 0 .44-.07.7-.23l.35.628zm2.05-6.923c0 .35-.26.617-.65.617-.38 0-.64-.27-.64-.62 0-.356.26-.63.64-.63.392 0 .65.27.65.63v.002zm-1.1 7.164v-5.268h.92v5.268h-.92zm3.79 0l-1.815-5.268h1l1.38 4.448 1.366-4.448h.97l-1.79 5.268h-1.11zm7.81-2.32h-3.358c.085 1.223.654 1.69 1.418 1.69.52 0 .91-.14 1.37-.46l.4.55c-.52.41-1.11.66-1.84.66-1.47 0-2.33-1.03-2.33-2.7 0-1.64.83-2.81 2.19-2.81 1.42 0 2.166.99 2.166 2.6.003.18-.007.35-.018.47zm-.89-.74c0-1.03-.41-1.6-1.24-1.6-.7 0-1.153.492-1.228 1.66h2.47v-.06h-.002zm9.45-3.265l-.52.606c-.432-.35-.852-.51-1.33-.51-1.037 0-1.907.7-1.907 2.777 0 1.99.83 2.77 1.9 2.77.646 0 1.065-.29 1.457-.58l.48.61c-.37.39-1.04.77-1.97.77-1.67 0-2.88-1.25-2.88-3.57 0-2.324 1.3-3.556 2.856-3.556.87 0 1.36.238 1.91.68l.003.002zm5.45 3.685c0 1.63-.86 2.76-2.35 2.76-1.5 0-2.35-1.08-2.35-2.75 0-1.63.86-2.758 2.356-2.758 1.498 0 2.343 1.08 2.343 2.748zm-3.71.01c0 1.37.48 2.01 1.36 2.01.88 0 1.357-.64 1.357-2.02 0-1.37-.48-2.01-1.35-2.01-.88 0-1.366.64-1.366 2.02zm10.52-2.758c.86 0 1.43.62 1.43 1.61v3.774h-.92v-3.645c0-.79-.34-1.02-.74-1.02-.57 0-.88.37-1.24.93v3.735h-.917v-3.646c0-.79-.34-1.02-.74-1.02-.57 0-.89.37-1.24.93v3.735h-.918v-5.268h.79l.078.772c.354-.534.834-.896 1.52-.896.647 0 1.13.352 1.33.948.373-.556.856-.94 1.567-.94zm9.997 1.61v3.774h-.92v-3.645c0-.79-.34-1.02-.737-1.02-.57 0-.88.37-1.24.93v3.735h-.92v-3.646c0-.79-.34-1.02-.736-1.02-.57 0-.89.37-1.24.93v3.735h-.92v-5.268h.79l.078.77c.354-.532.835-.893 1.52-.893.647 0 1.13.35 1.33.947.38-.564.86-.948 1.57-.948.858 0 1.428.62 1.428 1.61h-.002v.007zm6.173 1.138c0 1.63-.86 2.76-2.35 2.76-1.498 0-2.348-1.08-2.348-2.75 0-1.63.86-2.758 2.355-2.758 1.503 0 2.344 1.08 2.343 2.748zm-3.71.01c0 1.37.48 2.01 1.36 2.01s1.36-.64 1.36-2.02c0-1.37-.48-2.01-1.35-2.01-.88 0-1.37.64-1.37 2.02zm9.24-1.15v3.776h-.92v-3.645c0-.79-.32-1.02-.83-1.02-.59 0-.99.37-1.34.93v3.736h-.92v-5.267h.79l.08.775c.364-.534.92-.895 1.61-.895.97.004 1.53.614 1.53 1.612zm5.07-1.008l-.4.61c-.46-.33-.87-.48-1.358-.48-.6 0-.97.27-.97.69 0 .43.28.63 1.13.85 1.11.278 1.75.72 1.75 1.64 0 1.1-1.01 1.6-2.08 1.6-.89 0-1.527-.29-1.987-.688l.51-.58c.4.34.89.53 1.46.53.688 0 1.13-.312 1.13-.772 0-.55-.26-.75-1.28-1.02-1.14-.303-1.59-.792-1.59-1.542 0-.828.81-1.438 1.9-1.438.735-.003 1.285.217 1.785.6zm4.69 3.057l-.52 1.73h-.96l2.21-6.89h1.2l2.2 6.887h-1l-.52-1.728-2.61.002zm1.31-4.367l-1.08 3.598h2.152l-1.072-3.598zm6.39 5.855c-.35.24-.73.36-1.18.36-.89 0-1.42-.52-1.42-1.5v-3.18h-.918v-.71h.92v-1.188l.918-.11v1.3h1.25l-.1.71h-1.15v3.14c0 .53.17.78.63.78.23 0 .44-.07.7-.23l.35.628zm3.61 0c-.35.24-.73.36-1.18.36-.89 0-1.42-.52-1.42-1.5v-3.18h-.92v-.71h.92v-1.188l.92-.11v1.3h1.25l-.1.71h-1.15v3.14c0 .53.17.78.63.78.23 0 .44-.07.7-.23l.35.628zm3.76-5.083l-.17.896c-.16-.04-.27-.06-.46-.06-.656 0-1.04.47-1.26 1.48v3.004h-.918v-5.268h.79l.09 1.072c.28-.797.77-1.192 1.406-1.192.17 0 .36.02.522.06v.007zm2.15-1.842c0 .35-.26.618-.65.618-.38 0-.64-.27-.64-.62 0-.356.26-.63.64-.63.392 0 .65.27.65.63v.002zm-1.1 7.165v-5.268h.92v5.268h-.92zm7.19-2.64c0 1.65-.79 2.76-2.07 2.76-.576 0-1.04-.26-1.397-.694l-.09.574h-.81v-7.386l.92-.11v2.893c.36-.49.85-.782 1.487-.782 1.19-.004 1.96.985 1.96 2.745zm-.99 0c0-1.5-.49-2.02-1.23-2.02-.58 0-.962.4-1.23.82v2.52c.276.42.687.71 1.16.71.77 0 1.3-.59 1.3-2.03zm5.69 2.64l-.07-.82c-.4.64-.89.94-1.64.94-.92 0-1.473-.58-1.473-1.61v-3.775h.92v3.68c0 .72.24.987.812.987.57 0 1-.38 1.32-.91v-3.758h.92v5.267l-.79-.002zm5.35-.24c-.35.237-.73.357-1.18.357-.89 0-1.42-.52-1.42-1.5v-3.178h-.92v-.71h.92v-1.188l.92-.11v1.3h1.25l-.1.71h-1.15v3.14c0 .53.17.78.63.78.23 0 .44-.07.7-.228l.35.626zm2.05-6.925c0 .35-.26.618-.647.618-.38 0-.64-.27-.64-.62 0-.356.26-.63.64-.63.39 0 .65.27.65.63v.002h-.003zm-1.1 7.165v-5.268h.92v5.268h-.92zm7.137-2.64c0 1.63-.858 2.76-2.347 2.76-1.5 0-2.35-1.08-2.35-2.75 0-1.63.86-2.757 2.36-2.757s2.338 1.08 2.337 2.747zm-3.706.01c0 1.37.48 2.01 1.36 2.01.878 0 1.356-.64 1.356-2.02 0-1.37-.478-2.01-1.35-2.01-.877 0-1.365.64-1.366 2.02zm9.238-1.15v3.777h-.92v-3.646c0-.79-.32-1.02-.83-1.02-.59 0-.988.37-1.338.93v3.736h-.92v-5.268h.79l.076.775c.368-.533.927-.895 1.612-.895.972.004 1.53.613 1.53 1.61zm7.7 2.13v1.65h-.89v-1.65h-2.858v-.66l2.01-4.48.77.32-1.81 4.088h1.896l.08-1.8h.8v1.8h.872v.73h-.87v.002zm3.062 1.07c0 .39-.3.7-.7.7-.39 0-.69-.31-.69-.7 0-.38.3-.69.69-.69.4 0 .7.31.7.69zm5.536-2.758c0 2.22-.738 3.458-2.237 3.458-1.5 0-2.236-1.24-2.236-3.458s.736-3.447 2.236-3.447 2.238 1.237 2.237 3.447zm-3.517 0c0 1.97.44 2.73 1.28 2.73.83 0 1.276-.76 1.276-2.73 0-1.96-.45-2.72-1.28-2.72-.84 0-1.28.76-1.28 2.72h.003zm7.72 3.338v-6.886h.96v6.884h-.96v.003zm6.92-3.78v3.777h-.92v-3.646c0-.79-.32-1.02-.83-1.02-.59 0-.99.37-1.34.93v3.736h-.92v-5.268h.79l.077.775c.367-.533.925-.895 1.612-.895.97.004 1.53.613 1.53 1.61zm4.51 3.54c-.35.237-.73.357-1.18.357-.893 0-1.42-.52-1.42-1.5v-3.178h-.92v-.71h.92v-1.188l.92-.11v1.3h1.25l-.1.71h-1.15v3.14c0 .53.17.78.63.78.228 0 .44-.07.7-.23l.35.628zm4.807-2.08h-3.355c.084 1.223.653 1.69 1.418 1.69.52 0 .91-.14 1.37-.46l.397.55c-.52.41-1.106.66-1.838.66-1.47 0-2.326-1.03-2.326-2.7 0-1.64.83-2.81 2.188-2.81 1.42 0 2.17.988 2.17 2.6 0 .182-.01.352-.02.47h-.004zm-.888-.74c0-1.03-.41-1.6-1.24-1.6-.7 0-1.152.492-1.228 1.66h2.468v-.06zm5.24-2.266l-.17.898c-.16-.04-.27-.06-.46-.06-.656 0-1.04.47-1.26 1.48v3.004h-.92v-5.27h.79l.092 1.073c.28-.797.77-1.192 1.407-1.192.172 0 .36.02.522.06v.007zm5.06 1.546v3.776h-.92v-3.648c0-.79-.32-1.02-.83-1.02-.59 0-.99.37-1.34.93v3.737h-.918v-5.27h.79l.078.776c.365-.534.922-.895 1.61-.895.97.005 1.53.615 1.53 1.613zm5.398 2.55c0 .46.17.61.44.71l-.21.64c-.527-.063-.872-.27-1.03-.788-.365.55-.924.787-1.567.787-1.05 0-1.68-.65-1.68-1.59 0-1.13.85-1.738 2.32-1.738h.81v-.39c0-.76-.37-1.04-1.1-1.04-.39 0-.88.1-1.42.28l-.23-.67c.65-.24 1.23-.36 1.82-.36 1.27 0 1.848.65 1.848 1.75v2.41zm-.918-.16v-1.21h-.69c-.97 0-1.46.357-1.46 1.08 0 .62.312.95.91.95.544 0 .94-.27 1.24-.82zm5.47 1.148c-.35.24-.73.36-1.18.36-.89 0-1.42-.52-1.42-1.5v-3.18h-.918v-.71h.92v-1.187l.918-.11v1.3h1.25l-.1.71h-1.15v3.14c0 .53.17.78.63.78.23 0 .44-.07.7-.23l.35.628zm2.05-6.923c0 .35-.26.618-.65.618-.38 0-.64-.27-.64-.62 0-.357.26-.63.64-.63.39 0 .65.27.65.63v.002zm-1.1 7.165v-5.268h.92v5.268h-.92zm7.138-2.64c0 1.63-.856 2.76-2.348 2.76-1.5 0-2.35-1.08-2.35-2.75 0-1.63.86-2.757 2.36-2.757s2.34 1.08 2.34 2.748h-.002zm-3.707.01c0 1.37.48 2.01 1.36 2.01s1.358-.64 1.358-2.02c0-1.37-.48-2.01-1.35-2.01-.877 0-1.366.64-1.366 2.02zm9.237-1.15v3.777h-.92v-3.648c0-.79-.317-1.02-.828-1.02-.59 0-.99.37-1.34.93v3.737h-.92v-5.27h.79l.08.776c.364-.534.922-.895 1.61-.895.97 0 1.53.61 1.53 1.61h-.002zm5.4 2.55c0 .46.17.61.44.71l-.21.64c-.53-.062-.874-.27-1.03-.787-.367.55-.927.787-1.568.787-1.05 0-1.68-.65-1.68-1.59 0-1.13.85-1.738 2.32-1.738h.81v-.39c0-.76-.37-1.04-1.1-1.04-.39 0-.88.1-1.42.28l-.23-.67c.65-.24 1.23-.36 1.82-.36 1.27 0 1.85.65 1.85 1.75v2.408h-.003zm-.92-.16v-1.21h-.69c-.97 0-1.46.36-1.46 1.08 0 .62.313.95.91.95.545 0 .94-.27 1.24-.82zm3.683.33c0 .28.09.42.33.42.13 0 .24-.02.34-.06l.24.64c-.25.12-.51.18-.78.18-.67 0-1.05-.4-1.05-1.16v-6.346l.92-.11v6.436zm-199.6 9.324v3.733h-.58v-3.652c0-.854-.357-1.21-.988-1.21-.707 0-1.193.44-1.62 1.07v3.793h-.58v-7.353l.58-.073v3.07c.424-.59.99-.98 1.73-.98.942 0 1.456.61 1.456 1.604l.003-.002zm4.452 3.518c-.314.207-.675.327-1.103.327-.79 0-1.276-.464-1.276-1.38v-3.49h-.88v-.467h.88v-1.25l.58-.065v1.317h1.35l-.073.468H601.6v3.462c0 .606.234.91.768.91.29 0 .54-.085.8-.24l.232.41h-.005zm3.41 0c-.314.207-.675.327-1.103.327-.79 0-1.276-.464-1.276-1.38v-3.49h-.88v-.467h.88v-1.25l.58-.065v1.317h1.348l-.07.468h-1.275v3.462c0 .606.234.91.767.91.29 0 .54-.085.8-.24l.228.41zm5.085-2.42c0 1.652-.687 2.747-1.983 2.747-.654 0-1.164-.296-1.49-.72v2.58l-.578.08v-7.277h.497l.047.763c.383-.534.938-.874 1.61-.874 1.29 0 1.9 1.008 1.9 2.7h-.004v.002zm-.617 0c0-1.485-.48-2.217-1.39-2.217-.67 0-1.108.396-1.47.9v2.776c.322.48.786.793 1.383.793.958.004 1.477-.76 1.477-2.252zm2.823-1.63c0 .265-.193.475-.48.475-.272 0-.475-.21-.475-.476 0-.267.2-.476.48-.476.282 0 .48.212.476.476zm.002 3.9c0 .267-.195.48-.48.48-.273 0-.477-.213-.477-.478 0-.266.204-.477.48-.477.284 0 .48.21.48.476h-.002v-.002zm2.25 1.363l-.505-.124 2.32-8.893.5.12-2.315 8.897zm5.2 0l-.505-.124 2.318-8.893.5.12-2.312 8.897zm8.054-6.114c-.355.105-.812.145-1.444.146.552.26.892.703.892 1.423 0 1.022-.713 1.723-1.896 1.723-.246 0-.478-.036-.68-.104-.243.14-.397.354-.397.604 0 .305.204.536.832.536h.85c1.034 0 1.672.556 1.672 1.334 0 .943-.74 1.507-2.266 1.507-1.582 0-2.177-.457-2.177-1.5h.536c.01.73.386 1.02 1.64 1.02 1.215 0 1.675-.37 1.675-.986 0-.56-.437-.87-1.18-.87h-.847c-.866 0-1.293-.42-1.293-.925 0-.352.215-.658.575-.886-.598-.31-.88-.777-.88-1.478 0-1.047.77-1.77 1.913-1.77 1.403.02 1.78-.13 2.294-.337l.178.56.002.003zm-3.79 1.55c0 .835.524 1.317 1.32 1.317.848 0 1.318-.48 1.318-1.31 0-.818-.43-1.333-1.314-1.333-.89.003-1.324.553-1.324 1.325zm5.658-3.538c0 .23-.17.414-.44.414-.26 0-.43-.187-.43-.415 0-.234.17-.42.43-.42.27 0 .44.186.44.42zm-.725 7.107v-5.23h.58v5.23h-.58zm5.08-.218c-.318.207-.677.327-1.105.327-.79 0-1.274-.465-1.274-1.38v-3.49h-.88v-.467h.88v-1.25l.58-.065v1.317h1.348l-.073.468h-1.273v3.462c0 .606.234.91.768.91.29 0 .538-.085.798-.24l.232.41zm4.795-3.518v3.733h-.578v-3.653c0-.853-.356-1.21-.987-1.21-.707 0-1.19.44-1.62 1.072v3.79h-.58v-7.353l.58-.072v3.07c.423-.59.988-.98 1.73-.98.942 0 1.456.61 1.455 1.604v-.004zm5.247 3.736l-.037-.93c-.36.624-.9 1.04-1.71 1.04-.93 0-1.476-.57-1.476-1.6v-3.74h.58v3.685c0 .83.35 1.176 1.032 1.176.686 0 1.164-.444 1.527-1.066v-3.79h.58v5.228h-.498l.002-.003zm6.673-2.64c0 1.678-.724 2.75-1.987 2.75-.66 0-1.168-.33-1.504-.77l-.06.657h-.51v-7.357l.58-.07v2.93c.37-.503.89-.838 1.57-.838 1.198 0 1.908.962 1.91 2.697zm-.616 0c0-1.542-.518-2.215-1.405-2.215-.68 0-1.1.396-1.455.9v2.754c.322.487.79.825 1.385.825.92 0 1.472-.74 1.474-2.263zm2.722 2.273c0 .266-.195.478-.48.478-.273 0-.477-.212-.477-.478 0-.265.198-.476.475-.476.285 0 .48.21.48.475zm4.79-4.44l-.297.386c-.337-.28-.68-.42-1.16-.42-.948 0-1.61.75-1.61 2.255 0 1.494.656 2.19 1.604 2.19.483 0 .845-.162 1.2-.457l.292.405c-.415.354-.91.56-1.5.56-1.347 0-2.222-.99-2.222-2.687 0-1.686.863-2.76 2.21-2.76.588 0 1.033.154 1.48.53h.002zm5.33 2.18c0 1.685-.844 2.736-2.217 2.736-1.394 0-2.215-1.04-2.215-2.715 0-1.68.85-2.73 2.222-2.73 1.383 0 2.206 1.002 2.206 2.71h.003zm-3.813.02c0 1.46.59 2.228 1.596 2.228 1 0 1.6-.755 1.6-2.25 0-1.473-.585-2.223-1.59-2.223-1 0-1.608.745-1.607 2.243v.002zm11.965-1.13v3.734h-.58v-3.653c0-.853-.35-1.21-.887-1.21-.63 0-1.07.44-1.47 1.077v3.787h-.576v-3.65c0-.854-.348-1.21-.89-1.21-.63 0-1.077.44-1.47 1.076v3.785h-.58v-5.228h.5l.055.885c.387-.59.93-.992 1.603-.992.67 0 1.135.386 1.295 1.04.4-.617.95-1.04 1.643-1.04.847 0 1.36.61 1.36 1.604l-.002-.004zm2.71 4.732l-.506-.124 2.32-8.894.5.12-2.314 8.897zm5.292-8.102c0 .23-.17.414-.44.414-.26 0-.43-.187-.43-.415 0-.234.17-.42.43-.42.27 0 .44.186.44.42zm-.726 7.107v-5.23h.58v5.23h-.58zm6.433 0h-.508l-.065-.796c-.306.514-.813.903-1.574.903-1.212 0-1.954-1.04-1.954-2.7 0-1.61.77-2.748 2.053-2.748.714 0 1.163.342 1.47.71v-2.802l.58.07v7.36l-.003.002zm-.58-1.342v-2.724c-.312-.444-.732-.79-1.373-.79-.915 0-1.536.79-1.53 2.254.005 1.46.55 2.228 1.437 2.228.693 0 1.108-.35 1.467-.968zm3.226.44c0 .347.115.514.43.514.123 0 .244-.025.354-.07l.158.427c-.185.088-.4.144-.62.144-.564 0-.9-.323-.9-1.006v-6.464l.58-.07-.002 6.526zm5.9-1.483h-3.492c.077 1.413.738 2.002 1.635 2.002.57 0 .952-.174 1.406-.516l.273.37c-.486.395-1.017.637-1.713.637-1.37 0-2.216-1-2.216-2.676 0-1.674.812-2.77 2.09-2.77 1.354 0 2.037.986 2.037 2.524 0 .166-.008.324-.017.43zm-.554-.608c0-1.136-.46-1.862-1.446-1.862-.812 0-1.436.604-1.496 2.02h2.94v-.16zm6.3.353c0 1.677-.726 2.748-1.988 2.748-.66 0-1.168-.33-1.504-.77l-.058.66h-.51v-7.357l.58-.07v2.93c.37-.503.887-.838 1.57-.838 1.197 0 1.907.962 1.91 2.698zm-.618 0c0-1.543-.518-2.216-1.403-2.216-.682 0-1.1.396-1.458.9v2.754c.323.487.793.825 1.386.825.92 0 1.472-.743 1.472-2.265l.002.003zm6.08-.172c0 .165-.01.322-.02.427h-3.492c.076 1.413.737 2.002 1.633 2.002.568 0 .953-.174 1.407-.516l.27.37c-.484.395-1.016.637-1.712.637-1.37 0-2.215-1-2.215-2.676 0-1.672.812-2.77 2.09-2.77 1.355 0 2.04.99 2.04 2.527zm-.574-.18c0-1.136-.46-1.862-1.442-1.862-.813 0-1.438.604-1.497 2.02h2.938v-.16zm4.79-2.287l-.11.555c-.143-.04-.28-.06-.46-.06-.725 0-1.12.523-1.395 1.604v3.18h-.58v-5.23h.5l.046 1.174c.284-.856.762-1.28 1.48-1.28.21 0 .387.025.52.06l-.002-.003zm5.07.16c-.357.105-.812.145-1.445.147.55.26.89.704.89 1.424 0 1.022-.71 1.723-1.894 1.723-.243 0-.474-.036-.68-.104-.24.14-.396.354-.396.604 0 .305.203.536.832.536h.85c1.037 0 1.675.556 1.675 1.334 0 .943-.74 1.507-2.264 1.507-1.582 0-2.18-.457-2.18-1.5h.54c.01.73.384 1.02 1.64 1.02 1.215 0 1.676-.37 1.676-.986 0-.56-.438-.87-1.18-.87h-.848c-.867 0-1.294-.42-1.294-.925 0-.352.215-.658.576-.886-.597-.31-.88-.777-.88-1.478 0-1.048.77-1.77 1.913-1.77 1.398.02 1.78-.13 2.293-.338l.177.558v.002l-.002.002zm-3.79 1.55c0 .835.527 1.318 1.323 1.318.847 0 1.32-.478 1.32-1.31 0-.82-.432-1.333-1.315-1.333-.89 0-1.324.55-1.324 1.322l-.002.002zm5.565 4.564l-.504-.124 2.318-8.894.5.12-2.315 8.897zm7.68-3.623c0 1.686-.844 2.737-2.218 2.737-1.39 0-2.212-1.04-2.212-2.715 0-1.68.85-2.73 2.223-2.73 1.383 0 2.207 1.002 2.207 2.71zm-2.208-2.223c-.994 0-1.604.745-1.604 2.245 0 1.462.592 2.228 1.598 2.228 1 0 1.6-.754 1.6-2.25-.003-1.472-.587-2.222-1.593-2.222zm6.453-.427l-.11.555c-.144-.04-.28-.06-.46-.06-.726 0-1.122.523-1.396 1.604v3.18h-.58v-5.23h.5l.046 1.174c.283-.856.758-1.28 1.48-1.28.207 0 .386.025.52.06v-.003zm1.91-1.83c0 .23-.17.416-.44.416-.26 0-.43-.187-.43-.415 0-.234.17-.42.43-.42.27 0 .44.186.44.42v-.002zm-.726 7.11v-5.23h.58v5.23h-.58zm6.586-5.12c-.356.105-.812.145-1.444.146.55.26.89.703.89 1.423 0 1.02-.71 1.723-1.894 1.723-.245 0-.476-.036-.68-.104-.242.14-.396.354-.396.604 0 .305.205.536.832.536h.85c1.037 0 1.674.556 1.674 1.334 0 .943-.74 1.507-2.265 1.507-1.582 0-2.177-.458-2.177-1.5h.54c.01.73.384 1.02 1.637 1.02 1.216 0 1.676-.37 1.676-.986 0-.56-.436-.87-1.18-.87h-.844c-.87 0-1.295-.42-1.295-.925 0-.352.216-.658.576-.886-.597-.31-.88-.777-.88-1.478 0-1.047.77-1.77 1.913-1.77 1.4.02 1.775-.13 2.29-.337l.177.56h.002l-.002.002zm-3.79 1.548c0 .838.527 1.32 1.322 1.32.846 0 1.318-.478 1.318-1.31 0-.82-.43-1.333-1.315-1.333-.89.003-1.325.553-1.325 1.324zm8.185 2.412c0 .58.154.753.44.863l-.136.403c-.458-.095-.73-.324-.812-.872-.37.588-.924.872-1.62.872-1.018 0-1.623-.627-1.623-1.56 0-1.096.833-1.694 2.17-1.694h1.002v-.5c0-.823-.343-1.196-1.21-1.196-.428 0-.9.11-1.418.3l-.153-.445c.578-.223 1.098-.35 1.65-.35 1.186 0 1.71.59 1.71 1.657v2.526-.004zm-.58-.14v-1.42h-.913c-1.046 0-1.64.41-1.64 1.244 0 .717.406 1.12 1.1 1.12.672 0 1.13-.34 1.453-.944zm9.142-2.436v3.733h-.58v-3.653c0-.853-.35-1.21-.888-1.21-.63 0-1.07.44-1.47 1.077v3.787h-.58v-3.65c0-.855-.35-1.21-.89-1.21-.63 0-1.074.44-1.47 1.076v3.785h-.58v-5.228h.5l.056.885c.39-.59.93-.992 1.604-.992.67 0 1.133.386 1.294 1.04.4-.617.95-1.04 1.645-1.04.844 0 1.36.61 1.36 1.604v-.004zm2.8-3.37c0 .228-.17.413-.44.413-.26 0-.43-.187-.43-.415 0-.234.17-.42.43-.42.272 0 .44.186.44.42zm-.723 7.106v-5.23h.58v5.23h-.58zm4.966-3.38v.504h-2.644v-.507h2.644v.002zm5.014-1.427l-.297.386c-.334-.28-.68-.42-1.158-.42-.95 0-1.613.75-1.613 2.255 0 1.494.656 2.19 1.605 2.19.48 0 .843-.162 1.2-.458l.29.406c-.415.354-.91.56-1.5.56-1.347 0-2.222-.99-2.222-2.687 0-1.686.864-2.76 2.21-2.76.59 0 1.035.154 1.48.53h.004zm5.05 4.807h-.507l-.06-.796c-.31.514-.817.902-1.578.902-1.214 0-1.955-1.04-1.955-2.7 0-1.61.77-2.746 2.052-2.746.716 0 1.164.342 1.47.71v-2.802l.58.07v7.36l-.002.002zm-.58-1.342v-2.724c-.31-.444-.73-.79-1.37-.79-.916 0-1.537.79-1.53 2.253.003 1.46.55 2.228 1.435 2.228.695 0 1.11-.35 1.47-.966h-.003l-.002-.002zm4.964-2.04v.506h-2.643v-.507h2.643zm6.252 3.348c-.186.09-.4.145-.622.145-.563 0-.9-.323-.9-1.006v-5.824c-.474-.152-.84-.223-1.33-.223-.702 0-1.018.26-1.018.875v.84h1.378l-.072.47h-1.306v4.76h-.58v-4.76h-.86v-.47h.86v-.856c0-.826.537-1.346 1.554-1.346.532 0 .906.084 1.373.23l.58-.07v6.37c0 .347.117.514.43.514.125 0 .244-.026.355-.07l.158.42zm5.283-2.593c0 1.687-.843 2.737-2.216 2.737-1.39 0-2.21-1.04-2.21-2.717 0-1.68.847-2.73 2.22-2.73 1.385 0 2.207 1.003 2.207 2.71zm-3.81.02c0 1.463.59 2.23 1.596 2.23 1 0 1.6-.757 1.6-2.25 0-1.475-.583-2.225-1.59-2.225-.996 0-1.606.745-1.605 2.245zm9.018 2.608l-1.16-4.69-1.176 4.69h-.77l-1.308-5.23h.597l1.114 4.783 1.22-4.78h.67l1.196 4.786 1.105-4.787h.566l-1.272 5.23-.78-.002zm6.963-2.385h-3.49c.073 1.413.735 2.002 1.63 2.002.57 0 .953-.173 1.408-.516l.273.37c-.483.396-1.015.638-1.71.638-1.37 0-2.215-1.002-2.215-2.678 0-1.673.812-2.77 2.09-2.77 1.355 0 2.04.987 2.04 2.525 0 .165-.012.322-.022.427h-.002zm-.556-.608c0-1.135-.46-1.862-1.44-1.862-.813 0-1.437.604-1.498 2.02h2.94v-.157h-.002zm4.274-2.345c.207 0 .387.025.52.06l-.11.557c-.142-.04-.28-.06-.46-.06-.723 0-1.12.52-1.395 1.603v3.18h-.58v-5.23h.5l.047 1.174c.28-.863.756-1.285 1.478-1.285z"/>
  <g fill="none" stroke="#C6C7C8" stroke-width=".5" stroke-miterlimit="10">
    <path d="M669.084 266.646c.866.5 1.727 1.01 2.583 1.525"/>
    <path stroke-dasharray="5.936 5.936" d="M676.697 271.32c46.604 30.335 77.426 82.89 77.426 142.645 0 60.816-31.922 114.173-79.923 144.24"/>
    <path d="M671.667 559.76c-.856.52-1.717 1.024-2.583 1.525"/>
  </g>
  <g fill="none" stroke="#C6C7C8" stroke-width=".5" stroke-miterlimit="10">
    <path d="M413.966 119.32c.865-.5 1.734-.993 2.608-1.478"/>
    <path stroke-dasharray="5.936 5.936" d="M421.81 115.054c23.167-11.822 49.402-18.492 77.195-18.492 91.933 0 166.83 72.94 169.98 164.107"/>
    <path d="M669.06 263.646c.02.996.024 1.994.024 2.995v.008l-2.598 1.5"/>
    <path stroke-dasharray="6.237 6.237" d="M661.085 271.265L566.57 325.84"/>
    <path d="M563.87 327.4l-2.6 1.5"/>
  </g>
  <g fill="none" stroke="#C6C7C8" stroke-width=".5" stroke-miterlimit="10">
    <path d="M413.965 708.61c.865.5 1.734.99 2.608 1.478"/>
    <path stroke-dasharray="5.936 5.936" d="M421.81 712.876c23.167 11.823 49.4 18.493 77.195 18.493 91.933 0 166.83-72.94 169.98-164.11"/>
    <path d="M669.06 564.285c.02-.996.024-1.994.024-2.995v-.005l-2.598-1.5"/>
    <path stroke-dasharray="6.237 6.237" d="M661.085 556.666L566.57 502.09"/>
    <path d="M563.868 500.53l-2.597-1.5"/>
  </g>
  <g fill="none">
    <g stroke="#C6C7C8" stroke-width=".5" stroke-miterlimit="10">
      <path d="M158.848 561.292c0 1.002.01 2.002.026 3"/>
      <path stroke-dasharray="5.936 5.936" d="M159.078 570.227c4.647 89.777 78.913 161.145 169.848 161.145 28.854 0 56.02-7.188 79.825-19.862"/>
      <path d="M411.355 710.088c.875-.484 1.742-.98 2.606-1.48l-.007-3"/>
      <path stroke-dasharray="6.24 6.24" d="M413.938 699.37l-.31-109.205"/>
      <path d="M413.62 587.045l-.01-3"/>
    </g>
    <path d="M158.848 561.29v.002"/>
    <g stroke="#C6C7C8" stroke-width=".5" stroke-miterlimit="10">
      <path d="M158.848 266.64c0-1.002.01-2.002.026-3"/>
      <path stroke-dasharray="5.936 5.936" d="M159.078 257.707c4.646-89.78 78.913-161.146 169.848-161.146 28.854 0 56.02 7.19 79.826 19.867"/>
      <path d="M411.357 117.842c.875.485 1.74.978 2.605 1.478l-.01 3"/>
      <path stroke-dasharray="6.24 6.24" d="M413.94 128.56l-.313 109.207"/>
      <path d="M413.62 240.887l-.01 3"/>
    </g>
    <g stroke="#C6C7C8" stroke-width=".5" stroke-miterlimit="10">
      <path d="M158.848 561.292c-.866-.502-1.727-1.01-2.583-1.525"/>
      <path stroke-dasharray="5.936 5.936" d="M151.235 556.616c-46.61-30.334-77.427-82.896-77.427-142.65 0-60.816 31.92-114.18 79.923-144.245"/>
      <path d="M156.265 268.165c.855-.516 1.716-1.023 2.582-1.524l2.6 1.5"/>
      <path stroke-dasharray="6.237 6.237" d="M166.846 271.26l94.515 54.58"/>
      <path d="M264.062 327.4l2.598 1.5"/>
    </g>
  </g>
  <path fill="none" stroke="#C6C7C8" stroke-width=".5" stroke-miterlimit="10" stroke-dasharray="6" d="M158.847 561.29l107.814-62.26"/>
  <circle fill="none" cx="243.886" cy="413.966" r=".709"/>
  <circle fill="none" cx="328.927" cy="266.64" r=".708"/>
  <circle fill="none" cx="499.005" cy="266.64" r=".709"/>
  <circle fill="none" cx="584.045" cy="413.966" r=".709"/>
  <circle fill="none" cx="499.006" cy="561.29" r=".709"/>
  <circle fill="none" cx="328.927" cy="561.29" r=".709"/>
  <path fill="none" d="M498.67 731.203c76.748 0 141.612-50.838 162.78-120.672L460.7 726.93c12.212 2.788 24.916 4.276 37.97 4.275v-.002zm-332.717-120.2c21.316 69.592 86.064 120.2 162.64 120.2 13.27 0 26.177-1.532 38.57-4.407"/>
  <path d="M743.52 741.37c4.877 0 9.027 1.7 12.45 5.104 1.638 1.64 2.886 3.514 3.734 5.617.85 2.11 1.274 4.346 1.274 6.71 0 2.386-.42 4.62-1.26 6.706s-2.08 3.925-3.72 5.522c-1.703 1.683-3.63 2.97-5.79 3.86-2.16.893-4.387 1.34-6.688 1.34-2.304 0-4.51-.44-6.615-1.32-2.104-.887-3.993-2.16-5.663-3.83-1.673-1.67-2.942-3.555-3.814-5.648-.87-2.098-1.308-4.306-1.308-6.63 0-2.303.443-4.52 1.325-6.645.882-2.127 2.163-4.03 3.842-5.712 3.317-3.38 7.397-5.072 12.23-5.073h.003zm.062 3.144c-3.98 0-7.334 1.39-10.05 4.168-1.372 1.394-2.423 2.953-3.16 4.688-.736 1.73-1.104 3.54-1.104 5.43 0 1.868.367 3.666 1.104 5.398.74 1.73 1.79 3.28 3.163 4.638 1.368 1.36 2.912 2.396 4.635 3.112 1.725.716 3.528 1.07 5.415 1.07 1.866 0 3.677-.36 5.435-1.087 1.75-.724 3.332-1.77 4.74-3.144 2.72-2.656 4.08-5.985 4.08-9.99 0-1.93-.355-3.754-1.06-5.478-.705-1.727-1.73-3.263-3.08-4.608-2.804-2.8-6.174-4.2-10.116-4.2l-.002.004zm-.217 11.39l-2.334 1.214c-.246-.52-.554-.884-.913-1.09-.365-.21-.702-.313-1.014-.313-1.557 0-2.336 1.03-2.336 3.082 0 .934.2 1.68.594 2.24.395.562.977.84 1.74.84 1.02 0 1.733-.497 2.148-1.49l2.146 1.09c-.454.85-1.09 1.52-1.9 2.006-.807.486-1.696.73-2.672.73-1.56 0-2.81-.477-3.766-1.432-.955-.95-1.436-2.28-1.436-3.98 0-1.66.484-2.977 1.45-3.952.963-.975 2.182-1.462 3.653-1.462 2.162 0 3.71.84 4.64 2.52v-.002zm10.053 0l-2.303 1.214c-.25-.52-.56-.884-.92-1.09-.36-.21-.71-.313-1.04-.313-1.558 0-2.334 1.03-2.334 3.082 0 .934.197 1.68.59 2.24.398.562.98.84 1.746.84 1.018 0 1.73-.497 2.146-1.49l2.183 1.09c-.48.85-1.12 1.52-1.93 2.006-.81.486-1.69.73-2.646.73-1.58 0-2.84-.477-3.78-1.432-.947-.95-1.42-2.28-1.42-3.98 0-1.66.483-2.977 1.447-3.952.967-.975 2.186-1.462 3.656-1.462 2.16 0 3.695.84 4.608 2.52l-.002-.002zm30.064-14.534c4.896 0 9.023 1.683 12.386 5.044 3.384 3.382 5.073 7.51 5.073 12.387 0 4.9-1.655 8.977-4.978 12.23-3.527 3.468-7.688 5.198-12.48 5.198-4.71 0-8.797-1.71-12.26-5.138-3.426-3.422-5.136-7.52-5.136-12.29s1.71-8.9 5.135-12.388c3.36-3.36 7.45-5.042 12.267-5.042h-.005zm.063 3.144c-3.963 0-7.314 1.39-10.053 4.17-2.842 2.904-4.264 6.276-4.264 10.115 0 3.854 1.41 7.196 4.23 10.02 2.822 2.82 6.184 4.23 10.083 4.23 3.88 0 7.26-1.42 10.147-4.264 2.738-2.636 4.107-5.964 4.107-9.99 0-3.964-1.39-7.335-4.17-10.116-2.774-2.78-6.137-4.167-10.08-4.166zm4.668 9.958v7.127h-1.992v8.463h-5.41V761.6h-1.993v-7.128c0-.31.11-.573.328-.793.22-.22.48-.33.793-.33h7.158c.287 0 .55.11.777.327.23.217.343.482.343.792l-.003.002zm-7.127-4.48c0-1.64.81-2.46 2.427-2.46 1.618 0 2.43.82 2.43 2.46 0 1.617-.81 2.426-2.43 2.426-1.617 0-2.427-.81-2.427-2.426z"/>
  <path fill="none" stroke="#C6C7C8" stroke-width="2.858" stroke-miterlimit="10" stroke-dasharray="8.574" d="M46.545 752.276h64.766"/>
  <use xlink:href="#a" width="55.539" height="64.002" x="-27.769" y="-32.001" transform="matrix(0 .3828 .4664 0 42.633 752.276)" overflow="visible"/>
</svg>