<svg xmlns="http://www.w3.org/2000/svg" xmlns:xlink="http://www.w3.org/1999/xlink" width="828" height="828" viewBox="0 0 828 828">
  <symbol id="a" viewBox="-27.768 -32 55.537 64">
    <path d="M16.27-9c-2.422 0-4.665-.752-6.518-2.03L5.85-6.382c2.885 1.123 5.955 2.785 7.716 5.133 4 5.334 13.166 18 14 21.5.832 3.5-1.168 11.75-1.168 11.75L0 .58-26.398 32s-2-8.25-1.166-11.75c.833-3.5 10-16.166 14-21.5 1.76-2.348 4.83-4.01 7.715-5.133l-3.9-4.646C-11.605-9.75-13.848-9-16.27-9c-6.352 0-11.5-5.148-11.5-11.5 0-6.35 5.148-11.5 11.5-11.5s11.5 5.15 11.5 11.5c0 2.162-.607 4.178-1.645 5.906l5.228 6.22S-.738-8.3 0-8.138c.738-.162 1.185-.238 1.185-.238l5.228-6.22c-1.038-1.728-1.645-3.743-1.645-5.905 0-6.35 5.148-11.5 11.5-11.5s11.5 5.15 11.5 11.5c0 6.352-5.148 11.5-11.5 11.5zM-16.27-26c-3.033 0-5.5 2.467-5.5 5.5s2.467 5.5 5.5 5.5 5.5-2.467 5.5-5.5-2.467-5.5-5.5-5.5zm32.537 0c-3.034 0-5.5 2.467-5.5 5.5s2.466 5.5 5.5 5.5c3.032 0 5.5-2.467 5.5-5.5S19.3-26 16.27-26z"/>
  </symbol>
  <g fill="none" stroke="#C6C7C8" stroke-width=".5" stroke-miterlimit="10">
    <circle cx="413.966" cy="413.966" r="170.079"/>
    <path d="M158.848 561.292v-.002m0 0v.002m22.572-379.377l71.975-41.555 75.854-43.794m-.094 634.798l-73.398-42.24-74.04-42.608m549.762-317.36l.106 85.617.107 83.62M95.9 330.128l.105 83.073.11 84.985M646.52 181.93l-75.35-43.268-73.282-42.082m148.57 549.524l-74.262 43.06-72.784 42.2"/>
  </g>
  <path d="M30.397 777.756l-1.75 2.16-.55-.38 1.35-2.1-1.35-2.1.55-.38 1.75 2.17v.63zm2.26 0l-1.75 2.16-.55-.38 1.35-2.1-1.35-2.1.55-.38 1.75 2.17v.63zm7.53-2.258l-.295.386c-.333-.28-.68-.42-1.158-.42-.95 0-1.612.748-1.612 2.254 0 1.494.657 2.19 1.607 2.19.48 0 .84-.162 1.2-.457l.29.406c-.414.353-.91.56-1.5.56-1.347 0-2.22-.99-2.22-2.688 0-1.686.863-2.76 2.21-2.76.586 0 1.032.154 1.478.53zm4.593 4.807l-.037-.93c-.362.624-.9 1.04-1.71 1.04-.93 0-1.475-.57-1.475-1.6v-3.74h.58v3.685c0 .83.35 1.176 1.034 1.176.685 0 1.164-.445 1.527-1.067v-3.79h.58v5.228h-.5v-.003zm4.997-.218c-.317.207-.675.327-1.103.327-.79 0-1.277-.465-1.277-1.38v-3.49h-.88v-.468h.88v-1.25l.58-.065v1.317h1.348l-.073.468h-1.275v3.462c0 .606.236.91.767.91.29 0 .538-.085.798-.24l.235.41zm7.073-.94c0 .58.154.75.44.86l-.133.404c-.46-.094-.73-.324-.814-.872-.372.588-.923.873-1.62.873-1.017 0-1.624-.627-1.624-1.56 0-1.096.83-1.694 2.17-1.694h1v-.5c0-.824-.343-1.197-1.21-1.197-.428 0-.9.11-1.42.3l-.152-.445c.577-.223 1.097-.35 1.647-.35 1.188 0 1.712.59 1.712 1.657v2.522l.003.002zm-.58-.14v-1.42h-.914c-1.046 0-1.64.41-1.64 1.242 0 .717.408 1.12 1.1 1.12.67 0 1.13-.34 1.454-.944zm3.217.397c0 .346.117.513.43.513.123 0 .244-.025.355-.07l.158.427c-.184.087-.4.142-.62.142-.566 0-.902-.323-.902-1.006v-6.463l.58-.07v6.527zm6.22-1.727c0 1.686-.842 2.737-2.216 2.737-1.39 0-2.21-1.04-2.21-2.716 0-1.68.85-2.73 2.223-2.73 1.383 0 2.206 1.002 2.205 2.71zm-2.206-2.223c-.992 0-1.602.744-1.602 2.244 0 1.462.59 2.228 1.595 2.228 1 0 1.6-.754 1.6-2.25 0-1.472-.584-2.222-1.59-2.222H63.5zm7.674 1.116v3.733h-.58v-3.652c0-.864-.347-1.21-.983-1.21-.714 0-1.196.44-1.623 1.077v3.787h-.58v-5.23h.5l.054.894c.417-.596 1-1 1.755-1 .955 0 1.46.594 1.46 1.602zm5.96-1.384c-.358.105-.814.144-1.447.146.55.26.89.704.89 1.424 0 1.022-.71 1.723-1.893 1.723-.247 0-.476-.036-.68-.105-.243.14-.397.354-.397.604 0 .304.205.536.832.536h.85c1.035 0 1.672.555 1.672 1.334 0 .943-.74 1.507-2.266 1.507-1.582 0-2.177-.458-2.177-1.5h.54c.01.73.383 1.02 1.636 1.02 1.216 0 1.676-.37 1.676-.987 0-.56-.438-.87-1.18-.87h-.846c-.868 0-1.293-.42-1.293-.925 0-.352.214-.658.576-.886-.598-.31-.88-.777-.88-1.477 0-1.047.77-1.77 1.913-1.77 1.402.022 1.778-.13 2.293-.337l.176.558v.002zm-3.79 1.55c0 .835.527 1.318 1.323 1.318.846 0 1.318-.48 1.318-1.31 0-.818-.43-1.333-1.315-1.333-.892.002-1.326.552-1.327 1.325zm10.102 3.35c-.317.208-.675.328-1.104.328-.79 0-1.277-.465-1.277-1.38v-3.49h-.88v-.468h.88v-1.25l.58-.065v1.317h1.348l-.073.468h-1.274v3.462c0 .606.236.91.767.91.29 0 .538-.085.798-.24l.237.41zm4.798-3.516v3.733h-.58v-3.652c0-.853-.356-1.21-.988-1.21-.707 0-1.193.44-1.62 1.072v3.792h-.58v-7.354l.58-.073v3.07c.423-.59.988-.98 1.73-.98.943 0 1.458.61 1.458 1.603zm5.783.924c0 .164-.01.322-.02.426h-3.493c.074 1.413.736 2.002 1.63 2.002.57 0 .954-.173 1.41-.515l.272.37c-.487.396-1.016.637-1.713.637-1.37 0-2.214-1.002-2.214-2.677 0-1.672.81-2.77 2.09-2.77 1.352 0 2.035.99 2.037 2.527zm-.575-.182c0-1.135-.46-1.862-1.442-1.862-.812 0-1.436.604-1.497 2.02h2.94v-.158zm8.768 2.993h-.51l-.06-.796c-.305.514-.815.903-1.575.903-1.213 0-1.956-1.04-1.956-2.7 0-1.61.767-2.747 2.05-2.747.715 0 1.164.342 1.47.71v-2.802l.58.07v7.36zm-.58-1.342v-2.723c-.314-.445-.732-.79-1.373-.79-.916 0-1.537.79-1.53 2.253.004 1.46.548 2.228 1.434 2.228.7 0 1.11-.35 1.47-.967zm5.95.183c0 .58.153.752.44.862l-.134.403c-.46-.094-.73-.324-.814-.872-.372.588-.923.873-1.62.873-1.017 0-1.624-.627-1.624-1.56 0-1.096.833-1.694 2.17-1.694h1v-.5c0-.824-.34-1.197-1.208-1.197-.428 0-.9.11-1.42.3l-.152-.445c.578-.223 1.098-.35 1.65-.35 1.186 0 1.71.59 1.71 1.657v2.522l.002.002zm-.58-.14v-1.42h-.915c-1.046 0-1.64.41-1.64 1.243 0 .717.408 1.12 1.1 1.12.672 0 1.13-.34 1.455-.944zm5.636-3.456l-.28.39c-.453-.334-.84-.49-1.37-.49-.692 0-1.16.338-1.16.878 0 .518.334.744 1.266.992 1.148.3 1.683.686 1.683 1.577 0 .968-.845 1.518-1.887 1.518-.852 0-1.42-.29-1.874-.674l.33-.37c.437.357.89.56 1.535.56.753 0 1.287-.366 1.287-.99 0-.643-.293-.876-1.378-1.167-1.12-.293-1.568-.706-1.568-1.44 0-.795.755-1.36 1.746-1.36.666-.003 1.172.195 1.666.58l.002-.003zm5.458 1.02v3.733h-.58v-3.652c0-.853-.356-1.21-.988-1.21-.707 0-1.193.44-1.62 1.072v3.792h-.58v-7.354l.58-.073v3.07c.423-.59.988-.98 1.73-.98.943 0 1.458.61 1.458 1.603zm5.782.924c0 .164-.01.322-.02.426h-3.493c.074 1.413.736 2.002 1.63 2.002.57 0 .954-.173 1.41-.515l.272.37c-.487.396-1.016.637-1.713.637-1.37 0-2.214-1.002-2.214-2.677 0-1.672.813-2.77 2.09-2.77 1.354 0 2.038.99 2.038 2.527zm-.575-.182c0-1.135-.457-1.862-1.44-1.862-.813 0-1.436.604-1.497 2.02h2.94v-.157h-.002zm5.98 2.993h-.51l-.06-.796c-.307.514-.816.903-1.577.903-1.213 0-1.956-1.04-1.956-2.7 0-1.61.77-2.747 2.052-2.747.714 0 1.163.342 1.47.71v-2.802l.58.07v7.36zm-.58-1.342v-2.723c-.315-.445-.733-.79-1.374-.79-.916 0-1.537.79-1.53 2.253.004 1.46.548 2.228 1.434 2.228.698 0 1.11-.35 1.47-.967zm6.017.44c0 .347.117.514.43.514.123 0 .244-.025.354-.07l.16.427c-.185.087-.4.142-.62.142-.567 0-.903-.323-.903-1.006v-6.463l.58-.07v6.527zm3.035-6.205c0 .23-.17.415-.44.415-.26 0-.43-.186-.43-.415 0-.234.17-.42.43-.42.27 0 .44.186.44.42zm-.725 7.107v-5.23h.58v5.23h-.58zm6.466-3.735v3.733h-.58v-3.652c0-.864-.347-1.21-.983-1.21-.716 0-1.198.44-1.625 1.077v3.787h-.58v-5.23h.5l.054.894c.414-.596 1-1 1.752-1 .955 0 1.46.594 1.46 1.602zm5.783.924c0 .164-.01.322-.02.426h-3.493c.074 1.413.736 2.002 1.63 2.002.57 0 .954-.173 1.41-.515l.272.37c-.487.396-1.016.637-1.713.637-1.37 0-2.214-1.002-2.214-2.677 0-1.672.812-2.77 2.09-2.77 1.354 0 2.038.99 2.038 2.527zm-.575-.182c0-1.135-.457-1.862-1.44-1.862-.813 0-1.436.604-1.497 2.02h2.94v-.157h-.002zm5.196-1.762l-.28.39c-.453-.334-.84-.49-1.37-.49-.692 0-1.16.338-1.16.878 0 .518.334.744 1.267.992 1.147.3 1.683.686 1.683 1.577 0 .968-.845 1.518-1.887 1.518-.853 0-1.42-.29-1.875-.674l.33-.37c.437.357.89.56 1.535.56.754 0 1.288-.366 1.288-.99 0-.643-.293-.876-1.378-1.167-1.118-.293-1.567-.706-1.567-1.44 0-.795.755-1.36 1.746-1.36.665-.003 1.17.195 1.665.58v-.003zm-123.51 14.206l-1.75 2.16-.55-.38 1.35-2.1-1.35-2.1.55-.38 1.75 2.17v.63zm2.26 0l-1.75 2.16-.55-.38 1.35-2.1-1.35-2.1.55-.38 1.75 2.17v.63zm7.868 2.55l-1.16-4.69-1.175 4.69h-.77l-1.308-5.23h.596l1.113 4.782 1.22-4.78h.67l1.197 4.785 1.107-4.786h.567l-1.275 5.23-.78-.002zm7.14-3.736v3.733h-.58v-3.652c0-.853-.355-1.21-.987-1.21-.707 0-1.193.44-1.62 1.072v3.792h-.58v-7.354l.58-.073v3.07c.423-.59.988-.98 1.73-.98.943 0 1.458.61 1.458 1.603zm5.783.924c0 .164-.01.322-.02.426h-3.494c.074 1.413.736 2.002 1.63 2.002.57 0 .954-.173 1.41-.515l.272.37c-.487.396-1.016.637-1.713.637-1.37 0-2.214-1.002-2.214-2.677 0-1.672.812-2.77 2.09-2.77 1.354 0 2.038.99 2.04 2.527zm-.575-.182c0-1.135-.46-1.862-1.442-1.862-.813 0-1.436.604-1.497 2.02h2.94v-.158zm6.012-.742v3.733h-.58v-3.652c0-.864-.347-1.21-.982-1.21-.715 0-1.197.44-1.624 1.077v3.787h-.58v-5.23h.5l.054.894c.416-.596 1-1 1.754-1 .954 0 1.46.594 1.458 1.602zm8.036 3.735l-.038-.93c-.362.624-.9 1.04-1.71 1.04-.93 0-1.475-.57-1.475-1.6v-3.74h.58v3.685c0 .83.35 1.176 1.034 1.176.687 0 1.166-.445 1.53-1.067v-3.79h.58v5.228h-.5v-.003zm5.567-4.755l-.28.39c-.453-.334-.84-.49-1.37-.49-.692 0-1.16.338-1.16.878 0 .518.334.744 1.266.992 1.148.3 1.683.686 1.683 1.577 0 .968-.845 1.518-1.887 1.518-.855 0-1.42-.29-1.876-.674l.33-.37c.437.357.89.56 1.535.56.754 0 1.29-.366 1.29-.99 0-.643-.295-.876-1.38-1.167-1.118-.293-1.567-.706-1.567-1.44 0-.795.755-1.36 1.746-1.36.666-.003 1.172.195 1.666.58v-.003zm2.416-2.352c0 .23-.17.415-.44.415-.26 0-.43-.186-.43-.415 0-.234.17-.42.43-.42.27 0 .44.186.44.42zm-.725 7.107v-5.23h.58v5.23h-.58zm6.466-3.735v3.733h-.58v-3.652c0-.864-.347-1.21-.983-1.21-.714 0-1.196.44-1.623 1.077v3.787h-.58v-5.23h.5l.054.894c.417-.596 1-1 1.755-1 .955 0 1.46.594 1.46 1.602zm5.96-1.384c-.358.105-.814.144-1.447.146.55.26.89.704.89 1.424 0 1.022-.71 1.723-1.893 1.723-.247 0-.477-.036-.68-.105-.243.14-.397.354-.397.604 0 .304.205.536.832.536h.85c1.035 0 1.672.555 1.672 1.334 0 .943-.74 1.507-2.266 1.507-1.582 0-2.177-.458-2.177-1.5h.54c.01.73.383 1.02 1.636 1.02 1.216 0 1.676-.37 1.676-.987 0-.56-.438-.87-1.18-.87h-.846c-.868 0-1.293-.42-1.293-.925 0-.352.214-.658.576-.886-.598-.31-.88-.777-.88-1.477 0-1.047.77-1.77 1.913-1.77 1.402.022 1.778-.13 2.293-.337l.176.558v.002zm-3.79 1.55c0 .835.526 1.318 1.322 1.318.846 0 1.318-.48 1.318-1.31 0-.818-.43-1.333-1.315-1.333-.893.002-1.328.552-1.327 1.325zm10.976 2.41c0 .58.153.752.44.862l-.134.403c-.46-.094-.73-.324-.813-.872-.372.588-.923.873-1.62.873-1.017 0-1.624-.627-1.624-1.56 0-1.096.832-1.694 2.17-1.694h1v-.5c0-.824-.34-1.197-1.21-1.197-.427 0-.9.11-1.42.3l-.15-.445c.577-.223 1.097-.35 1.65-.35 1.185 0 1.71.59 1.71 1.657V791.146zm-.58-.14v-1.42h-.915c-1.046 0-1.64.41-1.64 1.243 0 .717.408 1.12 1.1 1.12.672 0 1.13-.34 1.455-.944zm8.748-3.508l-.296.386c-.333-.28-.68-.42-1.158-.42-.95 0-1.612.748-1.612 2.254 0 1.494.657 2.19 1.607 2.19.48 0 .84-.162 1.2-.457l.29.406c-.415.353-.91.56-1.5.56-1.348 0-2.22-.99-2.22-2.688 0-1.686.862-2.76 2.21-2.76.585 0 1.03.154 1.478.53zm5.33 2.18c0 1.685-.843 2.736-2.217 2.736-1.39 0-2.21-1.04-2.21-2.716 0-1.68.85-2.73 2.223-2.73 1.382 0 2.206 1.002 2.205 2.71zm-2.208-2.224c-.994 0-1.604.744-1.604 2.244 0 1.462.59 2.228 1.595 2.228 1 0 1.603-.754 1.603-2.25 0-1.472-.585-2.222-1.593-2.222zm10.36 1.116v3.733h-.58v-3.652c0-.853-.35-1.21-.888-1.21-.63 0-1.07.44-1.47 1.077v3.787h-.58v-3.652c0-.854-.345-1.21-.887-1.21-.63 0-1.076.44-1.47 1.077v3.785h-.58v-5.23h.5l.054.885c.386-.59.93-.992 1.603-.992.67 0 1.134.386 1.294 1.04.4-.617.95-1.04 1.642-1.04.845 0 1.36.61 1.36 1.604v-.002zm6.132 1.096c0 1.654-.688 2.748-1.987 2.748-.654 0-1.163-.297-1.49-.72v2.58l-.58.08v-7.278h.5l.046.763c.385-.534.94-.874 1.61-.874 1.293 0 1.903 1.008 1.902 2.7zm-.616 0c0-1.484-.477-2.216-1.387-2.216-.67 0-1.113.397-1.474.9v2.777c.323.482.787.793 1.384.793.956.003 1.476-.76 1.476-2.254zm5.624 1.48c0 .58.153.752.44.862l-.134.403c-.46-.094-.73-.324-.813-.872-.372.588-.923.873-1.62.873-1.017 0-1.624-.627-1.624-1.56 0-1.096.832-1.694 2.17-1.694h1v-.5c0-.824-.342-1.197-1.21-1.197-.427 0-.9.11-1.418.3l-.153-.445c.576-.223 1.096-.35 1.647-.35 1.187 0 1.712.59 1.712 1.657V791.146zm-.58-.14v-1.42h-.914c-1.046 0-1.64.41-1.64 1.243 0 .717.408 1.12 1.1 1.12.67 0 1.13-.34 1.454-.944zm5.637-3.456l-.28.39c-.453-.334-.84-.49-1.37-.49-.692 0-1.16.338-1.16.878 0 .518.334.744 1.266.992 1.148.3 1.683.686 1.683 1.577 0 .968-.845 1.518-1.887 1.518-.854 0-1.42-.29-1.876-.674l.33-.37c.438.357.89.56 1.535.56.754 0 1.29-.366 1.29-.99 0-.643-.295-.876-1.38-1.167-1.118-.293-1.567-.706-1.567-1.44 0-.795.755-1.36 1.746-1.36.666-.005 1.172.193 1.667.577zm4.64 0l-.28.39c-.454-.334-.84-.49-1.37-.49-.693 0-1.16.338-1.16.878 0 .518.333.744 1.265.992 1.148.3 1.683.686 1.683 1.577 0 .968-.845 1.518-1.887 1.518-.853 0-1.42-.29-1.874-.674l.33-.37c.437.357.89.56 1.535.56.753 0 1.287-.366 1.287-.99 0-.643-.293-.876-1.378-1.167-1.12-.293-1.567-.706-1.567-1.44 0-.795.755-1.36 1.746-1.36.665-.003 1.17.195 1.665.58v-.003zm7.75-.052l-.296.386c-.33-.28-.68-.42-1.156-.42-.95 0-1.612.748-1.612 2.254 0 1.494.658 2.19 1.608 2.19.483 0 .843-.162 1.2-.457l.293.406c-.414.353-.91.56-1.5.56-1.347 0-2.22-.99-2.22-2.688 0-1.686.863-2.76 2.21-2.76.586 0 1.032.153 1.478.53h-.003zm4.593 4.807l-.038-.93c-.362.624-.9 1.04-1.71 1.04-.93 0-1.475-.57-1.475-1.6v-3.74h.58v3.685c0 .83.35 1.176 1.034 1.176.688 0 1.166-.445 1.53-1.067v-3.79h.58v5.228h-.5v-.003zm4.995-.218c-.317.207-.675.327-1.104.327-.79 0-1.276-.465-1.276-1.38v-3.49h-.88v-.468h.88v-1.25l.58-.065v1.317h1.348l-.073.468h-1.276v3.462c0 .606.236.91.767.91.29 0 .54-.085.8-.24l.235.41zm3.41 0c-.317.207-.675.327-1.103.327-.79 0-1.277-.465-1.277-1.38v-3.49h-.88v-.468h.88v-1.25l.58-.065v1.317h1.348l-.073.468h-1.275v3.462c0 .606.236.91.767.91.29 0 .538-.085.798-.24l.235.41zm4.64-2.593c0 .164-.01.322-.02.426h-3.492c.074 1.413.736 2.002 1.63 2.002.57 0 .954-.173 1.41-.515l.272.37c-.487.396-1.016.637-1.713.637-1.37 0-2.214-1.002-2.214-2.677 0-1.672.813-2.77 2.09-2.77 1.354 0 2.038.99 2.038 2.527zm-.574-.182c0-1.135-.457-1.862-1.44-1.862-.813 0-1.436.604-1.497 2.02h2.94v-.157h-.002zm4.272-2.345c.208 0 .387.025.52.06l-.11.556c-.143-.04-.28-.06-.46-.06-.724 0-1.122.522-1.395 1.603v3.18h-.58v-5.23h.5l.045 1.173c.282-.86.758-1.282 1.48-1.283zm1.456 4.97c0 .17-.06.346-.147.548l-.56 1.33h-.422l.4-1.473c-.143-.08-.225-.23-.225-.404 0-.265.2-.476.476-.476.283 0 .48.212.478.476zm7.68-4.44l-.297.387c-.33-.28-.68-.42-1.156-.42-.95 0-1.612.748-1.612 2.254 0 1.494.658 2.19 1.608 2.19.483 0 .843-.162 1.2-.457l.292.406c-.415.353-.912.56-1.5.56-1.348 0-2.222-.99-2.222-2.688 0-1.686.864-2.76 2.21-2.76.587 0 1.033.153 1.48.53h-.003zm5.027 1.997c0 .164-.01.322-.02.426h-3.493c.074 1.413.736 2.002 1.63 2.002.57 0 .954-.173 1.41-.515l.272.37c-.487.396-1.016.637-1.713.637-1.37 0-2.212-1.002-2.212-2.677 0-1.672.813-2.77 2.09-2.77 1.354 0 2.038.99 2.037 2.527zm-.575-.182c0-1.135-.46-1.862-1.442-1.862-.813 0-1.436.604-1.497 2.02h2.94v-.158zm6.012-.742v3.733h-.58v-3.652c0-.864-.347-1.21-.983-1.21-.718 0-1.2.44-1.627 1.077v3.787h-.58v-5.23h.5l.054.894c.416-.596 1-1 1.754-1 .957 0 1.46.594 1.462 1.602zm4.453 3.517c-.317.207-.675.327-1.103.327-.79 0-1.277-.465-1.277-1.38v-3.49h-.88v-.468h.88v-1.25l.58-.065v1.317h1.348l-.073.468h-1.275v3.462c0 .606.236.91.767.91.29 0 .538-.085.798-.24l.235.41zm4.64-2.593c0 .164-.01.322-.02.426h-3.493c.074 1.413.736 2.002 1.63 2.002.57 0 .954-.173 1.41-.515l.272.37c-.487.396-1.016.637-1.713.637-1.37 0-2.212-1.002-2.212-2.677 0-1.672.813-2.77 2.09-2.77 1.354 0 2.038.99 2.038 2.526zm-.575-.182c0-1.135-.46-1.862-1.442-1.862-.813 0-1.436.604-1.497 2.02h2.94v-.158zm4.272-2.345c.208 0 .387.025.52.06l-.11.556c-.143-.04-.28-.06-.46-.06-.724 0-1.122.522-1.395 1.603v3.18h-.58v-5.23h.5l.045 1.173c.282-.86.758-1.282 1.48-1.283zm5.218-1.77c0 .23-.17.416-.44.416-.26 0-.43-.186-.43-.415 0-.234.17-.42.43-.42.27 0 .44.186.44.42zm-.724 7.108v-5.23h.58v5.23h-.58zm5.078-.218c-.317.207-.675.327-1.104.327-.79 0-1.275-.465-1.275-1.38v-3.49h-.88v-.468h.88v-1.25l.58-.065v1.317h1.348l-.073.468h-1.276v3.462c0 .606.236.91.767.91.29 0 .54-.085.8-.24l.234.41zm7.832-2.41c0 1.686-.843 2.737-2.217 2.737-1.39 0-2.213-1.04-2.213-2.716 0-1.68.848-2.73 2.222-2.73 1.382 0 2.205 1.002 2.206 2.71zm-2.207-2.223c-.996 0-1.606.744-1.606 2.244 0 1.462.59 2.228 1.595 2.228 1 0 1.6-.754 1.6-2.25 0-1.472-.585-2.222-1.59-2.222zm7.672 1.116v3.733h-.58v-3.652c0-.864-.347-1.21-.983-1.21-.718 0-1.2.44-1.627 1.077v3.787h-.58v-5.23h.5l.054.894c.416-.596 1-1 1.754-1 .956 0 1.46.594 1.462 1.602zm7.242 3.517c-.317.207-.675.327-1.104.327-.79 0-1.276-.465-1.276-1.38v-3.49h-.88v-.468h.88v-1.25l.58-.065v1.317h1.348l-.073.468h-1.277v3.462c0 .606.236.91.767.91.29 0 .54-.085.8-.24l.234.41zm4.798-3.517v3.733h-.58v-3.652c0-.853-.356-1.21-.988-1.21-.707 0-1.193.44-1.62 1.072v3.792h-.58v-7.354l.58-.073v3.07c.423-.59.988-.98 1.73-.98.943 0 1.458.61 1.458 1.603zm5.782.924c0 .164-.01.322-.02.426h-3.493c.076 1.413.738 2.002 1.633 2.002.57 0 .953-.173 1.408-.515l.274.37c-.487.396-1.016.637-1.713.637-1.37 0-2.213-1.002-2.213-2.677 0-1.672.813-2.77 2.09-2.77 1.354 0 2.038.99 2.037 2.527zm-.575-.182c0-1.135-.46-1.862-1.444-1.862-.812 0-1.436.604-1.497 2.02h2.94v-.158zm7.414 2.775c-.317.207-.675.327-1.103.327-.79 0-1.275-.465-1.275-1.38v-3.49h-.88v-.468h.88v-1.25l.58-.065v1.317h1.348l-.073.468h-1.276v3.462c0 .606.236.91.767.91.29 0 .54-.085.8-.24l.234.41zm1.756-6.89c0 .23-.17.416-.44.416-.26 0-.43-.186-.43-.415 0-.234.17-.42.43-.42.27 0 .44.186.44.42zm-.725 7.108v-5.23h.58v5.23h-.58zm6.465-3.735v3.733h-.58v-3.652c0-.864-.346-1.21-.982-1.21-.716 0-1.198.44-1.625 1.077v3.787h-.58v-5.23h.5l.054.894c.416-.596 1-1 1.754-1 .957 0 1.46.594 1.46 1.602zm3.64 3.76c-.387 1.135-.858 1.77-2.13 2.016l-.068-.456c1.053-.252 1.31-.667 1.647-1.585h-.208l-1.812-5.23h.624l1.584 4.8 1.544-4.8h.615l-1.797 5.255zm9.537-.025h-.508l-.064-.796c-.305.514-.814.903-1.575.903-1.212 0-1.955-1.04-1.955-2.7 0-1.61.77-2.747 2.052-2.747.715 0 1.164.342 1.47.71v-2.802l.58.07v7.36zm-.58-1.342v-2.723c-.314-.445-.732-.79-1.373-.79-.916 0-1.537.79-1.53 2.253.004 1.46.548 2.228 1.434 2.228.698 0 1.11-.35 1.47-.967zm6.608-1.286c0 1.686-.843 2.737-2.217 2.737-1.39 0-2.21-1.04-2.21-2.716 0-1.68.847-2.73 2.22-2.73 1.384 0 2.207 1.002 2.207 2.71zm-2.207-2.223c-.994 0-1.604.744-1.604 2.244 0 1.462.59 2.228 1.595 2.228 1 0 1.6-.754 1.6-2.25 0-1.472-.586-2.222-1.592-2.222zm6.285 4.633c-.317.207-.675.327-1.103.327-.79 0-1.277-.465-1.277-1.38v-3.49h-.88v-.468h.88v-1.25l.58-.065v1.317h1.348l-.07.468h-1.276v3.462c0 .606.236.91.768.91.29 0 .538-.085.798-.24l.233.41zm3.98-4.537l-.28.39c-.452-.334-.84-.49-1.37-.49-.69 0-1.16.338-1.16.878 0 .518.335.744 1.267.992 1.148.3 1.683.686 1.683 1.577 0 .968-.845 1.518-1.887 1.518-.852 0-1.42-.29-1.874-.674l.33-.37c.437.357.89.56 1.535.56.755 0 1.29-.366 1.29-.99 0-.643-.294-.876-1.38-1.167-1.117-.293-1.566-.706-1.566-1.44 0-.795.757-1.36 1.748-1.36.667-.005 1.173.193 1.666.577zm8.492 2.127c0 1.686-.843 2.737-2.217 2.737-1.39 0-2.21-1.04-2.21-2.716 0-1.68.847-2.73 2.22-2.73 1.384 0 2.207 1.002 2.207 2.71zm-2.207-2.223c-.994 0-1.604.744-1.604 2.244 0 1.462.59 2.228 1.595 2.228 1 0 1.6-.754 1.6-2.25-.003-1.472-.587-2.222-1.592-2.222zM294 788.57v3.733h-.58v-3.652c0-.864-.346-1.21-.982-1.21-.716 0-1.198.44-1.625 1.077v3.787h-.58v-5.23h.5l.054.894c.416-.596 1-1 1.754-1 .957 0 1.46.594 1.46 1.602zm7.243 3.517c-.317.207-.675.327-1.104.327-.79 0-1.277-.465-1.277-1.38v-3.49h-.88v-.468h.88v-1.25l.58-.065v1.317h1.348l-.07.468h-1.275v3.462c0 .606.235.91.767.91.29 0 .538-.085.798-.24l.233.41zm4.797-3.517v3.733h-.58v-3.652c0-.853-.354-1.21-.987-1.21-.707 0-1.192.44-1.62 1.072v3.792h-.58v-7.354l.58-.073v3.07c.424-.59.988-.98 1.73-.98.943 0 1.458.61 1.457 1.603zm5.783.924c0 .164-.01.322-.02.426h-3.493c.073 1.413.735 2.002 1.63 2.002.57 0 .954-.173 1.41-.515l.27.37c-.486.396-1.016.637-1.712.637-1.372 0-2.215-1.002-2.215-2.677 0-1.672.812-2.77 2.09-2.77 1.355 0 2.04.99 2.04 2.527zm-.575-.182c0-1.135-.46-1.862-1.442-1.862-.812 0-1.436.604-1.497 2.02h2.937v-.158zm8.306-1.814l-.296.386c-.333-.28-.68-.42-1.158-.42-.95 0-1.61.748-1.61 2.254 0 1.494.655 2.19 1.605 2.19.483 0 .843-.162 1.2-.457l.292.406c-.415.353-.912.56-1.5.56-1.348 0-2.222-.99-2.222-2.688 0-1.686.863-2.76 2.21-2.76.588 0 1.033.154 1.48.53zm2.146-2.3c0 .23-.17.415-.44.415-.26 0-.43-.186-.43-.415 0-.234.17-.42.43-.42.27 0 .44.186.44.42zm-.726 7.107v-5.23h.58v5.23h-.58zm4.726-5.338c.208 0 .387.025.52.06l-.11.556c-.143-.04-.28-.06-.46-.06-.724 0-1.12.522-1.395 1.603v3.18h-.58v-5.23h.5l.045 1.173c.282-.86.76-1.282 1.48-1.283zm4.874.53l-.296.387c-.333-.28-.68-.42-1.158-.42-.95 0-1.612.748-1.612 2.254 0 1.494.657 2.19 1.607 2.19.482 0 .843-.162 1.2-.457l.293.406c-.415.353-.912.56-1.5.56-1.35 0-2.223-.99-2.223-2.688 0-1.686.864-2.76 2.21-2.76.59 0 1.033.154 1.48.53zm1.95 3.907c0 .346.115.513.43.513.122 0 .243-.025.353-.07l.158.427c-.184.087-.4.142-.62.142-.565 0-.9-.323-.9-1.006v-6.463l.578-.07v6.527zm5.92-1.91c0 .164-.012.322-.022.426h-3.493c.073 1.413.735 2.002 1.63 2.002.57 0 .953-.173 1.41-.515l.27.37c-.486.396-1.015.637-1.712.637-1.372 0-2.215-1.002-2.215-2.677 0-1.672.812-2.77 2.09-2.77 1.355 0 2.038.99 2.04 2.527zm-.576-.182c0-1.135-.46-1.862-1.442-1.862-.812 0-1.436.604-1.497 2.02h2.937v-.158zm-307.47 12.444l-1.75 2.16-.55-.38 1.35-2.1-1.35-2.1.55-.38 1.75 2.17v.63zm2.26 0l-1.75 2.16-.55-.38 1.35-2.1-1.35-2.1.55-.38 1.75 2.17v.63zm7.432 2.55l-.037-.93c-.36.623-.9 1.04-1.71 1.04-.93 0-1.475-.57-1.475-1.602v-3.74h.58v3.686c0 .83.35 1.176 1.034 1.176.685 0 1.164-.445 1.527-1.067v-3.79h.58v5.228h-.5v-.003zm5.568-4.756l-.28.39c-.453-.334-.84-.49-1.37-.49-.692 0-1.16.338-1.16.878 0 .518.334.744 1.266.992 1.147.3 1.683.686 1.683 1.577 0 .968-.845 1.518-1.887 1.518-.85 0-1.42-.29-1.874-.674l.33-.37c.437.357.888.56 1.535.56.757 0 1.29-.366 1.29-.99 0-.643-.292-.876-1.377-1.167-1.118-.293-1.567-.706-1.567-1.44 0-.795.755-1.36 1.746-1.36.667-.003 1.174.195 1.668.58l-.002-.003zm5.4 1.944c0 .164-.01.322-.02.426h-3.494c.074 1.413.736 2.002 1.63 2.002.57 0 .954-.173 1.41-.515l.272.37c-.487.396-1.016.637-1.713.637-1.37 0-2.214-1.002-2.214-2.677 0-1.672.81-2.77 2.09-2.77 1.352 0 2.036.99 2.037 2.527zm-.576-.182c0-1.135-.46-1.862-1.442-1.862-.813 0-1.436.604-1.497 2.02h2.94v-.158zm7.414 2.775c-.317.207-.675.327-1.103.327-.79 0-1.277-.465-1.277-1.38v-3.49h-.88v-.468h.88v-1.25l.58-.065v1.317h1.348l-.073.468h-1.273v3.462c0 .606.236.91.767.91.29 0 .538-.085.798-.24l.236.41h-.002zm4.798-3.517v3.733h-.58v-3.652c0-.853-.356-1.21-.988-1.21-.707 0-1.193.44-1.62 1.072v3.792h-.58v-7.354l.58-.073v3.07c.423-.59.988-.98 1.73-.98.943 0 1.458.61 1.458 1.603zm5.783.924c0 .164-.01.322-.02.426h-3.493c.074 1.413.736 2.002 1.63 2.002.57 0 .954-.173 1.41-.515l.272.37c-.487.396-1.016.637-1.713.637-1.37 0-2.214-1.002-2.214-2.677 0-1.672.81-2.77 2.09-2.77 1.352 0 2.036.99 2.037 2.527zm-.575-.182c0-1.135-.46-1.862-1.442-1.862-.813 0-1.436.604-1.497 2.02h2.94v-.158zm5.565 2.092c0 .346.117.513.43.513.123 0 .244-.025.355-.07l.158.427c-.184.087-.4.142-.62.142-.566 0-.902-.323-.902-1.006v-6.463l.58-.07v6.527zm3.035-6.206c0 .23-.17.415-.44.415-.26 0-.43-.186-.43-.415 0-.234.17-.42.43-.42.27 0 .44.186.44.42zm-.725 7.107v-5.23h.58v5.23h-.58zm6.467-3.735v3.733h-.58v-3.652c0-.864-.347-1.21-.983-1.21-.714 0-1.196.44-1.623 1.077v3.787h-.58v-5.23h.5l.054.894c.417-.596 1-1 1.755-1 .955 0 1.46.594 1.46 1.602zm5.782.924c0 .164-.01.322-.02.426h-3.493c.074 1.413.736 2.002 1.63 2.002.57 0 .954-.173 1.41-.515l.272.37c-.487.396-1.016.637-1.713.637-1.37 0-2.214-1.002-2.214-2.677 0-1.672.813-2.77 2.09-2.77 1.354 0 2.038.99 2.038 2.527zm-.575-.182c0-1.135-.457-1.862-1.44-1.862-.812 0-1.436.604-1.497 2.02h2.94v-.157h-.002zm5.197-1.762l-.28.39c-.453-.334-.84-.49-1.37-.49-.692 0-1.16.338-1.16.878 0 .518.334.744 1.266.992 1.148.3 1.683.686 1.683 1.577 0 .968-.845 1.518-1.887 1.518-.853 0-1.42-.29-1.876-.674l.33-.37c.437.357.888.56 1.535.56.754 0 1.29-.366 1.29-.99 0-.643-.295-.876-1.38-1.167-1.118-.293-1.567-.706-1.567-1.44 0-.795.755-1.36 1.746-1.36.665-.005 1.172.193 1.667.577zm6.86 4.537c-.318.207-.676.327-1.104.327-.79 0-1.277-.465-1.277-1.38v-3.49h-.88v-.468h.88v-1.25l.58-.065v1.317h1.348l-.073.468h-1.273v3.462c0 .606.236.91.767.91.29 0 .538-.085.798-.24l.236.41h-.002zm4.94-2.41c0 1.686-.842 2.737-2.216 2.737-1.39 0-2.21-1.04-2.21-2.716 0-1.68.85-2.73 2.223-2.73 1.383 0 2.206 1.002 2.205 2.71zm-2.207-2.223c-.994 0-1.604.744-1.604 2.244 0 1.462.59 2.228 1.595 2.228 1 0 1.603-.754 1.603-2.25 0-1.472-.585-2.222-1.593-2.222zm7.333-1.218v.84h1.378l-.07.468h-1.306v4.76h-.58v-4.76h-.907v-.468h.907v-.856c0-.825.547-1.345 1.452-1.345.45 0 .834.1 1.215.28l-.195.435c-.34-.156-.66-.228-.985-.228-.597 0-.907.26-.907.874zm6.485 3.44c0 1.687-.843 2.738-2.217 2.738-1.39 0-2.21-1.04-2.21-2.716 0-1.68.85-2.73 2.223-2.73 1.382 0 2.206 1.002 2.205 2.71zm-2.208-2.222c-.994 0-1.604.744-1.604 2.244 0 1.462.59 2.228 1.595 2.228 1 0 1.603-.754 1.603-2.25 0-1.472-.585-2.222-1.593-2.222zm4.437 3.95c0 .346.117.513.43.513.123 0 .244-.025.355-.07l.158.427c-.184.087-.4.142-.62.142-.566 0-.902-.323-.902-1.006v-6.463l.58-.07v6.527zm5.943.9h-.51l-.06-.795c-.305.514-.815.903-1.575.903-1.213 0-1.956-1.04-1.956-2.7 0-1.61.767-2.747 2.05-2.747.715 0 1.164.342 1.47.71v-2.802l.58.07v7.36zm-.58-1.34v-2.724c-.315-.445-.733-.79-1.374-.79-.916 0-1.537.79-1.53 2.253.004 1.46.548 2.228 1.434 2.228.698 0 1.11-.35 1.47-.967zm7.866 1.123c-.317.207-.675.327-1.103.327-.79 0-1.277-.465-1.277-1.38v-3.49h-.88v-.468h.88v-1.25l.58-.065v1.317h1.348l-.073.468h-1.273v3.462c0 .606.236.91.767.91.29 0 .538-.085.798-.24l.236.41h-.002zm4.797-3.517v3.733h-.58v-3.652c0-.853-.356-1.21-.988-1.21-.707 0-1.193.44-1.62 1.072v3.792h-.58v-7.354l.58-.073v3.07c.423-.59.988-.98 1.73-.98.943 0 1.458.61 1.458 1.603zm5.783.924c0 .164-.01.322-.02.426h-3.493c.074 1.413.736 2.002 1.63 2.002.57 0 .954-.173 1.41-.515l.272.37c-.487.396-1.016.637-1.713.637-1.37 0-2.214-1.002-2.214-2.677 0-1.672.813-2.77 2.09-2.77 1.354 0 2.038.99 2.038 2.527zm-.575-.182c0-1.135-.457-1.862-1.44-1.862-.813 0-1.436.604-1.497 2.02h2.94v-.157h-.002zm7.415 2.775c-.317.207-.675.327-1.103.327-.79 0-1.277-.465-1.277-1.38v-3.49h-.88v-.468h.88v-1.25l.58-.065v1.317h1.348l-.073.468h-1.275v3.462c0 .606.236.91.767.91.29 0 .538-.085.798-.24l.235.41zm1.755-6.89c0 .23-.17.416-.44.416-.26 0-.43-.186-.43-.415 0-.234.17-.42.43-.42.27 0 .44.186.44.42zm-.724 7.108v-5.23h.58v5.23h-.58zm6.754-2.64c0 1.655-.687 2.75-1.986 2.75-.654 0-1.163-.298-1.49-.72v2.58l-.58.08v-7.28h.5l.046.764c.383-.534.937-.874 1.61-.874 1.29 0 1.9 1.008 1.9 2.7zm-.616 0c0-1.483-.477-2.215-1.387-2.215-.67 0-1.11.397-1.472.9v2.777c.323.482.787.793 1.384.793.953.003 1.473-.76 1.474-2.254zm9.173.012c0 1.686-.843 2.737-2.217 2.737-1.39 0-2.21-1.04-2.21-2.716 0-1.68.847-2.73 2.22-2.73 1.384 0 2.207 1.002 2.207 2.71zm-2.208-2.223c-.996 0-1.606.744-1.606 2.244 0 1.462.59 2.228 1.595 2.228 1 0 1.6-.754 1.6-2.25 0-1.472-.585-2.222-1.59-2.222zm4.543-1.218v.84h1.378l-.07.468h-1.306v4.76h-.58v-4.76h-.907v-.468h.907v-.856c0-.825.547-1.345 1.452-1.345.45 0 .834.1 1.215.28l-.195.435c-.34-.156-.66-.228-.985-.228-.598 0-.907.26-.907.874zm9.073 3.258c0 .164-.01.322-.02.426h-3.493c.074 1.413.736 2.002 1.63 2.002.57 0 .954-.173 1.41-.515l.272.37c-.487.396-1.016.637-1.713.637-1.37 0-2.214-1.002-2.214-2.677 0-1.672.813-2.77 2.09-2.77 1.353 0 2.037.99 2.038 2.527zm-.576-.182c0-1.135-.46-1.862-1.442-1.862-.813 0-1.436.604-1.497 2.02h2.94v-.158zm5.498 1.834c0 .58.154.752.44.862l-.133.403c-.46-.094-.73-.324-.814-.872-.37.588-.92.873-1.62.873-1.015 0-1.622-.627-1.622-1.56 0-1.096.833-1.694 2.17-1.694h1v-.5c0-.824-.34-1.197-1.208-1.197-.43 0-.902.11-1.42.3l-.153-.445c.578-.223 1.098-.35 1.65-.35 1.186 0 1.71.59 1.71 1.657V803.146zm-.58-.14v-1.42h-.914c-1.046 0-1.64.41-1.64 1.243 0 .717.408 1.12 1.1 1.12.672 0 1.13-.34 1.454-.944zm5.958-3.508l-.296.386c-.333-.28-.68-.42-1.158-.42-.95 0-1.612.748-1.612 2.254 0 1.494.657 2.19 1.607 2.19.483 0 .843-.162 1.2-.457l.293.406c-.415.353-.912.56-1.5.56-1.348 0-2.222-.99-2.222-2.688 0-1.686.864-2.76 2.21-2.76.587 0 1.033.154 1.478.53zm5.186 1.072v3.733h-.58v-3.652c0-.853-.356-1.21-.988-1.21-.707 0-1.193.44-1.62 1.072v3.792h-.58v-7.354l.58-.073v3.07c.423-.59.988-.98 1.73-.98.944 0 1.458.61 1.458 1.603zm9.37 3.7c-.184.09-.4.144-.62.144-.566 0-.902-.323-.902-1.006v-5.824c-.472-.152-.84-.222-1.33-.222-.703 0-1.017.26-1.017.874v.84h1.378l-.07.47h-1.306v4.76h-.58v-4.76h-.86v-.47h.86v-.856c0-.825.537-1.345 1.553-1.345.533 0 .906.084 1.374.23l.58-.07v6.37c0 .347.118.514.43.514.124 0 .244-.026.354-.07l.158.42zm4.625-1.124c0 .58.154.752.44.862l-.133.403c-.46-.094-.73-.324-.814-.872-.372.588-.923.873-1.62.873-1.017 0-1.624-.627-1.624-1.56 0-1.096.833-1.694 2.17-1.694h1v-.5c0-.824-.34-1.197-1.208-1.197-.428 0-.9.11-1.42.3l-.152-.445c.578-.223 1.098-.35 1.65-.35 1.186 0 1.71.59 1.71 1.657V803.146zm-.58-.14v-1.42h-.913c-1.046 0-1.64.41-1.64 1.243 0 .717.408 1.12 1.1 1.12.67 0 1.13-.34 1.453-.944zm6.743-1.34c0 1.654-.687 2.748-1.986 2.748-.654 0-1.163-.297-1.49-.72v2.58l-.58.08v-7.278h.5l.046.763c.383-.534.937-.874 1.61-.874 1.29 0 1.9 1.008 1.9 2.7zm-.616 0c0-1.484-.477-2.216-1.387-2.216-.67 0-1.11.397-1.472.9v2.777c.323.482.787.793 1.384.793.953.003 1.473-.76 1.474-2.254zm-181.317 12.09l-1.75 2.16-.55-.38 1.35-2.1-1.35-2.1.55-.38 1.75 2.17v.63zm2.26 0l-1.75 2.16-.55-.38 1.35-2.1-1.35-2.1.55-.38 1.75 2.17v.63zm6.64 2.33c-.317.208-.675.328-1.103.328-.79 0-1.277-.465-1.277-1.38v-3.49h-.88v-.468h.88v-1.25l.58-.065v1.317h1.348l-.073.468h-1.275v3.462c0 .606.236.91.767.91.29 0 .538-.085.798-.24l.235.41zm4.797-3.516v3.733h-.58v-3.652c0-.853-.356-1.21-.988-1.21-.707 0-1.193.44-1.62 1.072v3.792h-.58v-7.354l.58-.073v3.07c.423-.59.988-.98 1.73-.98.944 0 1.458.61 1.458 1.603zm5.783.924c0 .164-.01.322-.02.426h-3.493c.074 1.413.736 2.002 1.63 2.002.57 0 .954-.173 1.41-.515l.27.37c-.486.396-1.015.637-1.712.637-1.37 0-2.214-1.002-2.214-2.677 0-1.672.812-2.77 2.09-2.77 1.354 0 2.037.99 2.04 2.527zm-.575-.182c0-1.135-.46-1.862-1.442-1.862-.813 0-1.436.604-1.497 2.02h2.94v-.158zm5.76-4.114c0 .23-.17.415-.44.415-.26 0-.43-.186-.43-.415 0-.234.17-.42.43-.42.27 0 .44.186.44.42zm-.725 7.107v-5.23h.58v5.23h-.58zm6.467-3.735v3.733h-.58v-3.652c0-.864-.347-1.21-.983-1.21-.714 0-1.196.44-1.623 1.077v3.787h-.58v-5.23h.5l.054.894c.417-.596 1-1 1.755-1 .955 0 1.46.595 1.46 1.604v-.002zm5.84 0v3.733h-.58v-3.652c0-.864-.347-1.21-.983-1.21-.714 0-1.196.44-1.623 1.077v3.787h-.58v-5.23h.5l.054.894c.417-.596 1-1 1.755-1 .955 0 1.46.594 1.46 1.602zm5.783.924c0 .164-.01.322-.02.426h-3.493c.074 1.413.736 2.002 1.63 2.002.57 0 .954-.173 1.41-.515l.272.37c-.487.396-1.016.637-1.713.637-1.37 0-2.214-1.002-2.214-2.677 0-1.672.81-2.77 2.09-2.77 1.352 0 2.035.99 2.037 2.527zm-.575-.182c0-1.135-.46-1.862-1.442-1.862-.813 0-1.436.604-1.497 2.02h2.94v-.158zm4.27-2.345c.21 0 .388.025.52.06l-.11.556c-.142-.04-.28-.06-.46-.06-.723 0-1.12.522-1.395 1.603v3.18h-.58v-5.23h.5l.045 1.173c.283-.86.76-1.282 1.48-1.283zm4.876.53l-.296.387c-.333-.28-.68-.42-1.158-.42-.95 0-1.612.748-1.612 2.254 0 1.494.657 2.19 1.607 2.19.48 0 .84-.162 1.2-.457l.29.406c-.414.353-.91.56-1.5.56-1.347 0-2.22-.99-2.22-2.688 0-1.686.863-2.76 2.21-2.76.586 0 1.03.154 1.478.53zm2.145-2.3c0 .23-.17.416-.44.416-.26 0-.43-.186-.43-.415 0-.234.17-.42.43-.42.27 0 .44.186.44.42zm-.726 7.108v-5.23h.58v5.23h-.58zm4.726-5.338c.208 0 .387.025.52.06l-.11.556c-.143-.04-.28-.06-.46-.06-.724 0-1.122.522-1.395 1.603v3.18h-.58v-5.23h.5l.045 1.173c.282-.86.758-1.282 1.48-1.283zm4.875.53l-.296.387c-.333-.28-.68-.42-1.158-.42-.95 0-1.612.748-1.612 2.254 0 1.494.657 2.19 1.607 2.19.48 0 .84-.162 1.2-.457l.29.406c-.414.353-.91.56-1.5.56-1.347 0-2.22-.99-2.22-2.688 0-1.686.863-2.76 2.21-2.76.585 0 1.03.154 1.478.53zm1.95 3.907c0 .346.116.513.43.513.122 0 .243-.025.354-.07l.158.427c-.184.087-.4.142-.62.142-.566 0-.902-.323-.902-1.006v-6.463l.58-.07v6.527zm5.92-1.91c0 .164-.01.322-.02.426h-3.494c.074 1.413.736 2.002 1.63 2.002.57 0 .954-.173 1.41-.515l.272.37c-.487.396-1.016.637-1.713.637-1.37 0-2.214-1.002-2.214-2.677 0-1.672.81-2.77 2.09-2.77 1.352 0 2.035.99 2.037 2.527zm-.576-.182c0-1.135-.46-1.862-1.442-1.862-.813 0-1.436.604-1.497 2.02h2.94v-.158zm5.76-4.114c0 .23-.17.415-.44.415-.26 0-.43-.186-.43-.415 0-.234.17-.42.43-.42.27 0 .44.186.44.42zm-.725 7.107v-5.23h.58v5.23h-.58zm5.65-4.755l-.28.39c-.453-.334-.84-.49-1.37-.49-.692 0-1.16.338-1.16.878 0 .518.334.744 1.266.992 1.148.3 1.683.686 1.683 1.577 0 .968-.845 1.518-1.887 1.518-.853 0-1.42-.29-1.876-.674l.33-.37c.437.357.888.56 1.535.56.754 0 1.29-.366 1.29-.99 0-.643-.295-.876-1.38-1.167-1.118-.293-1.567-.706-1.567-1.44 0-.795.755-1.36 1.746-1.36.665-.005 1.17.193 1.667.577zm8.49 2.127c0 1.686-.843 2.737-2.217 2.737-1.39 0-2.21-1.04-2.21-2.716 0-1.68.847-2.73 2.22-2.73 1.384 0 2.207 1.002 2.207 2.71zm-2.207-2.223c-.994 0-1.604.744-1.604 2.244 0 1.462.59 2.228 1.595 2.228 1 0 1.603-.754 1.603-2.25 0-1.472-.585-2.222-1.593-2.222zm7.673 1.116v3.733h-.58v-3.652c0-.864-.347-1.21-.983-1.21-.716 0-1.198.44-1.625 1.077v3.787h-.58v-5.23h.5l.054.894c.414-.596 1-1 1.752-1 .955 0 1.46.594 1.46 1.602zm2.603 2.834c0 .346.117.513.43.513.123 0 .244-.025.355-.07l.16.427c-.184.087-.4.142-.62.142-.566 0-.9-.323-.9-1.006v-6.463l.58-.07v6.527h-.004zm3.976.926c-.387 1.135-.858 1.77-2.13 2.016l-.068-.456c1.053-.252 1.31-.667 1.647-1.585h-.204l-1.812-5.23h.623l1.584 4.8 1.545-4.8h.615l-1.798 5.255zm9.056-1.184c0 .58.154.752.44.862l-.133.403c-.46-.094-.73-.324-.814-.872-.37.588-.92.873-1.62.873-1.015 0-1.622-.627-1.622-1.56 0-1.096.833-1.694 2.17-1.694h1v-.5c0-.824-.34-1.197-1.208-1.197-.43 0-.902.11-1.42.3l-.153-.445c.578-.223 1.098-.35 1.65-.35 1.186 0 1.71.59 1.71 1.657V815.146zm-.58-.14v-1.42h-.913c-1.046 0-1.64.41-1.64 1.243 0 .717.408 1.12 1.1 1.12.67 0 1.13-.34 1.453-.944zm7.504-4.04c.208 0 .387.026.52.062l-.11.555c-.142-.04-.28-.06-.46-.06-.723 0-1.12.522-1.394 1.603v3.18h-.58v-5.23h.5l.045 1.173c.28-.86.757-1.282 1.48-1.283zm5.314 2.528c0 .164-.01.322-.02.426h-3.493c.074 1.413.736 2.002 1.63 2.002.57 0 .954-.173 1.41-.515l.272.37c-.487.396-1.016.637-1.713.637-1.37 0-2.214-1.002-2.214-2.677 0-1.672.812-2.77 2.09-2.77 1.354 0 2.037.99 2.038 2.527zm-.576-.182c0-1.135-.46-1.862-1.442-1.862-.813 0-1.436.604-1.497 2.02h2.94v-.158zm2.883-3.076v.84h1.378l-.07.468h-1.306v4.76h-.58v-4.76h-.907v-.468h.907v-.856c0-.825.547-1.345 1.452-1.345.45 0 .834.1 1.215.28l-.195.435c-.34-.156-.66-.228-.985-.228-.598 0-.907.26-.907.874zm6.182 3.258c0 .164-.01.322-.02.426h-3.493c.074 1.413.736 2.002 1.63 2.002.57 0 .954-.173 1.41-.515l.272.37c-.487.396-1.016.637-1.713.637-1.37 0-2.212-1.002-2.212-2.677 0-1.672.813-2.77 2.09-2.77 1.354 0 2.038.99 2.037 2.527zm-.575-.182c0-1.135-.46-1.862-1.442-1.862-.813 0-1.436.604-1.497 2.02h2.94v-.158zm4.272-2.345c.208 0 .387.025.52.06l-.11.556c-.142-.04-.28-.06-.46-.06-.723 0-1.12.522-1.394 1.603v3.18h-.58v-5.23h.5l.045 1.173c.28-.86.757-1.282 1.48-1.283zm5.313 2.527c0 .164-.01.322-.02.426h-3.494c.075 1.413.737 2.002 1.63 2.002.57 0 .955-.173 1.41-.515l.273.37c-.487.396-1.016.637-1.713.637-1.37 0-2.213-1.002-2.213-2.677 0-1.672.812-2.77 2.09-2.77 1.355 0 2.04.99 2.038 2.527zm-.575-.182c0-1.135-.46-1.862-1.442-1.862-.813 0-1.436.604-1.497 2.02h2.94v-.158zm6.013-.742v3.733h-.58v-3.652c0-.864-.347-1.21-.983-1.21-.716 0-1.198.44-1.625 1.077v3.787h-.58v-5.23h.5l.054.894c.414-.596 1-1 1.752-1 .955 0 1.46.594 1.46 1.602zm5.343-1.072l-.296.386c-.333-.28-.68-.42-1.158-.42-.95 0-1.612.748-1.612 2.254 0 1.494.657 2.19 1.607 2.19.483 0 .843-.162 1.2-.457l.293.406c-.415.353-.912.56-1.5.56-1.348 0-2.222-.99-2.222-2.688 0-1.686.864-2.76 2.21-2.76.587 0 1.033.154 1.478.53zm5.03 1.996c0 .164-.01.322-.02.426h-3.494c.074 1.413.736 2.002 1.63 2.002.57 0 .954-.173 1.41-.515l.272.37c-.487.396-1.016.637-1.713.637-1.37 0-2.212-1.002-2.212-2.677 0-1.672.813-2.77 2.09-2.77 1.354 0 2.038.99 2.037 2.527zm-.576-.182c0-1.135-.46-1.862-1.442-1.862-.813 0-1.436.604-1.497 2.02h2.94v-.158zm5.672-3.076v.84h1.378l-.072.468h-1.306v4.76h-.58v-4.76h-.907v-.468h.907v-.856c0-.825.547-1.345 1.452-1.345.45 0 .834.1 1.215.28l-.198.435c-.34-.156-.66-.228-.985-.228-.596 0-.906.26-.905.874zm6.484 3.44c0 1.687-.843 2.738-2.217 2.738-1.39 0-2.213-1.04-2.213-2.716 0-1.68.848-2.73 2.222-2.73 1.382 0 2.205 1.002 2.206 2.71zm-2.207-2.222c-.996 0-1.605.744-1.605 2.244 0 1.462.59 2.228 1.595 2.228 1 0 1.6-.754 1.6-2.25 0-1.472-.585-2.222-1.59-2.222zm5.932-.487c.208 0 .387.025.52.06l-.11.556c-.143-.04-.28-.06-.46-.06-.724 0-1.122.522-1.395 1.603v3.18h-.58v-5.23h.5l.045 1.173c.282-.86.758-1.282 1.48-1.283zm8.625-.987l-.328.395c-.454-.355-.84-.515-1.397-.515-1.193 0-2.178.836-2.178 3.02 0 2.076.95 3.01 2.15 3.01.705 0 1.108-.263 1.51-.58l.32.4c-.408.385-1 .705-1.848.705-1.587 0-2.764-1.233-2.764-3.535 0-2.346 1.25-3.53 2.77-3.53.806-.002 1.274.232 1.764.63zm2.776-.523c1.594 0 3.19.55 3.19 3.37 0 2.84-1.672 3.478-3.08 3.478h-1.468v-6.848h1.358zm-.76 6.35h.907c1.184 0 2.41-.523 2.41-2.98 0-2.51-1.276-2.866-2.48-2.866h-.836v5.847zm12.517-2.14c0 1.653-.687 2.747-1.986 2.747-.654 0-1.163-.297-1.49-.72v2.58l-.58.08v-7.278h.5l.046.763c.383-.534.937-.874 1.61-.874 1.29 0 1.9 1.008 1.9 2.7zm-.616 0c0-1.485-.477-2.217-1.387-2.217-.67 0-1.11.397-1.472.9v2.777c.323.482.787.793 1.384.793.953.003 1.473-.76 1.474-2.254zm2.9 1.737c0 .346.118.513.43.513.124 0 .245-.025.356-.07l.158.427c-.184.087-.4.142-.62.142-.566 0-.902-.323-.902-1.006v-6.463l.58-.07v6.527zm5.563-.258c0 .58.154.752.44.862l-.134.403c-.46-.094-.73-.324-.814-.872-.373.588-.924.873-1.62.873-1.02 0-1.625-.627-1.625-1.56 0-1.096.833-1.694 2.17-1.694h1v-.5c0-.824-.34-1.197-1.208-1.197-.428 0-.9.11-1.42.3l-.152-.445c.578-.223 1.098-.35 1.65-.35 1.186 0 1.71.59 1.71 1.657v2.522l.002.002zm-.58-.14v-1.42h-.913c-1.046 0-1.64.41-1.64 1.243 0 .717.408 1.12 1.1 1.12.67 0 1.13-.34 1.453-.944zm5.96-3.508l-.297.386c-.333-.28-.68-.42-1.158-.42-.95 0-1.612.748-1.612 2.254 0 1.494.657 2.19 1.607 2.19.483 0 .843-.162 1.2-.457l.292.406c-.417.353-.914.56-1.5.56-1.35 0-2.224-.99-2.224-2.688 0-1.686.864-2.76 2.21-2.76.588 0 1.033.154 1.48.53zm5.027 1.996c0 .164-.01.322-.02.426h-3.493c.076 1.413.738 2.002 1.633 2.002.57 0 .953-.173 1.408-.515l.274.37c-.487.396-1.017.637-1.713.637-1.37 0-2.213-1.002-2.213-2.677 0-1.672.813-2.77 2.09-2.77 1.354 0 2.038.99 2.037 2.527zm-.575-.182c0-1.135-.46-1.862-1.444-1.862-.813 0-1.436.604-1.497 2.02h2.94v-.158zm8.698-.742v3.733h-.58v-3.652c0-.853-.35-1.21-.888-1.21-.63 0-1.07.44-1.47 1.077v3.787h-.58v-3.652c0-.854-.345-1.21-.887-1.21-.63 0-1.076.44-1.47 1.077v3.785h-.58v-5.23h.5l.054.885c.388-.59.93-.992 1.605-.992.67 0 1.134.386 1.294 1.04.4-.617.95-1.04 1.642-1.04.845 0 1.36.61 1.36 1.604v-.002zm5.787.924c0 .164-.01.322-.02.426h-3.493c.074 1.413.736 2.002 1.63 2.002.57 0 .954-.173 1.41-.515l.272.37c-.487.396-1.016.637-1.713.637-1.37 0-2.212-1.002-2.212-2.677 0-1.672.813-2.77 2.09-2.77 1.354 0 2.037.99 2.037 2.527zm-.576-.182c0-1.135-.46-1.862-1.444-1.862-.813 0-1.436.604-1.497 2.02h2.94v-.158zm6.012-.742v3.733h-.58v-3.652c0-.864-.347-1.21-.983-1.21-.718 0-1.2.44-1.627 1.077v3.787h-.58v-5.23h.5l.054.894c.416-.596 1-1 1.754-1 .956 0 1.46.594 1.462 1.602zm4.452 3.517c-.317.207-.675.327-1.104.327-.79 0-1.276-.465-1.276-1.38v-3.49h-.88v-.468h.88v-1.25l.58-.065v1.317h1.348l-.073.468h-1.277v3.462c0 .606.236.91.767.91.29 0 .54-.085.8-.24l.234.41z"/>
  <g fill="#9C9E9F">
    <circle cx="243.886" cy="413.966" r=".709"/>
    <circle cx="328.927" cy="266.641" r=".709"/>
    <circle cx="499.005" cy="266.64" r=".709"/>
    <circle cx="584.045" cy="413.966" r=".709"/>
    <circle cx="499.005" cy="561.291" r=".709"/>
    <circle cx="328.926" cy="561.291" r=".708"/>
  </g>
  <path d="M707.264 786.23v6.074h-.95v-6.076h-1.958v-.81h4.918l-.1.81h-1.91v.002zm6.218 3.756h-3.357c.085 1.222.654 1.688 1.418 1.688.52 0 .91-.14 1.37-.46l.4.55c-.52.41-1.11.66-1.84.66-1.47 0-2.33-1.03-2.33-2.698 0-1.64.83-2.81 2.19-2.81 1.42 0 2.167.99 2.167 2.6.003.18-.007.35-.018.47zm-.89-.74c0-1.03-.408-1.6-1.238-1.6-.702 0-1.155.492-1.23 1.66h2.47v-.06h-.002zm7.72-2.328c.86 0 1.43.62 1.43 1.61v3.775h-.92v-3.646c0-.79-.34-1.02-.74-1.02-.57 0-.88.37-1.24.93v3.736h-.918v-3.646c0-.79-.34-1.02-.74-1.02-.57 0-.89.37-1.24.93v3.736h-.917v-5.267h.79l.078.773c.352-.535.834-.896 1.52-.896.646 0 1.13.352 1.328.948.376-.56.86-.944 1.57-.944zm7.65 2.748c0 1.6-.71 2.76-2.07 2.76-.57 0-1.042-.19-1.378-.598v2.495l-.92.11v-7.397h.79l.073.715c.39-.54.952-.833 1.557-.833 1.398 0 1.948 1.09 1.948 2.75zm-.99 0c0-1.37-.4-2.02-1.188-2.02-.562 0-.992.403-1.27.82v2.567c.272.407.675.64 1.16.64.84 0 1.3-.63 1.3-2.008h-.002zm3.432 1.58c0 .28.09.42.33.42.13 0 .24-.022.34-.06l.24.64c-.25.12-.51.18-.78.18-.67 0-1.05-.4-1.05-1.16v-6.347l.92-.11v6.435zm5.61-.17c0 .46.17.61.44.71l-.21.64c-.53-.063-.874-.27-1.033-.788-.363.55-.922.787-1.563.787-1.05 0-1.68-.65-1.68-1.59 0-1.13.85-1.738 2.317-1.738h.81v-.39c0-.76-.37-1.04-1.1-1.04-.39 0-.88.1-1.42.28l-.23-.67c.65-.24 1.23-.36 1.82-.36 1.27 0 1.85.65 1.85 1.75v2.408zm-.92-.16v-1.21h-.69c-.97 0-1.458.358-1.458 1.08 0 .62.31.95.91.95.54 0 .938-.272 1.24-.82h-.003zm5.468 1.148c-.35.24-.73.36-1.18.36-.89 0-1.42-.52-1.42-1.5v-3.18h-.92v-.71h.92v-1.187l.92-.11v1.3h1.25l-.1.71h-1.15v3.14c0 .53.17.78.63.78.23 0 .44-.07.7-.23l.35.627zm4.81-2.078h-3.356c.084 1.222.653 1.688 1.418 1.688.52 0 .91-.14 1.37-.46l.398.55c-.52.41-1.11.66-1.84.66-1.468 0-2.327-1.03-2.327-2.698 0-1.64.83-2.81 2.188-2.81 1.42 0 2.17.99 2.17 2.6 0 .18-.01.35-.02.47zm-.89-.74c0-1.03-.41-1.6-1.24-1.6-.7 0-1.154.492-1.23 1.66h2.47v-.06zm9.45.42c0 1.65-.79 2.76-2.067 2.76-.576 0-1.043-.26-1.398-.695l-.092.575h-.81v-7.386l.92-.11v2.892c.36-.492.85-.783 1.49-.783 1.187-.003 1.957.986 1.957 2.745zm-.99 0c0-1.5-.49-2.02-1.23-2.02-.578 0-.96.4-1.228.82v2.52c.272.42.684.71 1.158.71.77 0 1.3-.59 1.3-2.03zm4.57 2.67c-.37 1.12-.988 1.937-2.447 2.1l-.1-.72c1.068-.18 1.37-.59 1.668-1.41h-.31l-1.77-5.27h.98l1.41 4.6 1.377-4.6h.95l-1.757 5.3zm6.56-7.196c0 .35-.26.618-.65.618-.38 0-.64-.27-.64-.62 0-.357.26-.63.64-.63.39 0 .65.27.65.63v.002zm-1.097 7.165v-5.268h.92v5.268h-.92zm6.897 0h-.81l-.09-.726c-.34.525-.87.844-1.52.844-1.28 0-1.99-1.09-1.99-2.73 0-1.607.78-2.776 2.07-2.776.62 0 1.07.28 1.42.647v-2.758l.92.11v7.388zm-.92-1.393v-2.576c-.327-.42-.698-.688-1.22-.688-.79 0-1.28.66-1.28 2.027 0 1.39.44 2.02 1.2 2.02.586 0 .948-.285 1.3-.783zm3.693.333c0 .28.09.42.33.42.13 0 .24-.02.34-.06l.24.64c-.25.12-.51.18-.78.18-.67 0-1.05-.4-1.05-1.16v-6.346l.92-.11v6.435zm5.917-1.26h-3.357c.084 1.223.654 1.69 1.418 1.69.52 0 .91-.14 1.37-.46l.4.55c-.52.41-1.11.66-1.84.66-1.47 0-2.33-1.03-2.33-2.7 0-1.64.83-2.81 2.19-2.81 1.417 0 2.167.99 2.167 2.6.003.18-.007.35-.018.47zm-.89-.74c0-1.03-.41-1.6-1.238-1.6-.703 0-1.155.493-1.23 1.66h2.47v-.06h-.002zm6.798.42c0 1.65-.788 2.76-2.066 2.76-.576 0-1.044-.26-1.398-.694l-.09.575h-.81v-7.386l.92-.11v2.892c.36-.492.85-.783 1.486-.783 1.19-.003 1.96.986 1.96 2.745h-.002zm-.988 0c0-1.5-.49-2.02-1.23-2.02-.578 0-.96.402-1.23.82v2.52c.275.42.687.71 1.16.71.77 0 1.3-.59 1.3-2.03zm6.52.32h-3.357c.084 1.223.654 1.69 1.418 1.69.52 0 .91-.14 1.37-.46l.4.55c-.52.41-1.11.66-1.84.66-1.47 0-2.33-1.03-2.33-2.7 0-1.64.83-2.81 2.19-2.81 1.418 0 2.168.99 2.168 2.6 0 .18-.007.35-.018.47zm-.89-.74c0-1.03-.41-1.6-1.24-1.6-.702 0-1.155.493-1.228 1.66h2.467l.002-.06zm5.24-2.266l-.17.898c-.16-.04-.27-.06-.46-.06-.655 0-1.038.47-1.26 1.48v3.005h-.918v-5.268h.79l.09 1.073c.28-.797.772-1.193 1.408-1.193.17 0 .36.02.52.06v.004zm5.298.297c-.44.14-.938.16-1.538.16.62.28.93.72.93 1.33 0 1.037-.75 1.787-2.01 1.787-.235 0-.452-.03-.667-.1-.156.105-.262.295-.262.49 0 .24.15.43.69.43h.84c1.077 0 1.797.62 1.797 1.458 0 1.02-.84 1.6-2.468 1.6-1.72 0-2.26-.53-2.26-1.6h.83c0 .6.27.88 1.43.88 1.14 0 1.54-.29 1.54-.82 0-.5-.4-.75-1.06-.75h-.83c-.94 0-1.36-.47-1.36-.998 0-.345.196-.682.58-.928-.612-.317-.89-.78-.89-1.46 0-1.08.87-1.84 2.03-1.84 1.31.03 1.787-.19 2.406-.47l.272.83zm-3.767 1.48c0 .7.39 1.19 1.11 1.19s1.107-.44 1.107-1.2c0-.77-.378-1.17-1.128-1.17-.707 0-1.09.49-1.09 1.18zm-205.62 9.223l-.52.607c-.43-.35-.85-.51-1.33-.51-1.038 0-1.908.7-1.908 2.777 0 1.99.83 2.77 1.9 2.77.647 0 1.066-.29 1.458-.58l.48.61c-.37.39-1.04.77-1.97.77-1.67 0-2.88-1.25-2.88-3.57 0-2.325 1.3-3.556 2.857-3.556.872 0 1.36.238 1.91.68l.003.002zm4.04 1l-.17.898c-.158-.04-.27-.06-.46-.06-.655 0-1.04.47-1.26 1.48v3.005h-.917v-5.268h.79l.09 1.073c.28-.797.772-1.193 1.408-1.193.17 0 .36.02.52.06v.004zm4.91 3.006h-3.357c.086 1.222.654 1.688 1.42 1.688.52 0 .908-.14 1.37-.46l.398.55c-.52.41-1.11.66-1.84.66-1.47 0-2.33-1.03-2.33-2.698 0-1.64.83-2.81 2.19-2.81 1.42 0 2.168.99 2.168 2.6 0 .18-.01.35-.02.47zm-.89-.74c0-1.03-.41-1.6-1.24-1.6-.702 0-1.155.492-1.228 1.66h2.468v-.06zm5.98 1.83c0 .46.17.61.44.71l-.21.64c-.528-.063-.873-.27-1.03-.788-.366.55-.925.787-1.568.787-1.05 0-1.68-.65-1.68-1.59 0-1.13.85-1.738 2.32-1.738h.81v-.39c0-.76-.37-1.04-1.1-1.04-.39 0-.88.1-1.42.28l-.23-.67c.65-.24 1.23-.36 1.82-.36 1.27 0 1.848.65 1.848 1.75v2.408zm-.92-.16v-1.21h-.69c-.968 0-1.457.358-1.457 1.08 0 .62.31.95.91.95.542 0 .94-.272 1.24-.82h-.003zm5.47 1.148c-.35.24-.728.36-1.18.36-.89 0-1.42-.52-1.42-1.5v-3.18h-.917v-.71h.92v-1.187l.918-.11v1.3h1.25l-.1.71h-1.15v3.14c0 .53.17.78.63.78.23 0 .44-.07.7-.23l.35.627zm2.05-6.924c0 .35-.26.618-.65.618-.38 0-.64-.27-.64-.62 0-.357.26-.63.64-.63.392 0 .65.27.65.63v.002zm-1.1 7.165v-5.268h.92v5.268h-.92zm3.79 0l-1.816-5.268h1l1.38 4.448 1.367-4.448h.97l-1.79 5.268h-1.11zm7.81-2.32h-3.358c.085 1.223.654 1.69 1.418 1.69.52 0 .91-.14 1.37-.46l.4.55c-.52.41-1.11.66-1.84.66-1.47 0-2.33-1.03-2.33-2.7 0-1.64.83-2.81 2.19-2.81 1.42 0 2.167.99 2.167 2.6.003.18-.007.35-.018.47zm-.89-.74c0-1.03-.41-1.6-1.24-1.6-.7 0-1.154.493-1.228 1.66h2.47v-.06h-.003zm9.45-3.265l-.522.607c-.43-.35-.85-.51-1.328-.51-1.038 0-1.908.7-1.908 2.777 0 1.99.83 2.77 1.9 2.77.647 0 1.066-.29 1.458-.58l.48.61c-.37.39-1.04.77-1.97.77-1.67 0-2.88-1.25-2.88-3.57 0-2.325 1.3-3.556 2.857-3.556.872 0 1.36.238 1.91.68l.002.002zm5.45 3.686c0 1.63-.86 2.76-2.35 2.76-1.5 0-2.35-1.08-2.35-2.75 0-1.63.86-2.758 2.358-2.758s2.342 1.08 2.342 2.748zm-3.71.01c0 1.37.48 2.01 1.36 2.01.88 0 1.358-.64 1.358-2.02 0-1.37-.48-2.01-1.35-2.01-.88 0-1.366.64-1.366 2.02zm10.52-2.758c.86 0 1.43.62 1.43 1.61v3.775h-.92v-3.646c0-.79-.34-1.02-.74-1.02-.57 0-.88.37-1.24.93v3.736h-.918v-3.646c0-.79-.34-1.02-.74-1.02-.57 0-.89.37-1.24.93v3.736h-.918v-5.267h.79l.078.773c.353-.535.834-.896 1.52-.896.647 0 1.13.352 1.33.948.374-.56.857-.944 1.567-.944zm9.997 1.61v3.775h-.92v-3.646c0-.79-.34-1.02-.737-1.02-.57 0-.88.37-1.24.93v3.736h-.92v-3.646c0-.79-.34-1.02-.737-1.02-.57 0-.89.37-1.24.93v3.736h-.92v-5.267h.79l.078.772c.354-.534.835-.894 1.52-.894.647 0 1.13.352 1.33.948.38-.564.86-.948 1.57-.948.858.002 1.428.62 1.428 1.61l-.002.003zm6.173 1.138c0 1.63-.86 2.76-2.35 2.76-1.498 0-2.348-1.08-2.348-2.75 0-1.63.86-2.758 2.356-2.758 1.502 0 2.343 1.08 2.343 2.748zm-3.71.01c0 1.37.48 2.01 1.36 2.01s1.36-.64 1.36-2.02c0-1.37-.48-2.01-1.35-2.01-.88 0-1.37.64-1.37 2.02zm9.24-1.15v3.777h-.92v-3.647c0-.79-.32-1.02-.83-1.02-.59 0-.99.37-1.34.93v3.737h-.92v-5.268h.79l.08.776c.365-.534.92-.895 1.61-.895.97.002 1.53.612 1.53 1.61zm5.07-1.008l-.4.61c-.46-.33-.87-.48-1.358-.48-.6 0-.97.27-.97.69 0 .43.28.63 1.13.85 1.11.278 1.75.72 1.75 1.64 0 1.1-1.01 1.6-2.08 1.6-.89 0-1.528-.29-1.988-.69l.51-.58c.4.34.89.53 1.46.53.688 0 1.13-.31 1.13-.77 0-.55-.26-.75-1.28-1.02-1.14-.302-1.59-.792-1.59-1.542 0-.827.81-1.437 1.9-1.437.736-.003 1.286.217 1.785.598zm4.69 3.057l-.52 1.73h-.96l2.21-6.888h1.2l2.2 6.886h-1l-.518-1.73-2.61.002zm1.31-4.367l-1.08 3.598h2.153l-1.072-3.598zm6.39 5.856c-.35.24-.73.36-1.18.36-.89 0-1.42-.52-1.42-1.5v-3.18h-.918v-.71h.92v-1.187l.918-.11v1.3h1.25l-.1.71h-1.15v3.14c0 .53.17.78.63.78.23 0 .44-.07.7-.23l.35.627zm3.61 0c-.35.24-.73.36-1.18.36-.89 0-1.42-.52-1.42-1.5v-3.18h-.92v-.71h.92v-1.187l.92-.11v1.3h1.25l-.1.71h-1.15v3.14c0 .53.17.78.63.78.23 0 .44-.07.7-.23l.35.627zm3.76-5.085l-.17.898c-.16-.04-.27-.06-.46-.06-.656 0-1.04.47-1.26 1.48v3.005h-.918v-5.268h.79l.09 1.073c.28-.797.77-1.193 1.407-1.193.17 0 .36.02.52.06v.004zm2.15-1.84c0 .35-.26.618-.65.618-.38 0-.64-.27-.64-.62 0-.357.26-.63.64-.63.392 0 .65.27.65.63v.002zm-1.1 7.165v-5.268h.92v5.268h-.92zm7.19-2.64c0 1.65-.79 2.76-2.07 2.76-.576 0-1.04-.26-1.397-.694l-.09.575h-.81v-7.386l.92-.11v2.892c.36-.492.85-.783 1.487-.783 1.19-.003 1.96.986 1.96 2.745zm-.99 0c0-1.5-.49-2.02-1.23-2.02-.58 0-.962.402-1.23.82v2.52c.275.42.686.71 1.16.71.77 0 1.3-.59 1.3-2.03zm5.69 2.64l-.07-.82c-.4.64-.89.94-1.64.94-.92 0-1.472-.58-1.472-1.61v-3.776h.92v3.68c0 .72.24.987.812.987s1-.38 1.32-.91v-3.758h.92v5.267l-.79-.002zm5.35-.24c-.35.238-.73.358-1.18.358-.89 0-1.42-.52-1.42-1.5v-3.178h-.92v-.71h.92v-1.188l.92-.11v1.3h1.25l-.1.71h-1.15v3.14c0 .53.17.78.63.78.23 0 .44-.07.7-.23l.35.627zm2.05-6.925c0 .35-.26.618-.648.618-.38 0-.64-.27-.64-.62 0-.357.26-.63.64-.63.39 0 .65.27.65.63v.002zm-1.1 7.165v-5.268h.92v5.268h-.92zm7.137-2.64c0 1.63-.858 2.76-2.347 2.76-1.5 0-2.35-1.08-2.35-2.75 0-1.63.86-2.757 2.36-2.757s2.338 1.08 2.337 2.748zm-3.706.01c0 1.37.48 2.01 1.36 2.01.878 0 1.357-.64 1.357-2.02 0-1.37-.478-2.01-1.35-2.01-.878 0-1.366.64-1.366 2.02zm9.238-1.15v3.778h-.92v-3.647c0-.79-.32-1.02-.83-1.02-.59 0-.988.37-1.338.93v3.737h-.92v-5.268h.79l.077.776c.368-.534.926-.895 1.612-.895.972.002 1.53.612 1.53 1.61zm7.7 2.13v1.65h-.89v-1.65h-2.858v-.66l2.01-4.478.77.32-1.81 4.087h1.896l.082-1.8h.8v1.8h.87v.73h-.87zm3.062 1.07c0 .39-.3.7-.7.7-.39 0-.69-.31-.69-.7 0-.38.3-.69.69-.69.4 0 .7.31.7.69zm5.536-2.758c0 2.22-.738 3.458-2.237 3.458-1.5 0-2.237-1.24-2.237-3.458s.737-3.447 2.237-3.447 2.238 1.237 2.237 3.447zm-3.517 0c0 1.97.44 2.73 1.28 2.73.83 0 1.277-.76 1.277-2.73 0-1.96-.448-2.72-1.278-2.72-.84 0-1.28.76-1.28 2.72zm7.72 3.338v-6.886h.96v6.884h-.96zm6.92-3.78v3.778h-.92v-3.647c0-.79-.32-1.02-.83-1.02-.59 0-.99.37-1.34.93v3.737h-.92v-5.268h.79l.078.776c.367-.534.925-.895 1.612-.895.97.002 1.53.612 1.53 1.61zm4.51 3.54c-.35.238-.73.358-1.18.358-.892 0-1.42-.52-1.42-1.5v-3.178h-.92v-.71h.92v-1.188l.92-.11v1.3h1.25l-.1.71h-1.15v3.14c0 .53.17.78.63.78.228 0 .44-.07.7-.23l.35.627zm4.807-2.08h-3.355c.084 1.223.653 1.69 1.418 1.69.52 0 .91-.14 1.37-.46l.398.55c-.52.41-1.107.66-1.838.66-1.47 0-2.327-1.03-2.327-2.7 0-1.64.83-2.81 2.188-2.81 1.42 0 2.17.99 2.17 2.6 0 .182-.01.352-.02.472h-.003zm-.888-.74c0-1.03-.41-1.6-1.24-1.6-.7 0-1.153.493-1.228 1.66h2.468v-.06zm5.24-2.266l-.17.898c-.16-.04-.27-.06-.46-.06-.656 0-1.04.47-1.26 1.48v3.005h-.92v-5.268h.79l.092 1.073c.28-.797.77-1.193 1.408-1.193.17 0 .36.02.52.06v.004zm5.06 1.546v3.777h-.92v-3.647c0-.79-.32-1.02-.83-1.02-.59 0-.99.37-1.34.93v3.737h-.918v-5.268h.79l.078.776c.365-.534.922-.895 1.61-.895.97.002 1.53.612 1.53 1.61zm5.398 2.55c0 .46.17.61.44.71l-.21.64c-.527-.063-.872-.27-1.03-.788-.365.55-.924.787-1.567.787-1.05 0-1.68-.65-1.68-1.59 0-1.13.85-1.738 2.32-1.738h.81v-.39c0-.76-.37-1.04-1.1-1.04-.39 0-.88.1-1.42.28l-.23-.67c.65-.24 1.23-.36 1.82-.36 1.27 0 1.848.65 1.848 1.75v2.408zm-.918-.16v-1.21h-.69c-.97 0-1.46.358-1.46 1.08 0 .62.312.95.91.95.544 0 .94-.27 1.24-.82zm5.47 1.148c-.35.24-.73.36-1.18.36-.89 0-1.42-.52-1.42-1.5v-3.18h-.918v-.71h.92v-1.187l.918-.11v1.3h1.25l-.1.71h-1.15v3.14c0 .53.17.78.63.78.23 0 .44-.07.7-.23l.35.627zm2.05-6.924c0 .35-.26.618-.65.618-.38 0-.64-.27-.64-.62 0-.357.26-.63.64-.63.39 0 .65.27.65.63v.002zm-1.1 7.165v-5.268h.92v5.268h-.92zm7.138-2.64c0 1.63-.857 2.76-2.348 2.76-1.5 0-2.35-1.08-2.35-2.75 0-1.63.86-2.757 2.36-2.757s2.34 1.08 2.34 2.748h-.002zm-3.707.01c0 1.37.48 2.01 1.36 2.01s1.358-.64 1.358-2.02c0-1.37-.48-2.01-1.35-2.01-.877 0-1.366.64-1.366 2.02zm9.237-1.15v3.778h-.92v-3.647c0-.79-.317-1.02-.828-1.02-.59 0-.99.37-1.34.93v3.737h-.92v-5.268h.79l.08.776c.365-.534.922-.895 1.61-.895.97 0 1.53.61 1.53 1.61h-.002zm5.4 2.55c0 .46.17.61.44.71l-.21.64c-.528-.062-.873-.27-1.03-.787-.366.55-.926.787-1.568.787-1.05 0-1.68-.65-1.68-1.59 0-1.13.85-1.738 2.32-1.738h.81v-.39c0-.76-.37-1.04-1.1-1.04-.39 0-.88.1-1.42.28l-.23-.67c.65-.24 1.23-.36 1.82-.36 1.27 0 1.85.65 1.85 1.75v2.408h-.002zm-.92-.16v-1.21h-.688c-.97 0-1.46.36-1.46 1.08 0 .62.312.95.91.95.544 0 .94-.27 1.24-.82h-.002zm3.683.33c0 .28.09.42.33.42.13 0 .24-.02.34-.06l.24.64c-.25.12-.51.18-.78.18-.67 0-1.05-.4-1.05-1.16v-6.346l.92-.11v6.435zm-199.6 9.325v3.733h-.58v-3.652c0-.853-.357-1.21-.988-1.21-.707 0-1.193.44-1.62 1.072v3.792h-.58v-7.354l.58-.073v3.07c.424-.59.99-.98 1.73-.98.943 0 1.456.61 1.457 1.603zm4.452 3.517c-.315.207-.675.327-1.103.327-.79 0-1.276-.465-1.276-1.38v-3.49h-.88v-.468h.88v-1.25l.58-.065v1.317h1.35l-.074.468h-1.274v3.462c0 .606.235.91.768.91.29 0 .54-.085.8-.24l.232.41h-.003zm3.41 0c-.315.207-.675.327-1.103.327-.79 0-1.276-.465-1.276-1.38v-3.49h-.88v-.468h.88v-1.25l.58-.065v1.317h1.348l-.072.468h-1.274v3.462c0 .606.235.91.768.91.29 0 .54-.085.8-.24l.23.41zm5.085-2.42c0 1.653-.687 2.747-1.984 2.747-.654 0-1.164-.297-1.49-.72v2.58l-.578.08v-7.278h.498l.047.763c.383-.534.938-.874 1.61-.874 1.29 0 1.9 1.008 1.9 2.7h-.003zm-.617 0c0-1.485-.478-2.217-1.388-2.217-.67 0-1.11.397-1.472.9v2.777c.323.482.787.793 1.384.793.957.003 1.476-.76 1.476-2.254zm2.823-1.63c0 .265-.194.475-.48.475-.273 0-.475-.21-.475-.475 0-.266.2-.475.478-.475.283 0 .48.21.478.475zm.002 3.9c0 .266-.195.478-.48.478-.274 0-.477-.212-.477-.477s.203-.476.48-.476c.283 0 .48.212.48.476h-.002zm2.25 1.363l-.505-.124 2.32-8.893.5.12-2.315 8.897zm5.2 0l-.505-.124 2.318-8.893.5.12-2.313 8.897zm8.054-6.114c-.356.105-.813.144-1.445.146.552.26.892.704.892 1.424 0 1.022-.713 1.723-1.896 1.723-.246 0-.477-.036-.68-.105-.243.14-.397.354-.397.604 0 .304.204.536.832.536h.85c1.035 0 1.673.555 1.673 1.334 0 .943-.74 1.507-2.266 1.507-1.582 0-2.177-.458-2.177-1.5h.538c.01.73.385 1.02 1.638 1.02 1.216 0 1.676-.37 1.676-.987 0-.56-.438-.87-1.18-.87h-.847c-.867 0-1.293-.42-1.293-.925 0-.352.214-.658.575-.886-.598-.31-.88-.777-.88-1.477 0-1.047.77-1.77 1.913-1.77 1.403.022 1.78-.13 2.294-.337l.178.558v.002zm-3.79 1.55c0 .835.525 1.318 1.322 1.318.846 0 1.317-.48 1.317-1.31 0-.818-.43-1.333-1.314-1.333-.89.002-1.324.552-1.324 1.325zm5.658-3.538c0 .23-.17.415-.44.415-.26 0-.43-.186-.43-.415 0-.234.17-.42.43-.42.27 0 .44.186.44.42zm-.725 7.107v-5.23h.58v5.23h-.58zm5.08-.218c-.318.207-.677.327-1.105.327-.79 0-1.275-.465-1.275-1.38v-3.49h-.88v-.468h.88v-1.25l.58-.065v1.317h1.348l-.073.468h-1.275v3.462c0 .606.235.91.768.91.29 0 .538-.085.798-.24l.234.41zm4.795-3.517v3.733h-.578v-3.652c0-.853-.356-1.21-.987-1.21-.707 0-1.192.44-1.62 1.072v3.792h-.58v-7.354l.58-.073v3.07c.423-.59.988-.98 1.73-.98.942 0 1.456.61 1.455 1.603zm5.247 3.735l-.037-.93c-.36.624-.9 1.04-1.71 1.04-.93 0-1.476-.57-1.476-1.6v-3.74h.58v3.685c0 .83.35 1.176 1.033 1.176.685 0 1.164-.445 1.527-1.067v-3.79h.58v5.228h-.498v-.003zm6.673-2.64c0 1.678-.724 2.75-1.987 2.75-.66 0-1.168-.33-1.504-.77l-.06.658h-.508v-7.356l.58-.07v2.928c.37-.502.888-.837 1.57-.837 1.197 0 1.907.962 1.908 2.698zm-.616 0c0-1.542-.518-2.215-1.405-2.215-.68 0-1.098.396-1.455.9v2.755c.323.486.79.824 1.385.824.92 0 1.473-.742 1.474-2.264zm2.722 2.273c0 .265-.195.477-.48.477-.273 0-.477-.212-.477-.477s.2-.476.476-.476c.285 0 .48.212.48.476zm4.79-4.44l-.297.386c-.336-.28-.68-.42-1.16-.42-.948 0-1.61.748-1.61 2.254 0 1.494.656 2.19 1.605 2.19.483 0 .844-.162 1.2-.457l.292.406c-.415.353-.91.56-1.5.56-1.347 0-2.222-.99-2.222-2.688 0-1.686.864-2.76 2.21-2.76.588 0 1.033.154 1.48.53zm5.33 2.18c0 1.685-.844 2.736-2.217 2.736-1.393 0-2.214-1.04-2.214-2.716 0-1.68.85-2.73 2.222-2.73 1.382 0 2.206 1.002 2.206 2.71h.002zm-3.813.02c0 1.462.59 2.228 1.596 2.228 1 0 1.6-.755 1.6-2.25 0-1.473-.585-2.223-1.59-2.223-.998 0-1.608.745-1.607 2.244zm11.965-1.128v3.733h-.58v-3.652c0-.853-.35-1.21-.887-1.21-.63 0-1.07.44-1.47 1.077v3.787h-.577v-3.652c0-.854-.347-1.21-.89-1.21-.63 0-1.076.44-1.47 1.077v3.785h-.58v-5.23h.5l.056.885c.387-.59.93-.992 1.603-.992.67 0 1.135.386 1.295 1.04.4-.617.95-1.04 1.643-1.04.845 0 1.36.61 1.36 1.604l-.002-.002zm2.71 4.73l-.506-.124 2.32-8.893.5.12-2.315 8.897zm5.292-8.102c0 .23-.17.415-.44.415-.26 0-.43-.186-.43-.415 0-.234.17-.42.43-.42.27 0 .44.186.44.42zm-.726 7.107v-5.23h.58v5.23h-.58zm6.433 0h-.508l-.064-.796c-.306.514-.814.903-1.575.903-1.212 0-1.954-1.04-1.954-2.7 0-1.61.77-2.747 2.052-2.747.715 0 1.164.342 1.47.71v-2.802l.58.07v7.36zm-.58-1.342v-2.723c-.312-.445-.732-.79-1.373-.79-.915 0-1.536.79-1.53 2.253.005 1.46.55 2.228 1.436 2.228.693 0 1.108-.35 1.467-.967zm3.226.44c0 .347.116.514.43.514.123 0 .244-.025.354-.07l.158.427c-.185.087-.4.142-.62.142-.565 0-.9-.323-.9-1.006v-6.463l.58-.07-.002 6.527zm5.9-1.483h-3.492c.076 1.413.737 2.002 1.633 2.002.57 0 .953-.173 1.407-.515l.272.37c-.486.396-1.016.637-1.713.637-1.37 0-2.216-1.002-2.216-2.677 0-1.673.812-2.77 2.09-2.77 1.355 0 2.038.987 2.038 2.525 0 .165-.01.323-.02.427h.002zm-.554-.608c0-1.135-.46-1.862-1.445-1.862-.812 0-1.436.604-1.496 2.02h2.94v-.158zm6.3.354c0 1.677-.725 2.748-1.987 2.748-.66 0-1.168-.33-1.504-.77l-.058.66h-.51v-7.357l.58-.07v2.928c.37-.502.887-.837 1.57-.837 1.197 0 1.907.962 1.908 2.698zm-.617 0c0-1.543-.518-2.216-1.404-2.216-.68 0-1.098.396-1.456.9v2.755c.323.486.792.824 1.385.824.92 0 1.472-.743 1.472-2.265zm6.08-.172c0 .164-.01.322-.02.426h-3.492c.076 1.413.737 2.002 1.633 2.002.568 0 .953-.173 1.407-.515l.27.37c-.485.396-1.016.637-1.712.637-1.37 0-2.215-1.002-2.215-2.677 0-1.672.812-2.77 2.09-2.77 1.355 0 2.04.99 2.04 2.527zm-.574-.182c0-1.135-.46-1.862-1.443-1.862-.813 0-1.438.604-1.497 2.02h2.94v-.158zm4.79-2.285l-.11.554c-.143-.04-.28-.06-.46-.06-.725 0-1.12.524-1.395 1.605v3.18h-.58v-5.23h.5l.046 1.173c.285-.856.762-1.28 1.48-1.28.21 0 .388.025.52.06zm5.07.16c-.357.104-.812.143-1.445.145.55.26.89.704.89 1.424 0 1.022-.71 1.723-1.894 1.723-.243 0-.473-.036-.68-.105-.24.14-.394.354-.394.604 0 .304.203.536.832.536h.85c1.036 0 1.674.555 1.674 1.334 0 .943-.74 1.507-2.265 1.507-1.582 0-2.18-.458-2.18-1.5h.54c.012.73.385 1.02 1.64 1.02 1.215 0 1.676-.37 1.676-.987 0-.56-.438-.87-1.18-.87h-.847c-.867 0-1.294-.42-1.294-.925 0-.352.215-.658.576-.886-.597-.31-.88-.777-.88-1.477 0-1.047.77-1.77 1.913-1.77 1.4.022 1.78-.13 2.294-.337l.177.558v.002zm-3.79 1.548c0 .836.527 1.32 1.323 1.32.846 0 1.318-.48 1.318-1.31 0-.82-.43-1.334-1.314-1.334-.89 0-1.324.55-1.324 1.323l-.002.002zm5.565 4.565l-.504-.124 2.32-8.893.5.12-2.315 8.897zm7.68-3.623c0 1.686-.844 2.737-2.218 2.737-1.39 0-2.212-1.04-2.212-2.716 0-1.68.85-2.73 2.223-2.73 1.383 0 2.207 1.002 2.207 2.71zm-2.208-2.223c-.994 0-1.604.744-1.604 2.244 0 1.462.59 2.228 1.596 2.228 1 0 1.6-.754 1.6-2.25-.002-1.472-.586-2.222-1.593-2.222zm6.453-.427l-.11.554c-.144-.04-.28-.06-.46-.06-.726 0-1.122.524-1.396 1.605v3.18h-.58v-5.23h.5l.046 1.173c.283-.856.758-1.28 1.48-1.28.208 0 .386.025.52.06zm1.91-1.83c0 .23-.17.416-.44.416-.26 0-.43-.186-.43-.415 0-.234.17-.42.43-.42.27 0 .44.186.44.42zm-.726 7.108v-5.23h.58v5.23h-.58zm6.586-5.12c-.357.106-.812.145-1.445.147.55.26.89.704.89 1.424 0 1.022-.71 1.723-1.893 1.723-.246 0-.476-.036-.68-.105-.242.14-.397.354-.397.604 0 .304.205.536.832.536h.85c1.037 0 1.674.555 1.674 1.334 0 .943-.74 1.507-2.265 1.507-1.582 0-2.177-.458-2.177-1.5h.54c.01.73.384 1.02 1.637 1.02 1.216 0 1.676-.37 1.676-.987 0-.56-.437-.87-1.18-.87h-.845c-.87 0-1.295-.42-1.295-.925 0-.352.215-.658.576-.886-.597-.31-.88-.777-.88-1.477 0-1.047.77-1.77 1.913-1.77 1.4.022 1.776-.13 2.292-.337l.176.558.002.002zm-3.79 1.55c0 .836.527 1.32 1.322 1.32.846 0 1.318-.48 1.318-1.31 0-.82-.43-1.334-1.315-1.334-.89.002-1.325.552-1.325 1.325zm8.185 2.41c0 .58.154.753.44.863l-.135.403c-.458-.094-.73-.324-.812-.872-.372.588-.924.873-1.62.873-1.018 0-1.624-.627-1.624-1.56 0-1.096.833-1.694 2.17-1.694h1.002v-.5c0-.824-.343-1.197-1.21-1.197-.428 0-.9.11-1.418.3l-.153-.445c.578-.223 1.098-.35 1.65-.35 1.186 0 1.71.59 1.71 1.657V815.146zm-.58-.14v-1.42h-.913c-1.046 0-1.64.41-1.64 1.244 0 .717.407 1.12 1.1 1.12.672 0 1.13-.34 1.453-.944zm9.142-2.435v3.733h-.58v-3.652c0-.853-.35-1.21-.888-1.21-.63 0-1.07.44-1.47 1.077v3.787h-.58v-3.652c0-.854-.348-1.21-.89-1.21-.628 0-1.074.44-1.47 1.077v3.785h-.58v-5.23h.5l.056.885c.39-.59.93-.992 1.604-.992.67 0 1.133.386 1.294 1.04.4-.617.95-1.04 1.643-1.04.844 0 1.36.61 1.36 1.604v-.002zm2.8-3.372c0 .23-.17.415-.44.415-.26 0-.43-.186-.43-.415 0-.234.17-.42.43-.42.272 0 .44.186.44.42zm-.723 7.107v-5.23h.58v5.23h-.58zm4.966-3.38v.504h-2.644v-.507h2.644zm5.014-1.427l-.297.386c-.334-.28-.68-.42-1.158-.42-.95 0-1.613.748-1.613 2.254 0 1.494.656 2.19 1.606 2.19.482 0 .843-.162 1.2-.457l.292.406c-.416.353-.91.56-1.5.56-1.348 0-2.223-.99-2.223-2.688 0-1.686.864-2.76 2.21-2.76.59 0 1.035.154 1.482.53zm5.05 4.807h-.507l-.06-.796c-.308.514-.817.903-1.577.903-1.214 0-1.955-1.04-1.955-2.7 0-1.61.768-2.747 2.052-2.747.715 0 1.164.342 1.47.71v-2.802l.578.07v7.36zm-.58-1.342v-2.723c-.31-.445-.73-.79-1.37-.79-.916 0-1.537.79-1.53 2.253.003 1.46.55 2.228 1.434 2.228.696 0 1.11-.35 1.47-.966h-.003zm4.964-2.04v.506h-2.643v-.507h2.643zm6.252 3.348c-.186.09-.4.144-.622.144-.564 0-.9-.323-.9-1.006v-5.824c-.474-.152-.84-.222-1.33-.222-.703 0-1.018.26-1.018.874v.84h1.378l-.072.47h-1.306v4.76h-.58v-4.76h-.86v-.47h.86v-.856c0-.825.537-1.345 1.554-1.345.532 0 .906.084 1.373.23l.58-.07v6.37c0 .347.117.514.43.514.124 0 .244-.026.355-.07l.158.42zm5.283-2.593c0 1.686-.843 2.737-2.217 2.737-1.39 0-2.21-1.04-2.21-2.716 0-1.68.847-2.73 2.22-2.73 1.385 0 2.207 1.002 2.207 2.71zm-3.81.02c0 1.463.588 2.23 1.594 2.23 1 0 1.6-.756 1.6-2.25 0-1.474-.583-2.224-1.59-2.224-.995 0-1.605.745-1.605 2.244zm9.017 2.608l-1.16-4.69-1.176 4.69h-.77l-1.307-5.23h.597l1.113 4.783 1.22-4.78h.67l1.196 4.785 1.106-4.786h.566l-1.274 5.23-.782-.002zm6.963-2.385H791.8c.073 1.413.735 2.002 1.63 2.002.57 0 .953-.173 1.408-.515l.273.37c-.484.396-1.015.637-1.71.637-1.37 0-2.215-1.002-2.215-2.677 0-1.673.812-2.77 2.09-2.77 1.354 0 2.038.987 2.038 2.525 0 .166-.01.324-.02.428zm-.556-.608c0-1.135-.46-1.862-1.442-1.862-.812 0-1.436.604-1.497 2.02h2.94v-.158zm4.273-2.345c.207 0 .387.025.52.06l-.11.556c-.143-.04-.28-.06-.46-.06-.724 0-1.122.522-1.395 1.603v3.18h-.58v-5.23h.5l.046 1.173c.28-.86.757-1.282 1.48-1.283z"/>
  <g fill="none" stroke="#C6C7C8" stroke-width=".5" stroke-miterlimit="10">
    <path d="M669.084 266.646c.866.5 1.727 1.01 2.583 1.525"/>
    <path stroke-dasharray="5.936 5.936" d="M676.697 271.32c46.605 30.335 77.426 82.89 77.426 142.645 0 60.816-31.922 114.173-79.923 144.24"/>
    <path d="M671.667 559.76c-.856.52-1.717 1.024-2.583 1.525"/>
  </g>
  <g fill="none" stroke="#C6C7C8" stroke-width=".5" stroke-miterlimit="10">
    <path d="M413.966 119.32c.865-.5 1.734-.993 2.608-1.478"/>
    <path stroke-dasharray="5.936 5.936" d="M421.81 115.054c23.167-11.822 49.402-18.492 77.195-18.492 91.933 0 166.83 72.94 169.98 164.107"/>
    <path d="M669.06 263.646c.018.996.024 1.994.024 2.995v.007l-2.598 1.5"/>
    <path stroke-dasharray="6.237 6.237" d="M661.085 271.265L566.57 325.84"/>
    <path d="M563.87 327.4l-2.6 1.5"/>
  </g>
  <g fill="none" stroke="#C6C7C8" stroke-width=".5" stroke-miterlimit="10">
    <path d="M413.965 708.61c.865.5 1.734.99 2.608 1.478"/>
    <path stroke-dasharray="5.936 5.936" d="M421.81 712.876c23.167 11.823 49.4 18.493 77.195 18.493 91.933 0 166.83-72.94 169.98-164.108"/>
    <path d="M669.06 564.285c.018-.996.024-1.994.024-2.995v-.005l-2.598-1.5"/>
    <path stroke-dasharray="6.237 6.237" d="M661.085 556.666L566.57 502.09"/>
    <path d="M563.868 500.53l-2.597-1.5"/>
  </g>
  <g fill="none">
    <g stroke="#C6C7C8" stroke-width=".5" stroke-miterlimit="10">
      <path d="M158.848 561.292c0 1.002.01 2.002.026 3"/>
      <path stroke-dasharray="5.936 5.936" d="M159.078 570.227c4.647 89.777 78.913 161.144 169.848 161.144 28.853 0 56.02-7.187 79.825-19.862"/>
      <path d="M411.355 710.088c.875-.484 1.743-.98 2.607-1.48l-.008-3"/>
      <path stroke-dasharray="6.24 6.24" d="M413.938 699.37l-.31-109.205"/>
      <path d="M413.62 587.045l-.01-3"/>
    </g>
    <path d="M158.848 561.29v.002"/>
    <g stroke="#C6C7C8" stroke-width=".5" stroke-miterlimit="10">
      <path d="M158.848 266.64c0-1.002.01-2.002.026-3"/>
      <path stroke-dasharray="5.936 5.936" d="M159.078 257.707c4.646-89.78 78.913-161.146 169.848-161.146 28.853 0 56.02 7.19 79.826 19.866"/>
      <path d="M411.357 117.842c.875.485 1.742.978 2.606 1.478l-.01 3"/>
      <path stroke-dasharray="6.24 6.24" d="M413.94 128.56l-.313 109.207"/>
      <path d="M413.62 240.887l-.01 3"/>
    </g>
    <g stroke="#C6C7C8" stroke-width=".5" stroke-miterlimit="10">
      <path d="M158.848 561.292c-.866-.502-1.727-1.01-2.583-1.525"/>
      <path stroke-dasharray="5.936 5.936" d="M151.235 556.616c-46.61-30.334-77.427-82.896-77.427-142.65 0-60.816 31.92-114.18 79.923-144.245"/>
      <path d="M156.265 268.165c.855-.516 1.716-1.023 2.582-1.524l2.6 1.5"/>
      <path stroke-dasharray="6.237 6.237" d="M166.846 271.26l94.515 54.58"/>
      <path d="M264.062 327.4l2.598 1.5"/>
    </g>
  </g>
  <path fill="none" stroke="#C6C7C8" stroke-width=".5" stroke-miterlimit="10" stroke-dasharray="6" d="M158.847 561.29l107.814-62.26"/>
  <circle fill="none" cx="243.886" cy="413.966" r=".709"/>
  <circle fill="none" cx="328.927" cy="266.64" r=".708"/>
  <circle fill="none" cx="499.005" cy="266.64" r=".709"/>
  <circle fill="none" cx="584.045" cy="413.966" r=".709"/>
  <circle fill="none" cx="499.006" cy="561.29" r=".709"/>
  <circle fill="none" cx="328.927" cy="561.29" r=".709"/>
  <path fill="none" d="M498.67 731.203c76.748 0 141.612-50.838 162.78-120.672L460.7 726.93c12.212 2.788 24.916 4.276 37.97 4.275zm-332.717-120.2c21.316 69.592 86.064 120.2 162.64 120.2 13.27 0 26.177-1.532 38.57-4.407"/>
  <g>
    <path d="M743.52 741.37c4.876 0 9.027 1.7 12.45 5.104 1.637 1.64 2.885 3.513 3.734 5.617.85 2.11 1.275 4.344 1.275 6.71 0 2.384-.42 4.62-1.26 6.705-.84 2.085-2.08 3.925-3.72 5.522-1.703 1.683-3.63 2.97-5.79 3.86-2.16.893-4.387 1.34-6.688 1.34-2.303 0-4.51-.44-6.615-1.32-2.104-.886-3.993-2.16-5.663-3.83-1.673-1.67-2.942-3.554-3.814-5.648-.87-2.098-1.308-4.306-1.308-6.63 0-2.303.443-4.52 1.325-6.645.882-2.127 2.163-4.03 3.842-5.712 3.317-3.38 7.398-5.072 12.23-5.073zm.062 3.144c-3.98 0-7.334 1.39-10.05 4.168-1.372 1.393-2.423 2.953-3.16 4.688-.736 1.73-1.104 3.54-1.104 5.43 0 1.868.367 3.666 1.104 5.398.74 1.73 1.79 3.28 3.163 4.638 1.368 1.36 2.912 2.396 4.635 3.112 1.724.716 3.528 1.072 5.415 1.072 1.866 0 3.677-.363 5.434-1.088 1.75-.725 3.333-1.773 4.742-3.145 2.718-2.656 4.078-5.985 4.078-9.99 0-1.93-.354-3.754-1.06-5.478-.704-1.726-1.73-3.262-3.08-4.608-2.803-2.8-6.173-4.2-10.115-4.2l-.003.002zm-.217 11.39l-2.334 1.214c-.247-.52-.554-.884-.914-1.09-.365-.21-.702-.313-1.013-.313-1.557 0-2.336 1.03-2.336 3.082 0 .934.2 1.68.593 2.24.394.562.976.84 1.74.84 1.02 0 1.733-.497 2.148-1.49l2.146 1.09c-.455.85-1.09 1.52-1.9 2.006-.807.486-1.697.73-2.673.73-1.558 0-2.81-.477-3.766-1.432-.954-.95-1.435-2.28-1.435-3.98 0-1.66.484-2.978 1.45-3.953.963-.975 2.182-1.462 3.654-1.462 2.162 0 3.708.84 4.64 2.52zm10.053 0l-2.303 1.214c-.25-.52-.558-.884-.92-1.09-.36-.21-.71-.313-1.04-.313-1.558 0-2.334 1.03-2.334 3.082 0 .934.197 1.68.59 2.24.398.562.978.84 1.745.84 1.018 0 1.73-.497 2.146-1.49l2.182 1.09c-.48.85-1.12 1.52-1.93 2.006-.81.486-1.69.73-2.646.73-1.578 0-2.84-.477-3.78-1.432-.946-.95-1.418-2.28-1.418-3.98 0-1.66.482-2.978 1.446-3.953.967-.975 2.186-1.462 3.657-1.462 2.16 0 3.695.84 4.608 2.52zm30.064-14.534c4.896 0 9.024 1.683 12.386 5.044 3.384 3.382 5.073 7.51 5.073 12.387 0 4.898-1.656 8.975-4.978 12.23-3.527 3.467-7.688 5.198-12.48 5.198-4.71 0-8.797-1.71-12.26-5.138-3.426-3.422-5.136-7.52-5.136-12.29s1.71-8.9 5.135-12.388c3.36-3.36 7.45-5.042 12.265-5.042h-.003zm.063 3.144c-3.963 0-7.314 1.39-10.053 4.17-2.842 2.904-4.264 6.276-4.264 10.115 0 3.855 1.41 7.197 4.23 10.02 2.823 2.82 6.184 4.23 10.084 4.23 3.88 0 7.26-1.42 10.146-4.263 2.738-2.636 4.107-5.964 4.107-9.99 0-3.964-1.39-7.335-4.17-10.116-2.775-2.78-6.138-4.167-10.08-4.166zm4.668 9.958v7.127h-1.992v8.463h-5.412V761.6h-1.993v-7.128c0-.31.11-.573.328-.793.22-.22.482-.328.793-.328h7.158c.288 0 .55.11.778.326.228.217.343.482.343.792l-.002.002zm-7.127-4.48c0-1.64.81-2.46 2.427-2.46 1.618 0 2.43.82 2.43 2.46 0 1.617-.81 2.426-2.43 2.426-1.617 0-2.427-.81-2.427-2.426z"/>
  </g>
  <path fill="none" stroke="#C6C7C8" stroke-width="2.858" stroke-miterlimit="10" stroke-dasharray="8.574" d="M46.545 752.276h64.766"/>
  <use xlink:href="#a" width="55.537" height="64" x="-27.768" y="-32" transform="matrix(0 .3828 .4664 0 42.633 752.276)" overflow="visible"/>
</svg>